<?xml version="1.0" encoding="utf-8"?>
<!-- Generator: Adobe Illustrator 26.0.0, SVG Export Plug-In . SVG Version: 6.00 Build 0)  -->
<!DOCTYPE svg PUBLIC "-//W3C//DTD SVG 1.0//EN" "http://www.w3.org/TR/2001/REC-SVG-20010904/DTD/svg10.dtd" [
	<!ENTITY st0 "fill:#33CC43;">
]>
<svg version="1.0" id="图层_1" xmlns="http://www.w3.org/2000/svg" xmlns:xlink="http://www.w3.org/1999/xlink" x="0px" y="0px"
	 width="32px" height="32px" viewBox="0 0 32 32" style="enable-background:new 0 0 32 32;" xml:space="preserve">
<path style="&st0;" d="M16,0C7.16345,0,0,7.16345,0,16s7.16345,16,16,16s16-7.16345,16-16S24.83655,0,16,0z M25.29999,23.44
	l-3.71997,1.11597v-7.44l0.15686-0.04706c1.77588-0.53278,3.56311,0.797,3.56311,2.65106V23.44z M25.29999,6.70001l-7.44,2.23199
	v16.73993l-7.59686,2.27911c-1.77588,0.53278-3.56311-0.797-3.56311-2.65106l7.44-2.23206V10.04797l-3.87689,1.16309
	C8.48724,11.74377,6.70001,10.414,6.70001,8.56l15.03687-4.51111c1.77588-0.53271,3.56311,0.79706,3.56311,2.65106V6.70001z"/>
</svg>
