<?xml version="1.0" encoding="utf-8"?>
<!-- Generator: Adobe Illustrator 26.0.0, SVG Export Plug-In . SVG Version: 6.00 Build 0)  -->
<svg version="1.1" id="图层_1" xmlns="http://www.w3.org/2000/svg" xmlns:xlink="http://www.w3.org/1999/xlink" x="0px" y="0px"
	 width="40px" height="40px" viewBox="0 0 40 40" style="enable-background:new 0 0 40 40;" xml:space="preserve">
<style type="text/css">
	.st0{fill:url(#SVGID_1_);}
	.st1{fill:url(#SVGID_00000104666608262845473970000000654586145482340761_);}
	.st2{fill:url(#SVGID_00000110444873175052259470000016013796634831890342_);}
	.st3{fill:none;stroke:url(#SVGID_00000145777368917728341510000006393941772863675069_);stroke-width:2.2;stroke-miterlimit:10;}
	.st4{fill:none;stroke:url(#SVGID_00000137842887618840127890000013102430047317945020_);stroke-width:1.65;stroke-miterlimit:10;}
	.st5{fill:none;stroke:url(#SVGID_00000117654246943715478320000006556225197463374242_);stroke-width:1.1;stroke-miterlimit:10;}
	.st6{fill:none;stroke:url(#SVGID_00000008847602542666211550000017995724416461457848_);stroke-width:0.55;stroke-miterlimit:10;}
</style>
<radialGradient id="SVGID_1_" cx="213.1748" cy="878.8252" r="8.7569" gradientTransform="matrix(1 0 0 1 -193.1748 -858.8252)" gradientUnits="userSpaceOnUse">
	<stop  offset="0" style="stop-color:#FF3333"/>
	<stop  offset="1" style="stop-color:#FF3333;stop-opacity:0"/>
</radialGradient>
<path class="st0" d="M20,28.8c-4.8,0-8.8-4-8.8-8.8s4-8.8,8.8-8.8s8.8,4,8.8,8.8S24.8,28.8,20,28.8z"/>
<g>
	
		<linearGradient id="SVGID_00000080177373833150801110000018272844775009962915_" gradientUnits="userSpaceOnUse" x1="195.8589" y1="878.8118" x2="210.867" y2="878.8118" gradientTransform="matrix(1 0 0 1 -193.1748 -858.8252)">
		<stop  offset="0" style="stop-color:#FFFFFF;stop-opacity:0"/>
		<stop  offset="1" style="stop-color:#FFFFFF"/>
	</linearGradient>
	<path style="fill:url(#SVGID_00000080177373833150801110000018272844775009962915_);" d="M2.7,18.5h14.5c0,0,0-3.2,0-4.1
		c0-0.3,0.2-0.7,0.5-0.3c1.7,1.3,7,4.8,7.9,5.5c0.3,0.2,0.3,0.5,0,0.9c-1.5,1.2-6.9,4.7-7.8,5.5c-0.3,0.2-0.7,0.1-0.7-0.3
		c0-0.9,0-4,0-4H2.7V18.5z"/>
	
		<linearGradient id="SVGID_00000086664508254431677010000003783164193515111604_" gradientUnits="userSpaceOnUse" x1="195.8589" y1="878.8118" x2="210.867" y2="878.8118" gradientTransform="matrix(1 0 0 1 -193.1748 -858.8252)">
		<stop  offset="0" style="stop-color:#FFFFFF;stop-opacity:0"/>
		<stop  offset="1" style="stop-color:#FFFFFF"/>
	</linearGradient>
	<path style="fill:url(#SVGID_00000086664508254431677010000003783164193515111604_);" d="M2.7,18.5h14.5c0,0,0-3.2,0-4.1
		c0-0.3,0.2-0.7,0.5-0.3c1.7,1.3,7,4.8,7.9,5.5c0.3,0.2,0.3,0.5,0,0.9c-1.5,1.2-6.9,4.7-7.8,5.5c-0.3,0.2-0.7,0.1-0.7-0.3
		c0-0.9,0-4,0-4H2.7V18.5z"/>
</g>
<linearGradient id="SVGID_00000168824514531926054910000015341668908485703089_" gradientUnits="userSpaceOnUse" x1="195.8589" y1="878.8118" x2="210.915" y2="878.8118" gradientTransform="matrix(1 0 0 1 -193.1748 -858.8252)">
	<stop  offset="0" style="stop-color:#FF6666;stop-opacity:0"/>
	<stop  offset="1" style="stop-color:#FF6666;stop-opacity:0.2"/>
</linearGradient>
<path style="fill:none;stroke:url(#SVGID_00000168824514531926054910000015341668908485703089_);stroke-width:2.2;stroke-miterlimit:10;" d="
	M2.7,18.5h14.5c0,0,0-3.2,0-4.1c0-0.3,0.2-0.7,0.5-0.3c1.7,1.3,7,4.8,7.9,5.5c0.3,0.2,0.3,0.5,0,0.9c-1.5,1.2-6.9,4.7-7.8,5.5
	c-0.3,0.2-0.7,0.1-0.7-0.3c0-0.9,0-4,0-4H2.7V18.5z"/>
<linearGradient id="SVGID_00000074436079253493972900000005407382100387601298_" gradientUnits="userSpaceOnUse" x1="195.8589" y1="878.8118" x2="210.915" y2="878.8118" gradientTransform="matrix(1 0 0 1 -193.1748 -858.8252)">
	<stop  offset="0" style="stop-color:#FF6666;stop-opacity:0"/>
	<stop  offset="1" style="stop-color:#FF6666;stop-opacity:0.2"/>
</linearGradient>
<path style="fill:none;stroke:url(#SVGID_00000074436079253493972900000005407382100387601298_);stroke-width:1.65;stroke-miterlimit:10;" d="
	M2.7,18.5h14.5c0,0,0-3.2,0-4.1c0-0.3,0.2-0.7,0.5-0.3c1.7,1.3,7,4.8,7.9,5.5c0.3,0.2,0.3,0.5,0,0.9c-1.5,1.2-6.9,4.7-7.8,5.5
	c-0.3,0.2-0.7,0.1-0.7-0.3c0-0.9,0-4,0-4H2.7V18.5z"/>
<linearGradient id="SVGID_00000003783943984265352710000008094368351465619099_" gradientUnits="userSpaceOnUse" x1="195.8589" y1="878.8118" x2="210.915" y2="878.8118" gradientTransform="matrix(1 0 0 1 -193.1748 -858.8252)">
	<stop  offset="0" style="stop-color:#FF6666;stop-opacity:0"/>
	<stop  offset="1" style="stop-color:#FF6666;stop-opacity:0.2"/>
</linearGradient>
<path style="fill:none;stroke:url(#SVGID_00000003783943984265352710000008094368351465619099_);stroke-width:1.1;stroke-miterlimit:10;" d="
	M2.7,18.5h14.5c0,0,0-3.2,0-4.1c0-0.3,0.2-0.7,0.5-0.3c1.7,1.3,7,4.8,7.9,5.5c0.3,0.2,0.3,0.5,0,0.9c-1.5,1.2-6.9,4.7-7.8,5.5
	c-0.3,0.2-0.7,0.1-0.7-0.3c0-0.9,0-4,0-4H2.7V18.5z"/>
<linearGradient id="SVGID_00000120519939213236275210000012575904459544933036_" gradientUnits="userSpaceOnUse" x1="195.8589" y1="878.8118" x2="210.915" y2="878.8118" gradientTransform="matrix(1 0 0 1 -193.1748 -858.8252)">
	<stop  offset="0" style="stop-color:#FF6666;stop-opacity:0"/>
	<stop  offset="1" style="stop-color:#FF6666;stop-opacity:0.2"/>
</linearGradient>
<path style="fill:none;stroke:url(#SVGID_00000120519939213236275210000012575904459544933036_);stroke-width:0.55;stroke-miterlimit:10;" d="
	M2.7,18.5h14.5c0,0,0-3.2,0-4.1c0-0.3,0.2-0.7,0.5-0.3c1.7,1.3,7,4.8,7.9,5.5c0.3,0.2,0.3,0.5,0,0.9c-1.5,1.2-6.9,4.7-7.8,5.5
	c-0.3,0.2-0.7,0.1-0.7-0.3c0-0.9,0-4,0-4H2.7V18.5z"/>
</svg>
