<?xml version="1.0" encoding="utf-8"?>
<!-- Generator: Adobe Illustrator 26.0.0, SVG Export Plug-In . SVG Version: 6.00 Build 0)  -->
<svg version="1.1" id="图层_1" xmlns="http://www.w3.org/2000/svg" xmlns:xlink="http://www.w3.org/1999/xlink" x="0px" y="0px"
	 width="40px" height="40px" viewBox="0 0 40 40" style="enable-background:new 0 0 40 40;" xml:space="preserve">
<style type="text/css">
	.st0{fill:url(#SVGID_1_);}
	.st1{fill:url(#SVGID_00000033363222614568394510000016498833401165008780_);}
	.st2{fill:url(#SVGID_00000087414560496378312260000013667873899054406070_);}
	.st3{fill:none;stroke:url(#SVGID_00000015338910897994920830000017466125629954271673_);stroke-width:2;stroke-miterlimit:10;}
	.st4{fill:none;stroke:url(#SVGID_00000180332572475917807290000015247913583658945433_);stroke-width:1.5;stroke-miterlimit:10;}
	.st5{fill:none;stroke:url(#SVGID_00000140721520166646158310000012132426120115171768_);stroke-miterlimit:10;}
	.st6{fill:none;stroke:url(#SVGID_00000048503368272686577820000011565997445342604168_);stroke-width:0.5;stroke-miterlimit:10;}
</style>
<radialGradient id="SVGID_1_" cx="213.1749" cy="-110.8252" r="7.9608" gradientTransform="matrix(1 0 0 -1 -193.1748 -90.8252)" gradientUnits="userSpaceOnUse">
	<stop  offset="0" style="stop-color:#FF3333"/>
	<stop  offset="1" style="stop-color:#FF3333;stop-opacity:0"/>
</radialGradient>
<path class="st0" d="M20,28c-4.4,0-8-3.6-8-8c0-4.4,3.6-8,8-8s8,3.6,8,8S24.4,28,20,28z"/>
<g>
	
		<linearGradient id="SVGID_00000090975544065034790240000001147344502294932659_" gradientUnits="userSpaceOnUse" x1="197.4331" y1="-110.8252" x2="211.0768" y2="-110.8252" gradientTransform="matrix(1 0 0 -1 -193.1748 -90.8252)">
		<stop  offset="0" style="stop-color:#FFFFFF;stop-opacity:0"/>
		<stop  offset="1" style="stop-color:#FFFFFF"/>
	</linearGradient>
	<path style="fill:url(#SVGID_00000090975544065034790240000001147344502294932659_);" d="M4.3,18.6l13.2,0c0,0,0-2.9,0-3.7
		c0-0.3,0.2-0.6,0.5-0.3c1.5,1.2,6.4,4.4,7.2,5c0.3,0.2,0.3,0.5,0,0.8c-1.4,1.1-6.3,4.3-7.1,5c-0.3,0.2-0.6,0.1-0.6-0.3
		c0-0.8,0-3.6,0-3.6l-13.2,0L4.3,18.6z"/>
	
		<linearGradient id="SVGID_00000032621130996552199960000017291984301129032098_" gradientUnits="userSpaceOnUse" x1="197.4331" y1="-110.8252" x2="211.0768" y2="-110.8252" gradientTransform="matrix(1 0 0 -1 -193.1748 -90.8252)">
		<stop  offset="0" style="stop-color:#FFFFFF;stop-opacity:0"/>
		<stop  offset="1" style="stop-color:#FFFFFF"/>
	</linearGradient>
	<path style="fill:url(#SVGID_00000032621130996552199960000017291984301129032098_);" d="M4.3,18.6l13.2,0c0,0,0-2.9,0-3.7
		c0-0.3,0.2-0.6,0.5-0.3c1.5,1.2,6.4,4.4,7.2,5c0.3,0.2,0.3,0.5,0,0.8c-1.4,1.1-6.3,4.3-7.1,5c-0.3,0.2-0.6,0.1-0.6-0.3
		c0-0.8,0-3.6,0-3.6l-13.2,0L4.3,18.6z"/>
</g>
<linearGradient id="SVGID_00000173863315232170360680000017445502592777187229_" gradientUnits="userSpaceOnUse" x1="197.4331" y1="-110.8252" x2="211.1204" y2="-110.8252" gradientTransform="matrix(1 0 0 -1 -193.1748 -90.8252)">
	<stop  offset="0" style="stop-color:#FF6666;stop-opacity:0"/>
	<stop  offset="1" style="stop-color:#FF6666;stop-opacity:0.2"/>
</linearGradient>
<path style="fill:none;stroke:url(#SVGID_00000173863315232170360680000017445502592777187229_);stroke-width:2;stroke-miterlimit:10;" d="
	M4.3,18.6l13.2,0c0,0,0-2.9,0-3.7c0-0.3,0.2-0.6,0.5-0.3c1.5,1.2,6.4,4.4,7.2,5c0.3,0.2,0.3,0.5,0,0.8c-1.4,1.1-6.3,4.3-7.1,5
	c-0.3,0.2-0.6,0.1-0.6-0.3c0-0.8,0-3.6,0-3.6l-13.2,0L4.3,18.6z"/>
<linearGradient id="SVGID_00000125589163619093321050000007213216835841059201_" gradientUnits="userSpaceOnUse" x1="197.4331" y1="-110.8252" x2="211.1204" y2="-110.8252" gradientTransform="matrix(1 0 0 -1 -193.1748 -90.8252)">
	<stop  offset="0" style="stop-color:#FF6666;stop-opacity:0"/>
	<stop  offset="1" style="stop-color:#FF6666;stop-opacity:0.2"/>
</linearGradient>
<path style="fill:none;stroke:url(#SVGID_00000125589163619093321050000007213216835841059201_);stroke-width:1.5;stroke-miterlimit:10;" d="
	M4.3,18.6l13.2,0c0,0,0-2.9,0-3.7c0-0.3,0.2-0.6,0.5-0.3c1.5,1.2,6.4,4.4,7.2,5c0.3,0.2,0.3,0.5,0,0.8c-1.4,1.1-6.3,4.3-7.1,5
	c-0.3,0.2-0.6,0.1-0.6-0.3c0-0.8,0-3.6,0-3.6l-13.2,0L4.3,18.6z"/>
<linearGradient id="SVGID_00000124866573679465703900000017948371610575160979_" gradientUnits="userSpaceOnUse" x1="197.4331" y1="-110.8252" x2="211.1204" y2="-110.8252" gradientTransform="matrix(1 0 0 -1 -193.1748 -90.8252)">
	<stop  offset="0" style="stop-color:#FF6666;stop-opacity:0"/>
	<stop  offset="1" style="stop-color:#FF6666;stop-opacity:0.2"/>
</linearGradient>
<path style="fill:none;stroke:url(#SVGID_00000124866573679465703900000017948371610575160979_);stroke-miterlimit:10;" d="
	M4.3,18.6l13.2,0c0,0,0-2.9,0-3.7c0-0.3,0.2-0.6,0.5-0.3c1.5,1.2,6.4,4.4,7.2,5c0.3,0.2,0.3,0.5,0,0.8c-1.4,1.1-6.3,4.3-7.1,5
	c-0.3,0.2-0.6,0.1-0.6-0.3c0-0.8,0-3.6,0-3.6l-13.2,0L4.3,18.6z"/>
<linearGradient id="SVGID_00000128468418957742606830000013146693707394280348_" gradientUnits="userSpaceOnUse" x1="197.4331" y1="-110.8252" x2="211.1204" y2="-110.8252" gradientTransform="matrix(1 0 0 -1 -193.1748 -90.8252)">
	<stop  offset="0" style="stop-color:#FF6666;stop-opacity:0"/>
	<stop  offset="1" style="stop-color:#FF6666;stop-opacity:0.2"/>
</linearGradient>
<path style="fill:none;stroke:url(#SVGID_00000128468418957742606830000013146693707394280348_);stroke-width:0.5;stroke-miterlimit:10;" d="
	M4.3,18.6l13.2,0c0,0,0-2.9,0-3.7c0-0.3,0.2-0.6,0.5-0.3c1.5,1.2,6.4,4.4,7.2,5c0.3,0.2,0.3,0.5,0,0.8c-1.4,1.1-6.3,4.3-7.1,5
	c-0.3,0.2-0.6,0.1-0.6-0.3c0-0.8,0-3.6,0-3.6l-13.2,0L4.3,18.6z"/>
</svg>
