<?xml version="1.0" encoding="utf-8"?>
<!-- Generator: Adobe Illustrator 26.0.0, SVG Export Plug-In . SVG Version: 6.00 Build 0)  -->
<svg version="1.1" id="图层_1" xmlns="http://www.w3.org/2000/svg" xmlns:xlink="http://www.w3.org/1999/xlink" x="0px" y="0px"
	 width="42px" height="42px" viewBox="0 0 42 42" style="enable-background:new 0 0 42 42;" xml:space="preserve">
<style type="text/css">
	.st0{fill:url(#SVGID_1_);}
	.st1{fill:#FF6666;}
	.st2{fill:none;stroke:#FEFEFE;stroke-miterlimit:10;stroke-opacity:0.2;}
	.st3{fill:none;stroke:#FEFEFE;stroke-width:0.5;stroke-miterlimit:10;stroke-opacity:0.2;}
	.st4{fill:url(#SVGID_00000128447156531519308160000001511802314651791543_);}
	.st5{fill:url(#SVGID_00000115478547704721884710000002910161739623326860_);}
	.st6{fill:url(#SVGID_00000073715024451066723540000015205860558422410145_);}
</style>
<radialGradient id="SVGID_1_" cx="161.3125" cy="528.6875" r="19.9" gradientTransform="matrix(1 0 0 1 -140.3125 -507.6875)" gradientUnits="userSpaceOnUse">
	<stop  offset="0" style="stop-color:#FF3333"/>
	<stop  offset="1" style="stop-color:#FF3333;stop-opacity:0"/>
</radialGradient>
<path class="st0" d="M1.1,21C1.1,10,10,1.1,21,1.1S40.9,10,40.9,21S32,40.9,21,40.9S1.1,32,1.1,21L1.1,21z"/>
<path class="st1" d="M21,4.3l6.1,8.5l9.9,3.1l-6.2,8.3l0.1,10.3L21,31.3l-9.9,3.2l0.2-10.3L5,15.9l9.9-3.1L21,4.3z"/>
<path class="st2" d="M21,4.3l6.1,8.5l9.9,3.1l-6.2,8.3l0.1,10.3L21,31.3l-9.9,3.2l0.2-10.3L5,15.9l9.9-3.1L21,4.3z"/>
<path class="st3" d="M21,4.3l6.1,8.5l9.9,3.1l-6.2,8.3l0.1,10.3L21,31.3l-9.9,3.2l0.2-10.3L5,15.9l9.9-3.1L21,4.3z"/>
<g>
	
		<radialGradient id="SVGID_00000149342240032020648670000005871068192578321537_" cx="161.3125" cy="528.6875" r="10" gradientTransform="matrix(1 0 0 1 -140.3125 -507.6875)" gradientUnits="userSpaceOnUse">
		<stop  offset="0" style="stop-color:#FFFFFF"/>
		<stop  offset="1" style="stop-color:#FFFFFF;stop-opacity:0"/>
	</radialGradient>
	<path style="fill:url(#SVGID_00000149342240032020648670000005871068192578321537_);" d="M11,21c0-5.5,4.5-10,10-10s10,4.5,10,10
		s-4.5,10-10,10S11,26.5,11,21z"/>
	
		<radialGradient id="SVGID_00000053529856198458640920000006680843546378743972_" cx="161.3125" cy="528.6875" r="10" gradientTransform="matrix(1 0 0 1 -140.3125 -507.6875)" gradientUnits="userSpaceOnUse">
		<stop  offset="0" style="stop-color:#FFFFFF"/>
		<stop  offset="1" style="stop-color:#FFFFFF;stop-opacity:0"/>
	</radialGradient>
	<path style="fill:url(#SVGID_00000053529856198458640920000006680843546378743972_);" d="M11,21c0-5.5,4.5-10,10-10s10,4.5,10,10
		s-4.5,10-10,10S11,26.5,11,21z"/>
	
		<radialGradient id="SVGID_00000124129204882060427870000001622002872285217462_" cx="161.3125" cy="528.6875" r="10" gradientTransform="matrix(1 0 0 1 -140.3125 -507.6875)" gradientUnits="userSpaceOnUse">
		<stop  offset="0" style="stop-color:#FFFFFF"/>
		<stop  offset="1" style="stop-color:#FFFFFF;stop-opacity:0"/>
	</radialGradient>
	<path style="fill:url(#SVGID_00000124129204882060427870000001622002872285217462_);" d="M11,21c0-5.5,4.5-10,10-10s10,4.5,10,10
		s-4.5,10-10,10S11,26.5,11,21z"/>
</g>
</svg>
