<?xml version="1.0" encoding="utf-8"?>
<!-- Generator: Adobe Illustrator 26.0.0, SVG Export Plug-In . SVG Version: 6.00 Build 0)  -->
<svg version="1.1" id="图层_1" xmlns="http://www.w3.org/2000/svg" xmlns:xlink="http://www.w3.org/1999/xlink" x="0px" y="0px"
	 width="42px" height="42px" viewBox="0 0 42 42" style="enable-background:new 0 0 42 42;" xml:space="preserve">
<style type="text/css">
	.st0{fill:url(#SVGID_1_);}
	.st1{fill:#FF6666;}
	.st2{fill:none;stroke:#FEFEFE;stroke-width:1.0302;stroke-miterlimit:10;stroke-opacity:0.2;}
	.st3{fill:none;stroke:#FEFEFE;stroke-width:0.5151;stroke-miterlimit:10;stroke-opacity:0.2;}
	.st4{fill:url(#SVGID_00000083079742040700935060000000883682783794886573_);}
	.st5{fill:url(#SVGID_00000085932786238254634690000017623933199535110024_);}
	.st6{fill:url(#SVGID_00000030474944782962495240000012396984373877074825_);}
</style>
<radialGradient id="SVGID_1_" cx="161.3125" cy="-484.6875" r="20.5" gradientTransform="matrix(1 0 0 -1 -140.3125 -463.6875)" gradientUnits="userSpaceOnUse">
	<stop  offset="0" style="stop-color:#FF3333"/>
	<stop  offset="1" style="stop-color:#FF3333;stop-opacity:0"/>
</radialGradient>
<path class="st0" d="M0.5,21C0.5,9.7,9.7,0.5,21,0.5S41.5,9.7,41.5,21S32.3,41.5,21,41.5S0.5,32.3,0.5,21L0.5,21z"/>
<path class="st1" d="M21,3.8l6.3,8.8l10.2,3.2l-6.4,8.6l0.1,10.6L21,31.6l-10.2,3.3L11,24.3l-6.5-8.6l10.2-3.2L21,3.8z"/>
<path class="st2" d="M21,3.8l6.3,8.8l10.2,3.2l-6.4,8.6l0.1,10.6L21,31.6l-10.2,3.3L11,24.3l-6.5-8.6l10.2-3.2L21,3.8z"/>
<path class="st3" d="M21,3.8l6.3,8.8l10.2,3.2l-6.4,8.6l0.1,10.6L21,31.6l-10.2,3.3L11,24.3l-6.5-8.6l10.2-3.2L21,3.8z"/>
<g>
	
		<radialGradient id="SVGID_00000019679991977401951590000011419288655321146254_" cx="161.3125" cy="-484.6875" r="10.3015" gradientTransform="matrix(1 0 0 -1 -140.3125 -463.6875)" gradientUnits="userSpaceOnUse">
		<stop  offset="0" style="stop-color:#FFFFFF"/>
		<stop  offset="1" style="stop-color:#FFFFFF;stop-opacity:0"/>
	</radialGradient>
	<path style="fill:url(#SVGID_00000019679991977401951590000011419288655321146254_);" d="M10.7,21c0-5.7,4.6-10.3,10.3-10.3
		S31.3,15.3,31.3,21S26.7,31.3,21,31.3S10.7,26.7,10.7,21z"/>
	
		<radialGradient id="SVGID_00000052063030058273912230000000375697645302872254_" cx="161.3125" cy="-484.6875" r="10.3015" gradientTransform="matrix(1 0 0 -1 -140.3125 -463.6875)" gradientUnits="userSpaceOnUse">
		<stop  offset="0" style="stop-color:#FFFFFF"/>
		<stop  offset="1" style="stop-color:#FFFFFF;stop-opacity:0"/>
	</radialGradient>
	<path style="fill:url(#SVGID_00000052063030058273912230000000375697645302872254_);" d="M10.7,21c0-5.7,4.6-10.3,10.3-10.3
		S31.3,15.3,31.3,21S26.7,31.3,21,31.3S10.7,26.7,10.7,21z"/>
	
		<radialGradient id="SVGID_00000068640681618030906020000004496905816869325965_" cx="161.3125" cy="-484.6875" r="10.3015" gradientTransform="matrix(1 0 0 -1 -140.3125 -463.6875)" gradientUnits="userSpaceOnUse">
		<stop  offset="0" style="stop-color:#FFFFFF"/>
		<stop  offset="1" style="stop-color:#FFFFFF;stop-opacity:0"/>
	</radialGradient>
	<path style="fill:url(#SVGID_00000068640681618030906020000004496905816869325965_);" d="M10.7,21c0-5.7,4.6-10.3,10.3-10.3
		S31.3,15.3,31.3,21S26.7,31.3,21,31.3S10.7,26.7,10.7,21z"/>
</g>
</svg>
