<?xml version="1.0" encoding="utf-8"?>
<!-- Generator: Adobe Illustrator 26.0.0, SVG Export Plug-In . SVG Version: 6.00 Build 0)  -->
<svg version="1.1" id="图层_1" xmlns="http://www.w3.org/2000/svg" xmlns:xlink="http://www.w3.org/1999/xlink" x="0px" y="0px"
	 width="80px" height="80px" viewBox="0 0 80 80" style="enable-background:new 0 0 80 80;" xml:space="preserve">
<style type="text/css">
	.st0{fill:none;stroke:url(#SVGID_1_);stroke-width:17.3333;stroke-miterlimit:10;}
	.st1{fill:url(#SVGID_00000147216673248597428080000009756050978116006076_);stroke:#FFFFFF;stroke-width:11;stroke-miterlimit:10;}
	.st2{fill:none;stroke:url(#SVGID_00000090260299393392316430000002048580012007827643_);stroke-width:11;stroke-miterlimit:10;}
</style>
<radialGradient id="SVGID_1_" cx="180.3125" cy="810.6875" r="38.9592" gradientTransform="matrix(1 0 0 1 -140.3125 -770.6875)" gradientUnits="userSpaceOnUse">
	<stop  offset="0" style="stop-color:#FF3333"/>
	<stop  offset="1" style="stop-color:#FF3333;stop-opacity:0"/>
</radialGradient>
<path class="st0" d="M1,40C1,18.4,18.4,1,40,1s39,17.4,39,39S61.6,79,40,79S1,61.6,1,40z"/>
<radialGradient id="SVGID_00000106148053516038862660000017441142740969513112_" cx="180.3125" cy="810.6875" r="25.9542" gradientTransform="matrix(1 0 0 1 -140.3125 -770.6875)" gradientUnits="userSpaceOnUse">
	<stop  offset="0" style="stop-color:#FF6666;stop-opacity:0"/>
	<stop  offset="1" style="stop-color:#FF6666"/>
</radialGradient>
<path style="fill:url(#SVGID_00000106148053516038862660000017441142740969513112_);stroke:#FFFFFF;stroke-width:11;stroke-miterlimit:10;" d="
	M14,40c0-14.3,11.7-26,26-26s26,11.7,26,26S54.3,66,40,66S14,54.3,14,40L14,40z"/>
<radialGradient id="SVGID_00000033369093177811788890000018420452652820136339_" cx="180.3125" cy="810.6875" r="26.5605" gradientTransform="matrix(1 0 0 1 -140.3125 -770.6875)" gradientUnits="userSpaceOnUse">
	<stop  offset="0" style="stop-color:#FF0000"/>
	<stop  offset="1" style="stop-color:#FF0000;stop-opacity:0"/>
</radialGradient>
<path style="fill:none;stroke:url(#SVGID_00000033369093177811788890000018420452652820136339_);stroke-width:11;stroke-miterlimit:10;" d="
	M14,40c0-14.4,11.7-26,26-26c14.4,0,26,11.7,26,26c0,14.4-11.7,26-26,26C25.6,66,14,54.4,14,40L14,40z"/>
</svg>
