<?xml version="1.0" encoding="utf-8"?>
<!-- Generator: Adobe Illustrator 26.0.0, SVG Export Plug-In . SVG Version: 6.00 Build 0)  -->
<svg version="1.1" id="图层_1" xmlns="http://www.w3.org/2000/svg" xmlns:xlink="http://www.w3.org/1999/xlink" x="0px" y="0px"
	 width="20px" height="20px" viewBox="0 0 20 20" style="enable-background:new 0 0 20 20;" xml:space="preserve">
<style type="text/css">
	.st0{fill:#FFFFFF;stroke:#FFFFFF;stroke-width:0.5;stroke-miterlimit:10;}
	.st1{fill:none;stroke:#FF3333;stroke-width:1.5;stroke-miterlimit:10;stroke-opacity:0.2941;}
	.st2{fill:none;stroke:#FF3333;stroke-miterlimit:10;stroke-opacity:0.2941;}
	.st3{fill:none;stroke:#FF3333;stroke-width:0.5;stroke-miterlimit:10;stroke-opacity:0.2941;}
	.st4{fill:none;stroke:#FF3333;stroke-width:4.5;stroke-miterlimit:10;stroke-opacity:7.843000e-02;}
	.st5{fill:none;stroke:#FF3333;stroke-width:3.5;stroke-miterlimit:10;stroke-opacity:7.843000e-02;}
	.st6{fill:none;stroke:#FF3333;stroke-width:2.5;stroke-miterlimit:10;stroke-opacity:7.843000e-02;}
</style>
<path class="st0" d="M5,12.7V7.3h8.2l2.7,2.7l-2.7,2.7L5,12.7z"/>
<path class="st1" d="M5,12.7V7.3h8.2l2.7,2.7l-2.7,2.7L5,12.7z"/>
<path class="st2" d="M5,12.7V7.3h8.2l2.7,2.7l-2.7,2.7L5,12.7z"/>
<path class="st3" d="M5,12.7V7.3h8.2l2.7,2.7l-2.7,2.7L5,12.7z"/>
<g>
	<path class="st4" d="M5,12.7V7.3h8.2l2.7,2.7l-2.7,2.7H5z"/>
	<path class="st5" d="M5,12.7V7.3h8.2l2.7,2.7l-2.7,2.7H5z"/>
	<path class="st6" d="M5,12.7V7.3h8.2l2.7,2.7l-2.7,2.7H5z"/>
</g>
</svg>
