<?xml version="1.0" encoding="utf-8"?>
<!-- Generator: Adobe Illustrator 26.0.0, SVG Export Plug-In . SVG Version: 6.00 Build 0)  -->
<svg version="1.1" id="图层_1" xmlns="http://www.w3.org/2000/svg" xmlns:xlink="http://www.w3.org/1999/xlink" x="0px" y="0px"
	 width="21px" height="14px" viewBox="0 0 21 14" style="enable-background:new 0 0 21 14;" xml:space="preserve">
<style type="text/css">
	.st0{fill:#FFFFFF;stroke:#FFFFFF;stroke-width:0.5556;stroke-miterlimit:10;}
	.st1{fill:none;stroke:#FF3333;stroke-width:1.6667;stroke-miterlimit:10;stroke-opacity:0.2941;}
	.st2{fill:none;stroke:#FF3333;stroke-width:1.1111;stroke-miterlimit:10;stroke-opacity:0.2941;}
	.st3{fill:none;stroke:#FF3333;stroke-width:0.5556;stroke-miterlimit:10;stroke-opacity:0.2941;}
	.st4{fill:none;stroke:#FF3333;stroke-width:5;stroke-miterlimit:10;stroke-opacity:7.843000e-02;}
	.st5{fill:none;stroke:#FF3333;stroke-width:3.8889;stroke-miterlimit:10;stroke-opacity:7.843000e-02;}
	.st6{fill:none;stroke:#FF3333;stroke-width:2.7778;stroke-miterlimit:10;stroke-opacity:7.843000e-02;}
</style>
<path class="st0" d="M4.9,10V4H14l3,3l-3,3H4.9z"/>
<path class="st1" d="M4.9,10V4H14l3,3l-3,3H4.9z"/>
<path class="st2" d="M4.9,10V4H14l3,3l-3,3H4.9z"/>
<path class="st3" d="M4.9,10V4H14l3,3l-3,3H4.9z"/>
<g>
	<path class="st4" d="M4.9,10V4H14l3,3l-3,3H4.9z"/>
	<path class="st5" d="M4.9,10V4H14l3,3l-3,3H4.9z"/>
	<path class="st6" d="M4.9,10V4H14l3,3l-3,3H4.9z"/>
</g>
</svg>
