<?xml version="1.0" encoding="utf-8"?>
<!-- Generator: Adobe Illustrator 26.0.0, SVG Export Plug-In . SVG Version: 6.00 Build 0)  -->
<svg version="1.1" id="图层_1" xmlns="http://www.w3.org/2000/svg" xmlns:xlink="http://www.w3.org/1999/xlink" x="0px" y="0px"
	 width="20px" height="20px" viewBox="0 0 20 20" style="enable-background:new 0 0 20 20;" xml:space="preserve">
<style type="text/css">
	.st0{fill:none;stroke:url(#SVGID_1_);stroke-width:3;stroke-miterlimit:10;}
	.st1{fill:none;stroke:#FF6666;stroke-miterlimit:10;}
	.st2{fill:url(#SVGID_00000165212962622350150760000018154721016408140437_);stroke:#FFFFFF;stroke-miterlimit:10;}
	.st3{fill:none;stroke:url(#SVGID_00000137109722351158364270000017340439244697525643_);stroke-width:1.25;stroke-miterlimit:10;}
	.st4{fill:url(#SVGID_00000173157989139173649510000000950944361721324182_);}
	.st5{fill:url(#SVGID_00000057850972741207063240000002708900047983252890_);}
	.st6{fill:url(#SVGID_00000056413705845023646910000003695481855412094354_);}
	.st7{fill:url(#SVGID_00000109736162134999079740000009043492761283247498_);}
	.st8{fill:url(#SVGID_00000134958795473852456620000009364156359492276878_);}
	.st9{fill:#FF6666;stroke:#FF6666;stroke-miterlimit:10;}
	.st10{fill:url(#SVGID_00000088095868484132693830000010917903595124016544_);}
	.st11{fill:url(#SVGID_00000092451900288721502250000008038197160288692626_);}
</style>
<radialGradient id="SVGID_1_" cx="197.9774" cy="-120.8252" r="4.0005" gradientTransform="matrix(1 0 0 -1 -193.1748 -110.8252)" gradientUnits="userSpaceOnUse">
	<stop  offset="0" style="stop-color:#FF3333"/>
	<stop  offset="1" style="stop-color:#FF3333;stop-opacity:0"/>
</radialGradient>
<path class="st0" d="M4.8,6c2.2,0,4,1.8,4,4s-1.8,4-4,4c-2.2,0-4-1.8-4-4S2.6,6,4.8,6z"/>
<path class="st1" d="M4.8,7.8C6,7.8,7,8.8,7,10s-1,2.2-2.2,2.2c-1.2,0-2.2-1-2.2-2.2C2.6,8.8,3.6,7.8,4.8,7.8z"/>
<radialGradient id="SVGID_00000036253540192841897420000003585068388091948475_" cx="197.9774" cy="-120.8252" r="1.6503" gradientTransform="matrix(1 0 0 -1 -193.1748 -110.8252)" gradientUnits="userSpaceOnUse">
	<stop  offset="0" style="stop-color:#FF8080;stop-opacity:0"/>
	<stop  offset="1" style="stop-color:#FF8080"/>
</radialGradient>
<path style="fill:url(#SVGID_00000036253540192841897420000003585068388091948475_);stroke:#FFFFFF;stroke-miterlimit:10;" d="
	M4.8,8.3c0.9,0,1.7,0.7,1.7,1.7c0,0.9-0.7,1.7-1.7,1.7c-0.9,0-1.7-0.7-1.7-1.7C3.2,9.1,3.9,8.3,4.8,8.3z"/>
<radialGradient id="SVGID_00000171687461573191487110000007570672985557912464_" cx="197.9774" cy="-120.8252" r="1.7641" gradientTransform="matrix(1 0 0 -1 -193.1748 -110.8252)" gradientUnits="userSpaceOnUse">
	<stop  offset="0" style="stop-color:#FF3333"/>
	<stop  offset="1" style="stop-color:#FF3333;stop-opacity:0"/>
</radialGradient>
<path style="fill:none;stroke:url(#SVGID_00000171687461573191487110000007570672985557912464_);stroke-width:1.25;stroke-miterlimit:10;" d="
	M4.8,8.2c1,0,1.8,0.8,1.8,1.8c0,1-0.8,1.8-1.8,1.8C3.8,11.8,3,11,3,10C3,9,3.8,8.2,4.8,8.2z"/>
<radialGradient id="SVGID_00000182486163533646106810000013591853252814046093_" cx="209.862" cy="-120.8867" r="2.6989" gradientTransform="matrix(1 0 0 -1 -193.1748 -110.8252)" gradientUnits="userSpaceOnUse">
	<stop  offset="0" style="stop-color:#FF3333;stop-opacity:0.8"/>
	<stop  offset="1" style="stop-color:#FF3333;stop-opacity:0"/>
</radialGradient>
<path style="fill:url(#SVGID_00000182486163533646106810000013591853252814046093_);" d="M16.7,12.8c-1.5,0-2.7-1.2-2.7-2.7
	c0-1.5,1.2-2.7,2.7-2.7c1.5,0,2.7,1.2,2.7,2.7C19.4,11.6,18.2,12.8,16.7,12.8z"/>
<radialGradient id="SVGID_00000072253152108539709910000010453758587873769879_" cx="203.6855" cy="-118.4362" r="2.928" gradientTransform="matrix(1 0 0 -1 -193.1748 -110.8252)" gradientUnits="userSpaceOnUse">
	<stop  offset="0" style="stop-color:#FF3333;stop-opacity:0.8"/>
	<stop  offset="1" style="stop-color:#FF3333;stop-opacity:0"/>
</radialGradient>
<path style="fill:url(#SVGID_00000072253152108539709910000010453758587873769879_);" d="M10.5,10.5c-1.6,0-2.9-1.3-2.9-2.9
	s1.3-2.9,2.9-2.9c1.6,0,2.9,1.3,2.9,2.9S12.1,10.5,10.5,10.5L10.5,10.5z"/>
<radialGradient id="SVGID_00000057832634413131818910000009223670584683007107_" cx="203.555" cy="-123.2142" r="2.928" gradientTransform="matrix(1 0 0 -1 -193.1748 -110.8252)" gradientUnits="userSpaceOnUse">
	<stop  offset="0" style="stop-color:#FF3333;stop-opacity:0.8"/>
	<stop  offset="1" style="stop-color:#FF3333;stop-opacity:0"/>
</radialGradient>
<path style="fill:url(#SVGID_00000057832634413131818910000009223670584683007107_);" d="M10.4,15.3c-1.6,0-2.9-1.3-2.9-2.9
	s1.3-2.9,2.9-2.9c1.6,0,2.9,1.3,2.9,2.9S12,15.3,10.4,15.3z"/>
<radialGradient id="SVGID_00000094608985077816010420000017227063761592263860_" cx="202.1289" cy="-120.8879" r="2.6989" gradientTransform="matrix(1 0 0 -1 -193.1748 -110.8252)" gradientUnits="userSpaceOnUse">
	<stop  offset="0" style="stop-color:#FF3333;stop-opacity:0.8"/>
	<stop  offset="1" style="stop-color:#FF3333;stop-opacity:0"/>
</radialGradient>
<path style="fill:url(#SVGID_00000094608985077816010420000017227063761592263860_);" d="M9,12.8c-1.5,0-2.7-1.2-2.7-2.7
	c0-1.5,1.2-2.7,2.7-2.7c1.5,0,2.7,1.2,2.7,2.7C11.6,11.6,10.4,12.8,9,12.8z"/>
<radialGradient id="SVGID_00000166647404398637424070000009234371399078520492_" cx="205.8338" cy="-120.7715" r="4.982" gradientTransform="matrix(1 0 0 -1 -193.1748 -110.8252)" gradientUnits="userSpaceOnUse">
	<stop  offset="0" style="stop-color:#FF3333"/>
	<stop  offset="1" style="stop-color:#FF3333;stop-opacity:0"/>
</radialGradient>
<path style="fill:url(#SVGID_00000166647404398637424070000009234371399078520492_);" d="M12.7,14.9c-2.7,0-4.9-2.2-4.9-5
	c0-2.8,2.2-5,4.9-5s4.9,2.2,4.9,5C17.6,12.7,15.4,14.9,12.7,14.9z"/>
<path class="st9" d="M17.5,10.3c-0.9,0.4-4.9,2.2-6.5,2.8c-0.4,0.2-0.7,0-0.9-0.3c-0.2-0.4-0.7-1.5-1.1-2.2c-0.2-0.4-0.2-0.9,0-1.3
	c0.3-0.7,0.9-1.8,1-2.2c0.1-0.2,0.5-0.4,0.8-0.3c0,0,5.6,2.5,6.5,2.8C17.9,9.9,17.8,10.1,17.5,10.3L17.5,10.3z"/>
<linearGradient id="SVGID_00000026141675601082959780000001682740002901915785_" gradientUnits="userSpaceOnUse" x1="203.7898" y1="-120.8252" x2="212.5955" y2="-120.8252" gradientTransform="matrix(1 0 0 -1 -193.1748 -110.8252)">
	<stop  offset="0" style="stop-color:#FFFFFF"/>
	<stop  offset="1" style="stop-color:#FF7D7D"/>
</linearGradient>
<path style="fill:url(#SVGID_00000026141675601082959780000001682740002901915785_);" d="M17.5,10.3c-0.9,0.4-4.9,2.2-6.5,2.8
	c-0.4,0.2-0.7,0-0.9-0.3c-0.2-0.4-0.8-1.7-1.1-2.4c-0.2-0.4-0.2-0.5,0-0.9c0.3-0.7,1-2,1.1-2.4c0.1-0.2,0.5-0.4,0.8-0.3
	c0,0,5.6,2.5,6.5,2.8C17.9,9.9,17.8,10.1,17.5,10.3L17.5,10.3z"/>
<linearGradient id="SVGID_00000106141194674583010030000016088346995351092357_" gradientUnits="userSpaceOnUse" x1="208.312" y1="-123.4961" x2="203.8485" y2="-119.0547" gradientTransform="matrix(1 0 0 -1 -193.1748 -110.8252)">
	<stop  offset="0" style="stop-color:#FF6666"/>
	<stop  offset="1" style="stop-color:#FFFFFF"/>
</linearGradient>
<path style="fill:url(#SVGID_00000106141194674583010030000016088346995351092357_);" d="M17.7,10c0.1,0-0.1,0.2-0.2,0.3
	c-0.9,0.4-5,2.1-6.5,2.8c-0.4,0.2-0.8,0-0.9-0.3c-0.2-0.4-0.7-1.5-1.1-2.2C9,10.5,8.8,10,9,10C9.4,10,17.7,10,17.7,10L17.7,10z"/>
</svg>
