<?xml version="1.0" encoding="utf-8"?>
<!-- Generator: Adobe Illustrator 26.0.0, SVG Export Plug-In . SVG Version: 6.00 Build 0)  -->
<svg version="1.1" id="图层_1" xmlns="http://www.w3.org/2000/svg" xmlns:xlink="http://www.w3.org/1999/xlink" x="0px" y="0px"
	 width="20px" height="20px" viewBox="0 0 20 20" style="enable-background:new 0 0 20 20;" xml:space="preserve">
<style type="text/css">
	.st0{fill:none;stroke:url(#SVGID_1_);stroke-width:3;stroke-miterlimit:10;}
	.st1{fill:none;stroke:#FF6666;stroke-miterlimit:10;}
	.st2{fill:url(#SVGID_00000054953306606381526930000016354744495827901374_);stroke:#FFFFFF;stroke-miterlimit:10;}
	.st3{fill:none;stroke:url(#SVGID_00000121994322804576757160000014291103470218643900_);stroke-width:1.25;stroke-miterlimit:10;}
	.st4{fill:url(#SVGID_00000024687452689262125690000007552879907731416999_);}
	.st5{fill:url(#SVGID_00000056421397292367855140000013123682664170759075_);}
	.st6{fill:url(#SVGID_00000103980353171699022570000011048490805165643660_);}
	.st7{fill:url(#SVGID_00000084510404332891212580000006770751102735186575_);}
	.st8{fill:url(#SVGID_00000101096051463593878350000003950496118972490636_);}
	.st9{fill:#FF6666;stroke:#FF6666;stroke-miterlimit:10;}
	.st10{fill:url(#SVGID_00000176729477335205475790000008346075004403059095_);}
	.st11{fill:url(#SVGID_00000034055735275360403460000014599062715898010521_);}
</style>
<radialGradient id="SVGID_1_" cx="197.9748" cy="888.8252" r="4.0014" gradientTransform="matrix(1 0 0 1 -193.1748 -878.8252)" gradientUnits="userSpaceOnUse">
	<stop  offset="0" style="stop-color:#FF3333"/>
	<stop  offset="1" style="stop-color:#FF3333;stop-opacity:0"/>
</radialGradient>
<path class="st0" d="M4.8,6c2.2,0,4,1.8,4,4s-1.8,4-4,4s-4-1.8-4-4S2.6,6,4.8,6z"/>
<path class="st1" d="M4.8,7.8C6,7.8,7,8.8,7,10s-1,2.2-2.2,2.2s-2.2-1-2.2-2.2C2.6,8.8,3.6,7.8,4.8,7.8z"/>
<radialGradient id="SVGID_00000083077402917257793360000003481846779816494266_" cx="4.8" cy="10" r="1.6516" gradientUnits="userSpaceOnUse">
	<stop  offset="0" style="stop-color:#FF8080;stop-opacity:0"/>
	<stop  offset="1" style="stop-color:#FF8080"/>
</radialGradient>
<circle style="fill:url(#SVGID_00000083077402917257793360000003481846779816494266_);stroke:#FFFFFF;stroke-miterlimit:10;" cx="4.8" cy="10" r="1.7"/>
<radialGradient id="SVGID_00000069395527376550556010000002694753533428802966_" cx="197.9748" cy="888.8252" r="1.765" gradientTransform="matrix(1 0 0 1 -193.1748 -878.8252)" gradientUnits="userSpaceOnUse">
	<stop  offset="0" style="stop-color:#FF3333"/>
	<stop  offset="1" style="stop-color:#FF3333;stop-opacity:0"/>
</radialGradient>
<path style="fill:none;stroke:url(#SVGID_00000069395527376550556010000002694753533428802966_);stroke-width:1.25;stroke-miterlimit:10;" d="
	M4.8,8.2c1,0,1.8,0.8,1.8,1.8s-0.8,1.8-1.8,1.8S3,11,3,10S3.8,8.2,4.8,8.2z"/>
<radialGradient id="SVGID_00000059311474383705244820000012100227772670885296_" cx="209.862" cy="888.8867" r="2.6989" gradientTransform="matrix(1 0 0 1 -193.1748 -878.8252)" gradientUnits="userSpaceOnUse">
	<stop  offset="0" style="stop-color:#FF3333;stop-opacity:0.8"/>
	<stop  offset="1" style="stop-color:#FF3333;stop-opacity:0"/>
</radialGradient>
<path style="fill:url(#SVGID_00000059311474383705244820000012100227772670885296_);" d="M16.7,12.8c-1.5,0-2.7-1.2-2.7-2.7
	s1.2-2.7,2.7-2.7s2.7,1.2,2.7,2.7C19.4,11.6,18.2,12.8,16.7,12.8z"/>
<radialGradient id="SVGID_00000090988781964208507460000009237202263412332691_" cx="203.6855" cy="886.4362" r="2.928" gradientTransform="matrix(1 0 0 1 -193.1748 -878.8252)" gradientUnits="userSpaceOnUse">
	<stop  offset="0" style="stop-color:#FF3333;stop-opacity:0.8"/>
	<stop  offset="1" style="stop-color:#FF3333;stop-opacity:0"/>
</radialGradient>
<path style="fill:url(#SVGID_00000090988781964208507460000009237202263412332691_);" d="M10.5,10.5c-1.6,0-2.9-1.3-2.9-2.9
	s1.3-2.9,2.9-2.9s2.9,1.3,2.9,2.9S12.1,10.5,10.5,10.5L10.5,10.5z"/>
<radialGradient id="SVGID_00000147935561322783544150000004933127116492355974_" cx="203.555" cy="891.2142" r="2.928" gradientTransform="matrix(1 0 0 1 -193.1748 -878.8252)" gradientUnits="userSpaceOnUse">
	<stop  offset="0" style="stop-color:#FF3333;stop-opacity:0.8"/>
	<stop  offset="1" style="stop-color:#FF3333;stop-opacity:0"/>
</radialGradient>
<path style="fill:url(#SVGID_00000147935561322783544150000004933127116492355974_);" d="M10.4,15.3c-1.6,0-2.9-1.3-2.9-2.9
	s1.3-2.9,2.9-2.9s2.9,1.3,2.9,2.9S12,15.3,10.4,15.3z"/>
<radialGradient id="SVGID_00000183207064937492782150000015964167340451554717_" cx="202.1289" cy="888.8879" r="2.6989" gradientTransform="matrix(1 0 0 1 -193.1748 -878.8252)" gradientUnits="userSpaceOnUse">
	<stop  offset="0" style="stop-color:#FF3333;stop-opacity:0.8"/>
	<stop  offset="1" style="stop-color:#FF3333;stop-opacity:0"/>
</radialGradient>
<path style="fill:url(#SVGID_00000183207064937492782150000015964167340451554717_);" d="M9,12.8c-1.5,0-2.7-1.2-2.7-2.7
	S7.5,7.4,9,7.4s2.7,1.2,2.7,2.7C11.6,11.6,10.4,12.8,9,12.8z"/>
<radialGradient id="SVGID_00000166642013753620786920000003835820402863091874_" cx="205.8338" cy="888.7715" r="4.982" gradientTransform="matrix(1 0 0 1 -193.1748 -878.8252)" gradientUnits="userSpaceOnUse">
	<stop  offset="0" style="stop-color:#FF3333"/>
	<stop  offset="1" style="stop-color:#FF3333;stop-opacity:0"/>
</radialGradient>
<path style="fill:url(#SVGID_00000166642013753620786920000003835820402863091874_);" d="M12.7,14.9c-2.7,0-4.9-2.2-4.9-5
	s2.2-5,4.9-5s4.9,2.2,4.9,5S15.4,14.9,12.7,14.9z"/>
<path class="st9" d="M17.5,10.3c-0.9,0.4-4.9,2.2-6.5,2.8c-0.4,0.2-0.7,0-0.9-0.3c-0.2-0.4-0.7-1.5-1.1-2.2c-0.2-0.4-0.2-0.9,0-1.3
	c0.3-0.7,0.9-1.8,1-2.2c0.1-0.2,0.5-0.4,0.8-0.3c0,0,5.6,2.5,6.5,2.8C17.9,9.9,17.8,10.1,17.5,10.3L17.5,10.3z"/>
<linearGradient id="SVGID_00000023251075243006552880000007369064917964156297_" gradientUnits="userSpaceOnUse" x1="203.7898" y1="888.8022" x2="212.5955" y2="888.8022" gradientTransform="matrix(1 0 0 1 -193.1748 -878.8252)">
	<stop  offset="0" style="stop-color:#FFFFFF"/>
	<stop  offset="1" style="stop-color:#FF7D7D"/>
</linearGradient>
<path style="fill:url(#SVGID_00000023251075243006552880000007369064917964156297_);" d="M17.5,10.3c-0.9,0.4-4.9,2.2-6.5,2.8
	c-0.4,0.2-0.7,0-0.9-0.3c-0.2-0.4-0.8-1.7-1.1-2.4C8.8,10,8.8,9.9,9,9.5c0.3-0.7,1-2,1.1-2.4c0.1-0.2,0.5-0.4,0.8-0.3
	c0,0,5.6,2.5,6.5,2.8C17.9,9.9,17.8,10.1,17.5,10.3L17.5,10.3z"/>
<linearGradient id="SVGID_00000152262823351211207150000007136841137023031213_" gradientUnits="userSpaceOnUse" x1="208.3188" y1="891.493" x2="203.8553" y2="887.0516" gradientTransform="matrix(1 0 0 1 -193.1748 -878.8252)">
	<stop  offset="0" style="stop-color:#FF6666"/>
	<stop  offset="1" style="stop-color:#FFFFFF"/>
</linearGradient>
<path style="fill:url(#SVGID_00000152262823351211207150000007136841137023031213_);" d="M17.7,10c0.1,0-0.1,0.2-0.2,0.3
	c-0.9,0.4-5,2.1-6.5,2.8c-0.4,0.2-0.8,0-0.9-0.3c-0.2-0.4-0.7-1.5-1.1-2.2C9,10.5,8.8,10,9,10C9.4,10,17.7,10,17.7,10L17.7,10z"/>
</svg>
