<?xml version="1.0" encoding="utf-8"?>
<!-- Generator: Adobe Illustrator 26.0.0, SVG Export Plug-In . SVG Version: 6.00 Build 0)  -->
<svg version="1.1" id="图层_1" xmlns="http://www.w3.org/2000/svg" xmlns:xlink="http://www.w3.org/1999/xlink" x="0px" y="0px"
	 width="20px" height="20px" viewBox="0 0 20 20" style="enable-background:new 0 0 20 20;" xml:space="preserve">
<style type="text/css">
	.st0{fill:#F3F3F3;stroke:#9A9A9A;stroke-width:1.6528;stroke-miterlimit:10;}
	.st1{fill:none;stroke:#9A9A9A;stroke-width:1.3773;stroke-linecap:round;stroke-miterlimit:10;}
	.st2{fill:none;stroke:#D9D9D9;stroke-width:0.8264;stroke-miterlimit:10;}
	.st3{fill:none;stroke:#CCCCCC;stroke-width:0.5509;stroke-linecap:round;stroke-miterlimit:10;}
	.st4{fill:none;stroke:url(#SVGID_1_);stroke-width:1.1019;stroke-linecap:round;stroke-miterlimit:10;}
	
		.st5{fill:none;stroke:url(#SVGID_00000135669708927483689430000016399587739521887918_);stroke-width:0.6611;stroke-linecap:round;stroke-miterlimit:10;}
	
		.st6{fill:none;stroke:url(#SVGID_00000006674210038624128950000003046638475056641933_);stroke-width:0.8815;stroke-linecap:round;stroke-miterlimit:10;}
	
		.st7{fill:none;stroke:url(#SVGID_00000002363459039314116260000014084962433619960247_);stroke-width:0.5509;stroke-linecap:round;stroke-miterlimit:10;}
	
		.st8{fill:none;stroke:url(#SVGID_00000057862706301921317840000005876085734018243246_);stroke-width:0.4408;stroke-linecap:round;stroke-miterlimit:10;}
	
		.st9{fill:none;stroke:url(#SVGID_00000101796255739879859300000004660749447142598277_);stroke-width:0.3306;stroke-linecap:round;stroke-miterlimit:10;}
</style>
<g>
	<path class="st0" d="M3.5,9.9c0-3.5,2.9-6.4,6.4-6.4s6.4,2.9,6.4,6.4s-2.9,6.4-6.4,6.4S3.5,13.4,3.5,9.9z"/>
	<g>
		<path class="st1" d="M12.2,6.6H7.7"/>
		<path class="st1" d="M6.8,11.5c0-1.7,1.4-3.1,3.1-3.1S13,9.9,13,11.5"/>
		<path class="st1" d="M9.9,6.7v6.8"/>
	</g>
	<path class="st2" d="M3.5,9.9c0-3.5,2.9-6.4,6.4-6.4s6.4,2.9,6.4,6.4s-2.9,6.4-6.4,6.4S3.5,13.4,3.5,9.9z"/>
	<g>
		<path class="st3" d="M12.2,6.6H7.7"/>
		<path class="st3" d="M6.8,11.5c0-1.7,1.4-3.1,3.1-3.1S13,9.9,13,11.5"/>
		<path class="st3" d="M9.9,13.5V6.7"/>
	</g>
</g>
<g>
	
		<radialGradient id="SVGID_1_" cx="148.4754" cy="841.5316" r="5.113" gradientTransform="matrix(1 0 0 1 -140.3125 -825.6875)" gradientUnits="userSpaceOnUse">
		<stop  offset="0" style="stop-color:#008CFF;stop-opacity:0.502"/>
		<stop  offset="1" style="stop-color:#008CFF;stop-opacity:0.2039"/>
	</radialGradient>
	<path class="st4" d="M3.1,16.7l2.5,0.4l1.2-2.3l2.1-0.8l1.7,1.8l1.1-0.8l1.8,0.2"/>
	
		<radialGradient id="SVGID_00000169526318694789990350000008739235784706963851_" cx="143.7267" cy="831.1445" r="4.6143" gradientTransform="matrix(1 0 0 1 -140.3125 -825.6875)" gradientUnits="userSpaceOnUse">
		<stop  offset="0" style="stop-color:#008CFF;stop-opacity:0.502"/>
		<stop  offset="1" style="stop-color:#008CFF;stop-opacity:0"/>
	</radialGradient>
	
		<path style="fill:none;stroke:url(#SVGID_00000169526318694789990350000008739235784706963851_);stroke-width:0.6611;stroke-linecap:round;stroke-miterlimit:10;" d="
		M0.6,8.2l1.4-0.9L1.3,5.3l1.5-0.3l1-1.7l0.9,0.1l1.4-0.8"/>
	
		<radialGradient id="SVGID_00000132066046071967720180000002612365605263149968_" cx="157.5676" cy="832.0906" r="4.6143" gradientTransform="matrix(1 0 0 1 -140.3125 -825.6875)" gradientUnits="userSpaceOnUse">
		<stop  offset="0" style="stop-color:#008CFF;stop-opacity:0.502"/>
		<stop  offset="1" style="stop-color:#008CFF;stop-opacity:0.2039"/>
	</radialGradient>
	
		<path style="fill:none;stroke:url(#SVGID_00000132066046071967720180000002612365605263149968_);stroke-width:0.8815;stroke-linecap:round;stroke-miterlimit:10;" d="
		M13.3,7l1.5-0.4l0.8-1.7l1.4,0.7l1.3-0.7l0.8,0.7l-0.9,1.9"/>
	
		<radialGradient id="SVGID_00000025419645102703798810000013563381965925251767_" cx="148.4754" cy="841.5316" r="5.113" gradientTransform="matrix(1 0 0 1 -140.3125 -825.6875)" gradientUnits="userSpaceOnUse">
		<stop  offset="0" style="stop-color:#FFFFFF;stop-opacity:0.8"/>
		<stop  offset="1" style="stop-color:#FFFFFF;stop-opacity:0.2039"/>
	</radialGradient>
	
		<path style="fill:none;stroke:url(#SVGID_00000025419645102703798810000013563381965925251767_);stroke-width:0.5509;stroke-linecap:round;stroke-miterlimit:10;" d="
		M3.1,16.7l2.5,0.4l1.2-2.3l2.1-0.8l1.7,1.8l1.1-0.8l1.8,0.2"/>
	
		<radialGradient id="SVGID_00000183948023114254369540000001255925544888814737_" cx="157.5676" cy="832.0906" r="4.6143" gradientTransform="matrix(1 0 0 1 -140.3125 -825.6875)" gradientUnits="userSpaceOnUse">
		<stop  offset="0" style="stop-color:#FFFFFF;stop-opacity:0.8"/>
		<stop  offset="1" style="stop-color:#FFFFFF;stop-opacity:0.2039"/>
	</radialGradient>
	
		<path style="fill:none;stroke:url(#SVGID_00000183948023114254369540000001255925544888814737_);stroke-width:0.4408;stroke-linecap:round;stroke-miterlimit:10;" d="
		M13.3,7l1.5-0.4l0.8-1.7l1.4,0.7l1.3-0.7l0.8,0.7l-0.9,1.9"/>
	
		<radialGradient id="SVGID_00000127034777262144113530000004725641060245105571_" cx="143.7267" cy="831.1445" r="4.6143" gradientTransform="matrix(1 0 0 1 -140.3125 -825.6875)" gradientUnits="userSpaceOnUse">
		<stop  offset="0" style="stop-color:#FFFFFF;stop-opacity:0.8"/>
		<stop  offset="1" style="stop-color:#FFFFFF;stop-opacity:0.2"/>
	</radialGradient>
	
		<path style="fill:none;stroke:url(#SVGID_00000127034777262144113530000004725641060245105571_);stroke-width:0.3306;stroke-linecap:round;stroke-miterlimit:10;" d="
		M0.6,8.2l1.4-0.9L1.3,5.3l1.5-0.3l1-1.7l0.9,0.1l1.4-0.8"/>
</g>
</svg>
