<?xml version="1.0" encoding="utf-8"?>
<!-- Generator: Adobe Illustrator 26.0.0, SVG Export Plug-In . SVG Version: 6.00 Build 0)  -->
<svg version="1.1" id="图层_1" xmlns="http://www.w3.org/2000/svg" xmlns:xlink="http://www.w3.org/1999/xlink" x="0px" y="0px"
	 width="20px" height="20px" viewBox="0 0 20 20" style="enable-background:new 0 0 20 20;" xml:space="preserve">
<style type="text/css">
	.st0{fill:url(#SVGID_1_);}
	.st1{fill:#FFBBBB;stroke:#FF3333;stroke-width:1.125;stroke-miterlimit:10;}
	.st2{fill:#FFCCCC;}
	.st3{fill:#FFB2B2;}
	.st4{fill:#FF8080;}
	.st5{fill:#FF9999;}
</style>
<radialGradient id="SVGID_1_" cx="150.3125" cy="835.6875" r="8.9594" gradientTransform="matrix(1 0 0 1 -140.3125 -825.6875)" gradientUnits="userSpaceOnUse">
	<stop  offset="0" style="stop-color:#FF3333"/>
	<stop  offset="1" style="stop-color:#FF3333;stop-opacity:0"/>
</radialGradient>
<path class="st0" d="M1,10c0-5,4-9,9-9s9,4,9,9s-4.1,9-9,9S1,14.9,1,10z"/>
<path class="st1" d="M10,14.9L3.5,10L10,5l6.5,5L10,14.9z"/>
<g>
	<path class="st2" d="M10,5l6.5,5H9.1L10,5z"/>
	<path class="st3" d="M16.5,10L10,14.9L9.1,10H16.5z"/>
	<path class="st4" d="M10,14.9L3.5,10h5.6L10,14.9z"/>
	<path class="st5" d="M3.5,10L10,5l-0.9,5H3.5z"/>
</g>
</svg>
