<?xml version="1.0" encoding="utf-8"?>
<!-- Generator: Adobe Illustrator 26.0.0, SVG Export Plug-In . SVG Version: 6.00 Build 0)  -->
<svg version="1.1" id="图层_1" xmlns="http://www.w3.org/2000/svg" xmlns:xlink="http://www.w3.org/1999/xlink" x="0px" y="0px"
	 width="15px" height="15px" viewBox="0 0 15 15" style="enable-background:new 0 0 15 15;" xml:space="preserve">
<style type="text/css">
	.st0{fill:url(#SVGID_1_);}
	.st1{fill:#FF6666;}
	.st2{fill:url(#SVGID_00000013186523740225490840000016185928475236251581_);}
	.st3{fill:url(#SVGID_00000049197484425645731640000012855338404632025993_);}
	.st4{fill:url(#SVGID_00000052814173927675577980000014484937446148074890_);}
</style>
<radialGradient id="SVGID_1_" cx="200.6749" cy="-123.3252" r="5.9843" gradientTransform="matrix(1 0 0 -1 -193.1748 -115.8252)" gradientUnits="userSpaceOnUse">
	<stop  offset="0" style="stop-color:#FF3333"/>
	<stop  offset="1" style="stop-color:#FF3333;stop-opacity:0"/>
</radialGradient>
<path class="st0" d="M1.5,7.5c0-3.3,2.7-6,6-6c3.3,0,6,2.7,6,6c0,3.3-2.7,6-6,6C4.2,13.5,1.5,10.8,1.5,7.5z"/>
<path class="st1" d="M3.5,7.5c0-2.2,1.8-4,4-4c2.2,0,4,1.8,4,4c0,2.2-1.8,4-4,4C5.3,11.5,3.5,9.7,3.5,7.5z"/>
<g>
	
		<radialGradient id="SVGID_00000183247646143688974430000006020373425501553070_" cx="200.6748" cy="-123.3252" r="3.9859" gradientTransform="matrix(1 0 0 -1 -193.1748 -115.8252)" gradientUnits="userSpaceOnUse">
		<stop  offset="0" style="stop-color:#FFFFFF"/>
		<stop  offset="1" style="stop-color:#FFFFFF;stop-opacity:0"/>
	</radialGradient>
	<path style="fill:url(#SVGID_00000183247646143688974430000006020373425501553070_);" d="M3.5,7.5c0-2.2,1.8-4,4-4c2.2,0,4,1.8,4,4
		c0,2.2-1.8,4-4,4C5.3,11.5,3.5,9.7,3.5,7.5z"/>
	
		<radialGradient id="SVGID_00000038372051135057929850000006598325847973564840_" cx="200.6748" cy="-123.3252" r="3.9859" gradientTransform="matrix(1 0 0 -1 -193.1748 -115.8252)" gradientUnits="userSpaceOnUse">
		<stop  offset="0" style="stop-color:#FFFFFF"/>
		<stop  offset="1" style="stop-color:#FFFFFF;stop-opacity:0"/>
	</radialGradient>
	<path style="fill:url(#SVGID_00000038372051135057929850000006598325847973564840_);" d="M3.5,7.5c0-2.2,1.8-4,4-4c2.2,0,4,1.8,4,4
		c0,2.2-1.8,4-4,4C5.3,11.5,3.5,9.7,3.5,7.5z"/>
	
		<radialGradient id="SVGID_00000163060667382487589300000005688382415605648046_" cx="200.6748" cy="-123.3252" r="3.9859" gradientTransform="matrix(1 0 0 -1 -193.1748 -115.8252)" gradientUnits="userSpaceOnUse">
		<stop  offset="0" style="stop-color:#FFFFFF"/>
		<stop  offset="1" style="stop-color:#FFFFFF;stop-opacity:0"/>
	</radialGradient>
	<path style="fill:url(#SVGID_00000163060667382487589300000005688382415605648046_);" d="M3.5,7.5c0-2.2,1.8-4,4-4c2.2,0,4,1.8,4,4
		c0,2.2-1.8,4-4,4C5.3,11.5,3.5,9.7,3.5,7.5z"/>
</g>
</svg>
