<?xml version="1.0" encoding="utf-8"?>
<!-- Generator: Adobe Illustrator 26.0.0, SVG Export Plug-In . SVG Version: 6.00 Build 0)  -->
<svg version="1.1" id="图层_1" xmlns="http://www.w3.org/2000/svg" xmlns:xlink="http://www.w3.org/1999/xlink" x="0px" y="0px"
	 width="15px" height="15px" viewBox="0 0 15 15" style="enable-background:new 0 0 15 15;" xml:space="preserve">
<style type="text/css">
	.st0{fill:url(#SVGID_1_);}
	.st1{fill:#FF6666;}
	.st2{fill:url(#SVGID_00000090982242605081489580000001058457275567419521_);}
	.st3{fill:url(#SVGID_00000049214880816263787390000011037845979144278456_);}
	.st4{fill:url(#SVGID_00000149356503526207017350000014857633405679719319_);}
</style>
<radialGradient id="SVGID_1_" cx="200.6748" cy="891.3252" r="5.9843" gradientTransform="matrix(1 0 0 1 -193.1748 -883.8252)" gradientUnits="userSpaceOnUse">
	<stop  offset="0" style="stop-color:#FF3333"/>
	<stop  offset="1" style="stop-color:#FF3333;stop-opacity:0"/>
</radialGradient>
<path class="st0" d="M1.5,7.5c0-3.3,2.7-6,6-6s6,2.7,6,6s-2.7,6-6,6S1.5,10.8,1.5,7.5z"/>
<path class="st1" d="M3.5,7.5c0-2.2,1.8-4,4-4s4,1.8,4,4s-1.8,4-4,4S3.5,9.7,3.5,7.5z"/>
<g>
	
		<radialGradient id="SVGID_00000021830611860703017290000009490933554119379849_" cx="200.6748" cy="891.3252" r="3.9859" gradientTransform="matrix(1 0 0 1 -193.1748 -883.8252)" gradientUnits="userSpaceOnUse">
		<stop  offset="0" style="stop-color:#FFFFFF"/>
		<stop  offset="1" style="stop-color:#FFFFFF;stop-opacity:0"/>
	</radialGradient>
	<path style="fill:url(#SVGID_00000021830611860703017290000009490933554119379849_);" d="M3.5,7.5c0-2.2,1.8-4,4-4s4,1.8,4,4
		s-1.8,4-4,4S3.5,9.7,3.5,7.5z"/>
	
		<radialGradient id="SVGID_00000098931499885616497730000018147974393566227367_" cx="200.6748" cy="891.3252" r="3.9859" gradientTransform="matrix(1 0 0 1 -193.1748 -883.8252)" gradientUnits="userSpaceOnUse">
		<stop  offset="0" style="stop-color:#FFFFFF"/>
		<stop  offset="1" style="stop-color:#FFFFFF;stop-opacity:0"/>
	</radialGradient>
	<path style="fill:url(#SVGID_00000098931499885616497730000018147974393566227367_);" d="M3.5,7.5c0-2.2,1.8-4,4-4s4,1.8,4,4
		s-1.8,4-4,4S3.5,9.7,3.5,7.5z"/>
	
		<radialGradient id="SVGID_00000074423856200851803850000000354935938064591546_" cx="200.6748" cy="891.3252" r="3.9859" gradientTransform="matrix(1 0 0 1 -193.1748 -883.8252)" gradientUnits="userSpaceOnUse">
		<stop  offset="0" style="stop-color:#FFFFFF"/>
		<stop  offset="1" style="stop-color:#FFFFFF;stop-opacity:0"/>
	</radialGradient>
	<path style="fill:url(#SVGID_00000074423856200851803850000000354935938064591546_);" d="M3.5,7.5c0-2.2,1.8-4,4-4s4,1.8,4,4
		s-1.8,4-4,4S3.5,9.7,3.5,7.5z"/>
</g>
</svg>
