<?xml version="1.0" encoding="utf-8"?>
<!-- Generator: Adobe Illustrator 26.0.0, SVG Export Plug-In . SVG Version: 6.00 Build 0)  -->
<!DOCTYPE svg PUBLIC "-//W3C//DTD SVG 1.0//EN" "http://www.w3.org/TR/2001/REC-SVG-20010904/DTD/svg10.dtd" [
	<!ENTITY st0 "fill:url(#SVGID_1_);">
	<!ENTITY st1 "fill:url(#SVGID_00000019668256977138456340000006261381181437446840_);">
	<!ENTITY st2 "fill:#FF6666;">
	<!ENTITY st3 "fill:url(#SVGID_00000145047710817411540510000017048419950599748271_);">
	<!ENTITY st4 "fill:url(#SVGID_00000053544369609341951280000016314185115389955259_);">
	<!ENTITY st5 "fill:url(#SVGID_00000106111856116994818040000001478443839149455018_);">
	<!ENTITY st6 "fill:url(#SVGID_00000026857749606942892960000002109307260870904502_);">
	<!ENTITY st7 "fill:url(#SVGID_00000133500163074469472830000001088629736811625899_);">
	<!ENTITY st8 "fill:url(#SVGID_00000075872689615897350860000010395802295561829267_);">
	<!ENTITY st9 "fill:url(#SVGID_00000106840527393624027400000005631624255439479172_);">
	<!ENTITY st10 "fill:url(#SVGID_00000094605020392826238750000007784051701035404703_);">
]>
<svg version="1.0" id="图层_1" xmlns="http://www.w3.org/2000/svg" xmlns:xlink="http://www.w3.org/1999/xlink" x="0px" y="0px"
	 width="17px" height="14px" viewBox="0 0 17 14" style="enable-background:new 0 0 17 14;" xml:space="preserve">
<radialGradient id="SVGID_1_" cx="202.2765" cy="218.8252" r="7.18526" gradientTransform="matrix(0.94737 0 0 0.94737 -182.56035 -200.30809)" gradientUnits="userSpaceOnUse">
	<stop  offset="0" style="stop-color:#FF3333"/>
	<stop  offset="1" style="stop-color:#FF3333;stop-opacity:0"/>
</radialGradient>
<path style="&st0;" d="M2.23684,7c0-3.77632,3.03947-6.81579,6.81579-6.81579S15.86842,3.22368,15.86842,7
	s-3.03947,6.81579-6.81579,6.81579S2.23684,10.77632,2.23684,7z"/>
<radialGradient id="SVGID_00000119116715116479340680000015802608644434730884_" cx="198.15953" cy="218.8252" r="5.21179" gradientTransform="matrix(0.94737 0 0 0.94737 -182.56035 -200.30809)" gradientUnits="userSpaceOnUse">
	<stop  offset="0" style="stop-color:#FF3333;stop-opacity:0.8"/>
	<stop  offset="1" style="stop-color:#FF3333;stop-opacity:0"/>
</radialGradient>
<path style="fill:url(#SVGID_00000119116715116479340680000015802608644434730884_);" d="M0.21053,7
	c0-2.76316,2.21053-4.97368,4.97368-4.97368S10.1579,4.23684,10.1579,7s-2.21053,4.97368-4.97368,4.97368S0.21053,9.76316,0.21053,7
	z"/>
<path style="&st2;" d="M2.51316,8.01316c-0.64474-0.64474-0.64474-1.38158,0-2.02632l5.06579-2.94737
	c0.82895-0.46053,1.84211-0.82895,2.67105,0l2.67105,2.67105c0.82895,0.82895,0.73684,1.84211,0,2.57895L10.25,10.96053
	c-0.82895,0.82895-1.93421,0.46053-2.67105,0L2.51316,8.01316z"/>
<g>
	
		<radialGradient id="SVGID_00000046310879047885382020000001666801635677068932_" cx="202.22148" cy="218.8252" r="4.25065" gradientTransform="matrix(0.94737 0 0 0.94737 -182.56035 -200.30809)" gradientUnits="userSpaceOnUse">
		<stop  offset="0" style="stop-color:#FFFFFF"/>
		<stop  offset="1" style="stop-color:#FFFFFF;stop-opacity:0"/>
	</radialGradient>
	<path style="fill:url(#SVGID_00000046310879047885382020000001666801635677068932_);" d="M5,7
		c0-2.21053,1.8421-4.05263,4.05263-4.05263S13.10526,4.78947,13.10526,7s-1.8421,4.05263-4.05263,4.05263S5,9.21053,5,7z"/>
	
		<radialGradient id="SVGID_00000091723301941474146780000012149175904974882218_" cx="202.22148" cy="216.58423" r="1.97536" gradientTransform="matrix(0.94737 0 0 0.94737 -182.56035 -200.30809)" gradientUnits="userSpaceOnUse">
		<stop  offset="0" style="stop-color:#FFFFFF;stop-opacity:0.6941"/>
		<stop  offset="1" style="stop-color:#FFFFFF;stop-opacity:0"/>
	</radialGradient>
	<path style="fill:url(#SVGID_00000091723301941474146780000012149175904974882218_);" d="M7.11842,4.88158
		c0-1.01316,0.82895-1.84211,1.84211-1.84211s1.8421,0.82895,1.8421,1.84211s-0.82895,1.8421-1.8421,1.8421
		S7.11842,5.89474,7.11842,4.88158z"/>
	
		<radialGradient id="SVGID_00000143613003981588118200000014700048969867979408_" cx="200.60536" cy="218.8252" r="3.16891" gradientTransform="matrix(0.94737 0 0 0.94737 -182.56035 -200.30809)" gradientUnits="userSpaceOnUse">
		<stop  offset="0" style="stop-color:#FFFFFF;stop-opacity:0.8"/>
		<stop  offset="1" style="stop-color:#FFFFFF;stop-opacity:0"/>
	</radialGradient>
	<path style="fill:url(#SVGID_00000143613003981588118200000014700048969867979408_);" d="M7.48684,10.03947
		C5.82895,10.03947,4.44737,8.6579,4.44737,7s1.38158-3.03947,3.03947-3.03947S10.52632,5.3421,10.52632,7
		S9.14474,10.03947,7.48684,10.03947z"/>
	
		<radialGradient id="SVGID_00000067945693834899429200000002812901677079846063_" cx="198.57263" cy="218.8252" r="2.30611" gradientTransform="matrix(0.94737 0 0 0.94737 -182.56035 -200.30809)" gradientUnits="userSpaceOnUse">
		<stop  offset="0" style="stop-color:#FFFFFF;stop-opacity:0.6941"/>
		<stop  offset="1" style="stop-color:#FFFFFF;stop-opacity:0"/>
	</radialGradient>
	<path style="fill:url(#SVGID_00000067945693834899429200000002812901677079846063_);" d="M5.55263,9.21053
		C4.35526,9.21053,3.34211,8.19737,3.34211,7s1.01316-2.21053,2.21053-2.21053S7.76316,5.80263,7.76316,7
		C7.76316,8.19737,6.75,9.21053,5.55263,9.21053z"/>
	
		<radialGradient id="SVGID_00000041977315214535114380000010853686336047822725_" cx="197.42979" cy="218.8252" r="1.7604" gradientTransform="matrix(0.94737 0 0 0.94737 -182.56035 -200.30809)" gradientUnits="userSpaceOnUse">
		<stop  offset="0" style="stop-color:#FFFFFF;stop-opacity:0.5961"/>
		<stop  offset="1" style="stop-color:#FFFFFF;stop-opacity:0"/>
	</radialGradient>
	<path style="fill:url(#SVGID_00000041977315214535114380000010853686336047822725_);" d="M4.44737,8.6579
		C3.52632,8.6579,2.78947,7.92105,2.78947,7s0.73684-1.6579,1.65789-1.6579S6.10526,6.07895,6.10526,7
		S5.36842,8.6579,4.44737,8.6579z"/>
	
		<radialGradient id="SVGID_00000150076237670749308240000005133430762333047734_" cx="202.22148" cy="221.06607" r="1.97536" gradientTransform="matrix(0.94737 0 0 0.94737 -182.56035 -200.30809)" gradientUnits="userSpaceOnUse">
		<stop  offset="0" style="stop-color:#FFFFFF;stop-opacity:0.6941"/>
		<stop  offset="1" style="stop-color:#FFFFFF;stop-opacity:0"/>
	</radialGradient>
	<path style="fill:url(#SVGID_00000150076237670749308240000005133430762333047734_);" d="M7.11842,9.11842
		c0-1.01316,0.82895-1.84211,1.84211-1.84211s1.8421,0.82895,1.8421,1.84211s-0.82895,1.8421-1.8421,1.8421
		S7.11842,10.13158,7.11842,9.11842z"/>
	
		<radialGradient id="SVGID_00000140002553098169560450000000980582678979634611_" cx="204.46245" cy="218.8252" r="1.97536" gradientTransform="matrix(0.94737 0 0 0.94737 -182.56035 -200.30809)" gradientUnits="userSpaceOnUse">
		<stop  offset="0" style="stop-color:#FFFFFF;stop-opacity:0.6941"/>
		<stop  offset="1" style="stop-color:#FFFFFF;stop-opacity:0"/>
	</radialGradient>
	<path style="fill:url(#SVGID_00000140002553098169560450000000980582678979634611_);" d="M11.17105,8.8421
		c-1.01316,0-1.8421-0.82895-1.8421-1.8421s0.82895-1.84211,1.8421-1.84211S13.01316,5.98684,13.01316,7
		S12.18421,8.8421,11.17105,8.8421z"/>
	
		<radialGradient id="SVGID_00000108304484810101177910000004169924961967021726_" cx="202.61047" cy="218.82521" r="3.4698" gradientTransform="matrix(0.94737 0 0 0.94737 -182.56035 -200.30809)" gradientUnits="userSpaceOnUse">
		<stop  offset="0" style="stop-color:#FFFFFF"/>
		<stop  offset="1" style="stop-color:#FFFFFF;stop-opacity:0"/>
	</radialGradient>
	<path style="fill:url(#SVGID_00000108304484810101177910000004169924961967021726_);" d="M6.10526,7
		c0-1.84211,1.47368-3.31579,3.31579-3.31579S12.64474,5.15789,12.64474,7s-1.47369,3.31579-3.31579,3.31579
		S6.10526,8.8421,6.10526,7z"/>
</g>
</svg>
