<?xml version="1.0" encoding="utf-8"?>
<!-- Generator: Adobe Illustrator 26.0.0, SVG Export Plug-In . SVG Version: 6.00 Build 0)  -->
<svg version="1.1" id="图层_1" xmlns="http://www.w3.org/2000/svg" xmlns:xlink="http://www.w3.org/1999/xlink" x="0px" y="0px"
	 width="30px" height="30px" viewBox="0 0 30 30" style="enable-background:new 0 0 30 30;" xml:space="preserve">
<style type="text/css">
	.st0{fill:url(#SVGID_1_);}
	.st1{fill:url(#SVGID_00000175303842542837766640000015645695076203913387_);}
	.st2{fill:url(#SVGID_00000091011040889011911700000017872179395820143003_);}
	.st3{fill:#FF6666;}
	.st4{fill:url(#SVGID_00000045594617819299187870000004941826341777094567_);}
	.st5{fill:url(#SVGID_00000000932867069996349120000007423971351448800438_);}
	.st6{fill:url(#SVGID_00000091734403233632273700000003835679753930163086_);}
	.st7{fill:url(#SVGID_00000083057766222015266410000016149717977377815220_);}
	.st8{fill:url(#SVGID_00000083085623422004568780000009592480951127286180_);}
</style>
<g>
	
		<radialGradient id="SVGID_1_" cx="148.802" cy="830.6875" r="8.4497" gradientTransform="matrix(1 0 0 1 -140.3125 -815.6875)" gradientUnits="userSpaceOnUse">
		<stop  offset="0" style="stop-color:#FF3333"/>
		<stop  offset="1" style="stop-color:#FF3333;stop-opacity:0"/>
	</radialGradient>
	<path class="st0" d="M16.9,15c0,4.6-3.8,8.4-8.5,8.4C3.8,23.4,0,19.6,0,15s3.8-8.4,8.5-8.4S16.9,10.4,16.9,15z"/>
	
		<radialGradient id="SVGID_00000036968009158209747560000010404195065798525829_" cx="161.8304" cy="830.6875" r="8.4497" gradientTransform="matrix(1 0 0 1 -140.3125 -815.6875)" gradientUnits="userSpaceOnUse">
		<stop  offset="0" style="stop-color:#FF3333"/>
		<stop  offset="1" style="stop-color:#FF3333;stop-opacity:0"/>
	</radialGradient>
	<path style="fill:url(#SVGID_00000036968009158209747560000010404195065798525829_);" d="M29.9,15c0,4.6-3.8,8.4-8.5,8.4
		c-4.6,0-8.5-3.8-8.5-8.4s3.8-8.4,8.5-8.4C26.2,6.6,29.9,10.4,29.9,15z"/>
	
		<radialGradient id="SVGID_00000176016769735113023540000010273247751853406595_" cx="155.3162" cy="830.6875" r="11.0608" gradientTransform="matrix(1 0 0 1 -140.3125 -815.6875)" gradientUnits="userSpaceOnUse">
		<stop  offset="0" style="stop-color:#FF3333"/>
		<stop  offset="1" style="stop-color:#FF3333;stop-opacity:0"/>
	</radialGradient>
	<path style="fill:url(#SVGID_00000176016769735113023540000010273247751853406595_);" d="M26.1,15c0,6-4.9,11-11.1,11
		S3.9,21,3.9,15S8.9,4.1,15,4.1S26.1,9,26.1,15L26.1,15z"/>
</g>
<path class="st3" d="M3.9,15c0-3.4,4.9-6.2,11.1-6.2s11.1,2.8,11.1,6.2s-4.9,6.2-11.1,6.2S3.9,18.4,3.9,15z"/>
<g>
	
		<radialGradient id="SVGID_00000028295895076551748910000017101104116527321474_" cx="155.3162" cy="830.6875" r="7.4612" gradientTransform="matrix(1 0 0 1 -140.3125 -815.6875)" gradientUnits="userSpaceOnUse">
		<stop  offset="0" style="stop-color:#FFFFFF"/>
		<stop  offset="1" style="stop-color:#FFFFFF;stop-opacity:0"/>
	</radialGradient>
	<path style="fill:url(#SVGID_00000028295895076551748910000017101104116527321474_);" d="M22.5,15c0,4.1-3.3,7.4-7.5,7.4
		S7.5,19.1,7.5,15s3.3-7.4,7.5-7.4C19.1,7.6,22.5,10.9,22.5,15L22.5,15z"/>
	
		<radialGradient id="SVGID_00000019668002957704075700000013044058701283143840_" cx="151.4124" cy="830.6875" r="5.6715" gradientTransform="matrix(1 0 0 1 -140.3125 -815.6875)" gradientUnits="userSpaceOnUse">
		<stop  offset="0" style="stop-color:#FFFFFF"/>
		<stop  offset="1" style="stop-color:#FFFFFF;stop-opacity:0"/>
	</radialGradient>
	<path style="fill:url(#SVGID_00000019668002957704075700000013044058701283143840_);" d="M16.7,15c0,3.1-2.6,5.6-5.7,5.6
		S5.3,18.1,5.3,15S7.9,9.4,11,9.4C14.3,9.4,16.7,11.9,16.7,15L16.7,15z"/>
	
		<radialGradient id="SVGID_00000013169654082588387520000012705897477643551109_" cx="159.22" cy="830.6875" r="5.6715" gradientTransform="matrix(1 0 0 1 -140.3125 -815.6875)" gradientUnits="userSpaceOnUse">
		<stop  offset="0" style="stop-color:#FFFFFF"/>
		<stop  offset="1" style="stop-color:#FFFFFF;stop-opacity:0"/>
	</radialGradient>
	<path style="fill:url(#SVGID_00000013169654082588387520000012705897477643551109_);" d="M24.6,15c0,3.1-2.6,5.6-5.7,5.6
		s-5.7-2.5-5.7-5.6s2.6-5.6,5.7-5.6C22.1,9.4,24.6,11.9,24.6,15L24.6,15z"/>
	
		<radialGradient id="SVGID_00000172432643798059524270000000425624513292808875_" cx="148.3271" cy="830.6875" r="3.9289" gradientTransform="matrix(1 0 0 1 -140.3125 -815.6875)" gradientUnits="userSpaceOnUse">
		<stop  offset="0" style="stop-color:#FFFFFF"/>
		<stop  offset="1" style="stop-color:#FFFFFF;stop-opacity:0"/>
	</radialGradient>
	<path style="fill:url(#SVGID_00000172432643798059524270000000425624513292808875_);" d="M11.9,15c0,2.1-1.7,3.9-4,3.9
		S4.1,17.1,4.1,15s1.7-3.9,4-3.9C10.2,11.1,11.9,12.9,11.9,15z"/>
	
		<radialGradient id="SVGID_00000116232856409589589550000005720632583183780505_" cx="162.3054" cy="830.6875" r="3.9289" gradientTransform="matrix(1 0 0 1 -140.3125 -815.6875)" gradientUnits="userSpaceOnUse">
		<stop  offset="0" style="stop-color:#FFFFFF"/>
		<stop  offset="1" style="stop-color:#FFFFFF;stop-opacity:0"/>
	</radialGradient>
	<path style="fill:url(#SVGID_00000116232856409589589550000005720632583183780505_);" d="M26,15c0,2.1-1.7,3.9-4,3.9
		c-2.1,0-4-1.7-4-3.9s1.7-3.9,4-3.9S26,12.9,26,15z"/>
</g>
</svg>
