<?xml version="1.0" encoding="utf-8"?>
<!-- Generator: Adobe Illustrator 26.0.0, SVG Export Plug-In . SVG Version: 6.00 Build 0)  -->
<svg version="1.1" id="图层_1" xmlns="http://www.w3.org/2000/svg" xmlns:xlink="http://www.w3.org/1999/xlink" x="0px" y="0px"
	 width="45px" height="45px" viewBox="0 0 45 45" style="enable-background:new 0 0 45 45;" xml:space="preserve">
<style type="text/css">
	.st0{fill:url(#SVGID_1_);}
	.st1{fill:url(#SVGID_00000150793776622003299480000011585525513979270536_);}
	.st2{fill:url(#SVGID_00000147193456561895907600000002501698581722235287_);}
	.st3{fill:url(#SVGID_00000041295821475973085140000006642010963414254269_);}
	.st4{fill:url(#SVGID_00000033342649619457201880000005461841154730939570_);}
	.st5{fill:url(#SVGID_00000011030393788026936010000008072276653602595771_);}
	.st6{fill:url(#SVGID_00000161592987550591283800000009412799902098335910_);}
</style>
<radialGradient id="SVGID_1_" cx="215.6748" cy="-108.3252" r="10" gradientTransform="matrix(1 0 0 -1 -193.1748 -85.8252)" gradientUnits="userSpaceOnUse">
	<stop  offset="0" style="stop-color:#FF3333"/>
	<stop  offset="1" style="stop-color:#FF3333;stop-opacity:0"/>
</radialGradient>
<path class="st0" d="M12.5,22.5c0-5.5,4.5-10,10-10s10,4.5,10,10c0,5.5-4.5,10-10,10S12.5,28,12.5,22.5z"/>
<linearGradient id="SVGID_00000091708571349026022040000014979448801572359044_" gradientUnits="userSpaceOnUse" x1="196.5266" y1="-108.2982" x2="222.925" y2="-108.2982" gradientTransform="matrix(1 0 0 -1 -193.1748 -85.8252)">
	<stop  offset="0" style="stop-color:#FF3333;stop-opacity:0.2"/>
	<stop  offset="1" style="stop-color:#FF3333;stop-opacity:0.8"/>
</linearGradient>
<path style="fill:url(#SVGID_00000091708571349026022040000014979448801572359044_);" d="M19.9,29.3c-3.1-1.5-5.2,2.5-10.1-1.3
	c3.7-0.1,5.3-2.5,5.3-2.5s-1.9-1.4-4.9-0.6c-3.6,0.8-6.5-1.6-7.8-4.4c2.3,0.9,4.4,0.5,6.3-0.3c2.1-0.9,5.2-0.3,5.2-0.3
	s-1-2.6-4.6-2.8c5.3-3.5,5.6-0.6,11.5-1.6c4.8-0.9,9,2.5,9,7.3C29.8,28,24,31,19.9,29.3L19.9,29.3z"/>
<g>
	
		<radialGradient id="SVGID_00000014615577367951065810000005980544267358437024_" cx="215.6748" cy="-108.3252" r="6.1865" gradientTransform="matrix(1 0 0 -1 -193.1748 -85.8252)" gradientUnits="userSpaceOnUse">
		<stop  offset="0" style="stop-color:#FFFFFF"/>
		<stop  offset="1" style="stop-color:#FFFFFF;stop-opacity:0"/>
	</radialGradient>
	<path style="fill:url(#SVGID_00000014615577367951065810000005980544267358437024_);" d="M16.3,22.5c0-3.4,2.8-6.2,6.2-6.2
		c3.4,0,6.2,2.8,6.2,6.2c0,3.4-2.8,6.2-6.2,6.2C19.1,28.7,16.3,25.9,16.3,22.5z"/>
	
		<radialGradient id="SVGID_00000036251894075512819590000000356432983636993152_" cx="215.6748" cy="-108.3252" r="6.1865" gradientTransform="matrix(1 0 0 -1 -193.1748 -85.8252)" gradientUnits="userSpaceOnUse">
		<stop  offset="0" style="stop-color:#FFFFFF"/>
		<stop  offset="1" style="stop-color:#FFFFFF;stop-opacity:0"/>
	</radialGradient>
	<path style="fill:url(#SVGID_00000036251894075512819590000000356432983636993152_);" d="M16.3,22.5c0-3.4,2.8-6.2,6.2-6.2
		c3.4,0,6.2,2.8,6.2,6.2c0,3.4-2.8,6.2-6.2,6.2C19.1,28.7,16.3,25.9,16.3,22.5z"/>
	
		<radialGradient id="SVGID_00000154411592121632666720000010144524719563669183_" cx="215.6748" cy="-108.3252" r="6.1865" gradientTransform="matrix(1 0 0 -1 -193.1748 -85.8252)" gradientUnits="userSpaceOnUse">
		<stop  offset="0" style="stop-color:#FFFFFF"/>
		<stop  offset="1" style="stop-color:#FFFFFF;stop-opacity:0"/>
	</radialGradient>
	<path style="fill:url(#SVGID_00000154411592121632666720000010144524719563669183_);" d="M16.3,22.5c0-3.4,2.8-6.2,6.2-6.2
		c3.4,0,6.2,2.8,6.2,6.2c0,3.4-2.8,6.2-6.2,6.2C19.1,28.7,16.3,25.9,16.3,22.5z"/>
	
		<radialGradient id="SVGID_00000026876007797514292130000011321091214611733388_" cx="215.6748" cy="-108.3252" r="6.1865" gradientTransform="matrix(1 0 0 -1 -193.1748 -85.8252)" gradientUnits="userSpaceOnUse">
		<stop  offset="0" style="stop-color:#FFFFFF"/>
		<stop  offset="1" style="stop-color:#FFFFFF;stop-opacity:0"/>
	</radialGradient>
	<path style="fill:url(#SVGID_00000026876007797514292130000011321091214611733388_);" d="M16.3,22.5c0-3.4,2.8-6.2,6.2-6.2
		c3.4,0,6.2,2.8,6.2,6.2c0,3.4-2.8,6.2-6.2,6.2C19.1,28.7,16.3,25.9,16.3,22.5z"/>
	
		<radialGradient id="SVGID_00000000943603652919427450000008571834642183215007_" cx="215.6748" cy="-108.3252" r="6.1865" gradientTransform="matrix(1 0 0 -1 -193.1748 -85.8252)" gradientUnits="userSpaceOnUse">
		<stop  offset="0" style="stop-color:#FFFFFF"/>
		<stop  offset="1" style="stop-color:#FFFFFF;stop-opacity:0"/>
	</radialGradient>
	<path style="fill:url(#SVGID_00000000943603652919427450000008571834642183215007_);" d="M16.3,22.5c0-3.4,2.8-6.2,6.2-6.2
		c3.4,0,6.2,2.8,6.2,6.2c0,3.4-2.8,6.2-6.2,6.2C19.1,28.7,16.3,25.9,16.3,22.5z"/>
</g>
</svg>
