<?xml version="1.0" encoding="utf-8"?>
<!-- Generator: Adobe Illustrator 26.0.0, SVG Export Plug-In . SVG Version: 6.00 Build 0)  -->
<svg version="1.1" id="图层_1" xmlns="http://www.w3.org/2000/svg" xmlns:xlink="http://www.w3.org/1999/xlink" x="0px" y="0px"
	 width="22px" height="16px" viewBox="0 0 22 16" style="enable-background:new 0 0 22 16;" xml:space="preserve">
<style type="text/css">
	.st0{fill:url(#SVGID_1_);}
	.st1{fill:url(#SVGID_00000065777244248284334430000014860685154234372537_);}
	.st2{fill:url(#SVGID_00000114777749296244874180000002534777993569189768_);}
	.st3{fill:#FF6666;}
	.st4{fill:url(#SVGID_00000072990306319486496240000013878966876253582734_);}
	.st5{fill:url(#SVGID_00000060713517284594743280000000737522089972389538_);}
	.st6{fill:url(#SVGID_00000065754113329667027370000007444796558518346394_);}
	.st7{fill:url(#SVGID_00000111895352790474188560000012398773969237847956_);}
	.st8{fill:url(#SVGID_00000031200045459242299540000002167349794728140214_);}
	.st9{fill:url(#SVGID_00000173854729083675450980000008834580950423955893_);}
</style>
<g>
	
		<radialGradient id="SVGID_1_" cx="200.2026" cy="890.8252" r="5.1524" gradientTransform="matrix(0.9148 0 0 0.9148 -175.789 -806.9698)" gradientUnits="userSpaceOnUse">
		<stop  offset="0" style="stop-color:#FF3333"/>
		<stop  offset="1" style="stop-color:#FF3333;stop-opacity:0"/>
	</radialGradient>
	<path class="st0" d="M12.1,8c0,2.6-2.1,4.6-4.7,4.6S2.6,10.5,2.6,8s2.1-4.6,4.7-4.6C9.9,3.4,12.1,5.4,12.1,8z"/>
	
		<radialGradient id="SVGID_00000067952298038496401910000014194211025460491406_" cx="208.147" cy="890.8252" r="5.1524" gradientTransform="matrix(0.9148 0 0 0.9148 -175.789 -806.9698)" gradientUnits="userSpaceOnUse">
		<stop  offset="0" style="stop-color:#FF3333"/>
		<stop  offset="1" style="stop-color:#FF3333;stop-opacity:0"/>
	</radialGradient>
	<path style="fill:url(#SVGID_00000067952298038496401910000014194211025460491406_);" d="M19.4,8c0,2.6-2.1,4.6-4.7,4.6
		S9.9,10.5,9.9,8s2.1-4.6,4.7-4.6C17.3,3.4,19.4,5.4,19.4,8z"/>
	
		<radialGradient id="SVGID_00000017500236081665568940000007025769998926784134_" cx="204.1748" cy="890.8252" r="7.1966" gradientTransform="matrix(0.9148 0 0 0.9148 -175.789 -806.9698)" gradientUnits="userSpaceOnUse">
		<stop  offset="0" style="stop-color:#FF3333"/>
		<stop  offset="1" style="stop-color:#FF3333;stop-opacity:0"/>
	</radialGradient>
	<path style="fill:url(#SVGID_00000017500236081665568940000007025769998926784134_);" d="M17.6,8c0,3.5-3,6.5-6.6,6.5
		s-6.6-3-6.6-6.5s3-6.5,6.6-6.5S17.6,4.5,17.6,8L17.6,8z"/>
</g>
<path class="st3" d="M4.3,8c0-1.7,4.1-3.7,6.7-3.7c2.7,0,6.7,2.1,6.7,3.7s-4.1,3.7-6.7,3.7C8.3,11.7,4.3,9.7,4.3,8z"/>
<g>
	
		<radialGradient id="SVGID_00000160190329355970139870000014086650534145717430_" cx="204.1748" cy="890.8252" r="4.2036" gradientTransform="matrix(0.9148 0 0 0.9148 -175.789 -806.9698)" gradientUnits="userSpaceOnUse">
		<stop  offset="0" style="stop-color:#FFFFFF"/>
		<stop  offset="1" style="stop-color:#FFFFFF;stop-opacity:0"/>
	</radialGradient>
	<path style="fill:url(#SVGID_00000160190329355970139870000014086650534145717430_);" d="M14.9,8c0,2.1-1.8,3.8-3.9,3.8
		S7.1,10.1,7.1,8S8.9,4.2,11,4.2S14.9,5.9,14.9,8z"/>
	
		<radialGradient id="SVGID_00000112624612234069008360000017505637666899133874_" cx="204.1748" cy="890.8252" r="3.7746" gradientTransform="matrix(0.9148 0 0 0.9148 -175.789 -806.9698)" gradientUnits="userSpaceOnUse">
		<stop  offset="0" style="stop-color:#FFFFFF"/>
		<stop  offset="1" style="stop-color:#FFFFFF;stop-opacity:0"/>
	</radialGradient>
	<path style="fill:url(#SVGID_00000112624612234069008360000017505637666899133874_);" d="M14.4,8c0,1.9-1.5,3.4-3.4,3.4
		S7.6,9.9,7.6,8S9.1,4.6,11,4.6C12.9,4.6,14.4,6.1,14.4,8z"/>
	
		<radialGradient id="SVGID_00000161607623093140668170000012871810116218829446_" cx="201.1841" cy="890.8252" r="3.4269" gradientTransform="matrix(0.9148 0 0 0.9148 -175.789 -806.9698)" gradientUnits="userSpaceOnUse">
		<stop  offset="0" style="stop-color:#FFFFFF"/>
		<stop  offset="1" style="stop-color:#FFFFFF;stop-opacity:0"/>
	</radialGradient>
	<path style="fill:url(#SVGID_00000161607623093140668170000012871810116218829446_);" d="M11.4,8c0,1.7-1.4,3.1-3.2,3.1
		c-1.7,0-3.1-1.4-3.1-3.1s1.4-3.1,3.2-3.1S11.4,6.3,11.4,8z"/>
	
		<radialGradient id="SVGID_00000012432770364434200120000013671271691041747379_" cx="207.1655" cy="890.8252" r="3.4269" gradientTransform="matrix(0.9148 0 0 0.9148 -175.789 -806.9698)" gradientUnits="userSpaceOnUse">
		<stop  offset="0" style="stop-color:#FFFFFF"/>
		<stop  offset="1" style="stop-color:#FFFFFF;stop-opacity:0"/>
	</radialGradient>
	<path style="fill:url(#SVGID_00000012432770364434200120000013671271691041747379_);" d="M16.9,8c0,1.7-1.4,3.1-3.2,3.1
		S10.6,9.7,10.6,8s1.4-3.1,3.2-3.1C15.5,4.9,16.9,6.3,16.9,8z"/>
	
		<radialGradient id="SVGID_00000006685440769977164770000003315434658969545124_" cx="199.7374" cy="890.8252" r="2.2979" gradientTransform="matrix(0.9148 0 0 0.9148 -175.789 -806.9698)" gradientUnits="userSpaceOnUse">
		<stop  offset="0" style="stop-color:#FFFFFF;stop-opacity:0.8"/>
		<stop  offset="1" style="stop-color:#FFFFFF;stop-opacity:0"/>
	</radialGradient>
	<path style="fill:url(#SVGID_00000006685440769977164770000003315434658969545124_);" d="M9,8c0,1.2-0.9,2.1-2.1,2.1
		c-1.1,0-2-0.9-2-2.1S5.8,5.9,7,5.9C8,5.9,9,6.8,9,8z"/>
	
		<radialGradient id="SVGID_00000028285648975713623970000015511079502971401146_" cx="208.4754" cy="890.8252" r="2.4357" gradientTransform="matrix(0.9148 0 0 0.9148 -175.789 -806.9698)" gradientUnits="userSpaceOnUse">
		<stop  offset="0" style="stop-color:#FFFFFF;stop-opacity:0.8"/>
		<stop  offset="1" style="stop-color:#FFFFFF;stop-opacity:0"/>
	</radialGradient>
	<path style="fill:url(#SVGID_00000028285648975713623970000015511079502971401146_);" d="M17.1,8c0,1.2-0.9,2.2-2.2,2.2
		c-1.2,0-2.2-0.9-2.2-2.2c0-1.2,0.9-2.2,2.2-2.2C16.2,5.8,17.1,6.8,17.1,8z"/>
</g>
</svg>
