<?xml version="1.0" encoding="utf-8"?>
<!-- Generator: Adobe Illustrator 26.0.0, SVG Export Plug-In . SVG Version: 6.00 Build 0)  -->
<svg version="1.1" id="图层_1" xmlns="http://www.w3.org/2000/svg" xmlns:xlink="http://www.w3.org/1999/xlink" x="0px" y="0px"
	 width="42px" height="42px" viewBox="0 0 42 42" style="enable-background:new 0 0 42 42;" xml:space="preserve">
<style type="text/css">
	.st0{fill:url(#SVGID_1_);}
	.st1{fill:#FF6666;}
	.st2{fill:url(#SVGID_00000061463924590788190820000000066634144185956027_);}
	.st3{fill:url(#SVGID_00000044151851546559648740000003584761171796111545_);}
	.st4{fill:url(#SVGID_00000170999269604156502490000009344367219688351407_);}
	.st5{fill:url(#SVGID_00000129907896396659029120000012208313829723447481_);}
	.st6{fill:url(#SVGID_00000076571168048988632530000008676368664369626039_);}
	.st7{fill:url(#SVGID_00000162343244419785999380000001758323411594936507_);}
	.st8{fill:url(#SVGID_00000031178977365506628760000015028714542150145435_);}
</style>
<radialGradient id="SVGID_1_" cx="161.3125" cy="824.6875" r="20.5" gradientTransform="matrix(1 0 0 1 -140.3125 -803.6875)" gradientUnits="userSpaceOnUse">
	<stop  offset="0" style="stop-color:#FF3333"/>
	<stop  offset="1" style="stop-color:#FF3333;stop-opacity:0"/>
</radialGradient>
<path class="st0" d="M21,41.5C9.7,41.5,0.5,32.3,0.5,21S9.7,0.5,21,0.5S41.5,9.7,41.5,21S32.3,41.5,21,41.5z"/>
<path class="st1" d="M35.1,21c0,0-13.3,19.7-22,13.4C5.1,28.6,13,21,13,21s-7.8-7.6,0-13.3C21.5,1.5,35.1,21,35.1,21L35.1,21z"/>
<g>
	
		<radialGradient id="SVGID_00000023994821183671630300000004578065572983580041_" cx="162.5487" cy="824.6875" r="10.4217" gradientTransform="matrix(1 0 0 1 -140.3125 -803.6875)" gradientUnits="userSpaceOnUse">
		<stop  offset="0" style="stop-color:#FFFFFF"/>
		<stop  offset="1" style="stop-color:#FFFFFF;stop-opacity:0"/>
	</radialGradient>
	<path style="fill:url(#SVGID_00000023994821183671630300000004578065572983580041_);" d="M22.2,31.4c-5.8,0-10.4-4.6-10.4-10.4
		s4.6-10.4,10.4-10.4S32.6,15.2,32.6,21C32.6,26.8,28,31.4,22.2,31.4z"/>
	
		<radialGradient id="SVGID_00000078034226156707507000000001250767073368769438_" cx="157.4328" cy="817.637" r="7.6018" gradientTransform="matrix(1 0 0 1 -140.3125 -803.6875)" gradientUnits="userSpaceOnUse">
		<stop  offset="0" style="stop-color:#FFFFFF"/>
		<stop  offset="1" style="stop-color:#FFFFFF;stop-opacity:0"/>
	</radialGradient>
	<path style="fill:url(#SVGID_00000078034226156707507000000001250767073368769438_);" d="M17.1,21.5c-4.2,0-7.6-3.4-7.6-7.6
		s3.4-7.6,7.6-7.6s7.6,3.4,7.6,7.6S21.3,21.5,17.1,21.5z"/>
	
		<radialGradient id="SVGID_00000075847125427270779690000001349852534324598947_" cx="157.4328" cy="831.738" r="7.6018" gradientTransform="matrix(1 0 0 1 -140.3125 -803.6875)" gradientUnits="userSpaceOnUse">
		<stop  offset="0" style="stop-color:#FFFFFF"/>
		<stop  offset="1" style="stop-color:#FFFFFF;stop-opacity:0"/>
	</radialGradient>
	<path style="fill:url(#SVGID_00000075847125427270779690000001349852534324598947_);" d="M17.1,35.6c-4.2,0-7.6-3.4-7.6-7.6
		s3.4-7.6,7.6-7.6s7.6,3.4,7.6,7.6S21.3,35.6,17.1,35.6z"/>
	
		<radialGradient id="SVGID_00000120525309862270756050000011631983269094392730_" cx="162.5487" cy="820.4639" r="6.4755" gradientTransform="matrix(1 0 0 1 -140.3125 -803.6875)" gradientUnits="userSpaceOnUse">
		<stop  offset="0" style="stop-color:#FFFFFF;stop-opacity:0.8"/>
		<stop  offset="1" style="stop-color:#FFFFFF;stop-opacity:0"/>
	</radialGradient>
	<path style="fill:url(#SVGID_00000120525309862270756050000011631983269094392730_);" d="M22.2,23.3c-3.6,0-6.5-2.9-6.5-6.5
		s2.9-6.5,6.5-6.5s6.5,2.9,6.5,6.5S25.8,23.3,22.2,23.3z"/>
	
		<radialGradient id="SVGID_00000145044292590991819490000008160832525727509642_" cx="162.5487" cy="828.9111" r="6.4722" gradientTransform="matrix(1 0 0 1 -140.3125 -803.6875)" gradientUnits="userSpaceOnUse">
		<stop  offset="0" style="stop-color:#FFFFFF;stop-opacity:0.8"/>
		<stop  offset="1" style="stop-color:#FFFFFF;stop-opacity:0"/>
	</radialGradient>
	<path style="fill:url(#SVGID_00000145044292590991819490000008160832525727509642_);" d="M22.2,31.7c-3.6,0-6.5-2.9-6.5-6.5
		s2.9-6.5,6.5-6.5s6.5,2.9,6.5,6.5S25.8,31.7,22.2,31.7z"/>
	
		<radialGradient id="SVGID_00000160908759182607224850000014403891482726664369_" cx="167.4668" cy="824.6875" r="5.7676" gradientTransform="matrix(1 0 0 1 -140.3125 -803.6875)" gradientUnits="userSpaceOnUse">
		<stop  offset="0" style="stop-color:#FFFFFF;stop-opacity:0.8"/>
		<stop  offset="1" style="stop-color:#FFFFFF;stop-opacity:0"/>
	</radialGradient>
	<path style="fill:url(#SVGID_00000160908759182607224850000014403891482726664369_);" d="M27.2,26.8c-3.2,0-5.8-2.6-5.8-5.8
		s2.6-5.8,5.8-5.8s5.8,2.6,5.8,5.8S30.4,26.8,27.2,26.8z"/>
	
		<radialGradient id="SVGID_00000137099300748705678040000007228849183096743319_" cx="159.3214" cy="824.6875" r="5.1196" gradientTransform="matrix(1 0 0 1 -140.3125 -803.6875)" gradientUnits="userSpaceOnUse">
		<stop  offset="0" style="stop-color:#FFFFFF"/>
		<stop  offset="1" style="stop-color:#FFFFFF;stop-opacity:0"/>
	</radialGradient>
	<path style="fill:url(#SVGID_00000137099300748705678040000007228849183096743319_);" d="M19,26.2c-2.8,0-5.2-2.3-5.2-5.2
		s2.3-5.2,5.2-5.2s5.2,2.3,5.2,5.2S21.8,26.2,19,26.2z"/>
</g>
</svg>
