<?xml version="1.0" encoding="utf-8"?>
<!-- Generator: Adobe Illustrator 26.0.0, SVG Export Plug-In . SVG Version: 6.00 Build 0)  -->
<svg version="1.1" id="图层_1" xmlns="http://www.w3.org/2000/svg" xmlns:xlink="http://www.w3.org/1999/xlink" x="0px" y="0px"
	 width="42px" height="42px" viewBox="0 0 42 42" style="enable-background:new 0 0 42 42;" xml:space="preserve">
<style type="text/css">
	.st0{fill:url(#SVGID_1_);}
	.st1{fill:#FF6666;}
	.st2{fill:url(#SVGID_00000132061313904994711270000000038423995571586748_);}
	.st3{fill:url(#SVGID_00000006668637698613896790000016786235212724726717_);}
	.st4{fill:url(#SVGID_00000096024383625772370460000007959057671987134863_);}
	.st5{fill:url(#SVGID_00000174569475870426298960000005872903179795008408_);}
	.st6{fill:url(#SVGID_00000170249277363675053760000008833466063562617237_);}
	.st7{fill:url(#SVGID_00000107580322582398951910000011578310448480308105_);}
	.st8{fill:url(#SVGID_00000163773569816179456890000015209784086771314869_);}
</style>
<radialGradient id="SVGID_1_" cx="161.3125" cy="-56.6875" r="19.9153" gradientTransform="matrix(1 0 0 -1 -140.3125 -35.6875)" gradientUnits="userSpaceOnUse">
	<stop  offset="0" style="stop-color:#FF3333"/>
	<stop  offset="1" style="stop-color:#FF3333;stop-opacity:0"/>
</radialGradient>
<path class="st0" d="M21,40.9C10,40.9,1.1,32,1.1,21C1.1,10,10,1.1,21,1.1C32,1.1,40.9,10,40.9,21C40.9,32,32,40.9,21,40.9z"/>
<path class="st1" d="M34.7,21c0,0-12.9,19.1-21.4,13c-7.7-5.6-0.1-13-0.1-13s-7.6-7.4,0-12.9C21.5,2.1,34.7,21,34.7,21L34.7,21z"/>
<g>
	
		<radialGradient id="SVGID_00000000199678701036294040000002191516061749911469_" cx="162.5095" cy="-56.6875" r="10.1182" gradientTransform="matrix(1 0 0 -1 -140.3125 -35.6875)" gradientUnits="userSpaceOnUse">
		<stop  offset="0" style="stop-color:#FFFFFF"/>
		<stop  offset="1" style="stop-color:#FFFFFF;stop-opacity:0"/>
	</radialGradient>
	<path style="fill:url(#SVGID_00000000199678701036294040000002191516061749911469_);" d="M22.2,31.1c-5.6,0-10.1-4.5-10.1-10.1
		c0-5.6,4.5-10.1,10.1-10.1c5.6,0,10.1,4.5,10.1,10.1C32.3,26.6,27.8,31.1,22.2,31.1z"/>
	
		<radialGradient id="SVGID_00000115487527804885940130000011713203441482787477_" cx="157.5464" cy="-49.8434" r="7.3793" gradientTransform="matrix(1 0 0 -1 -140.3125 -35.6875)" gradientUnits="userSpaceOnUse">
		<stop  offset="0" style="stop-color:#FFFFFF"/>
		<stop  offset="1" style="stop-color:#FFFFFF;stop-opacity:0"/>
	</radialGradient>
	<path style="fill:url(#SVGID_00000115487527804885940130000011713203441482787477_);" d="M17.2,21.5c-4.1,0-7.4-3.3-7.4-7.4
		c0-4.1,3.3-7.4,7.4-7.4c4.1,0,7.4,3.3,7.4,7.4C24.6,18.2,21.3,21.5,17.2,21.5z"/>
	
		<radialGradient id="SVGID_00000057857133114247415970000018340976212216129673_" cx="157.5464" cy="-63.5316" r="7.3793" gradientTransform="matrix(1 0 0 -1 -140.3125 -35.6875)" gradientUnits="userSpaceOnUse">
		<stop  offset="0" style="stop-color:#FFFFFF"/>
		<stop  offset="1" style="stop-color:#FFFFFF;stop-opacity:0"/>
	</radialGradient>
	<path style="fill:url(#SVGID_00000057857133114247415970000018340976212216129673_);" d="M17.2,35.2c-4.1,0-7.4-3.3-7.4-7.4
		c0-4.1,3.3-7.4,7.4-7.4c4.1,0,7.4,3.3,7.4,7.4C24.6,31.9,21.3,35.2,17.2,35.2z"/>
	
		<radialGradient id="SVGID_00000147219698026873001680000015621819060661498765_" cx="162.5095" cy="-52.5907" r="6.2859" gradientTransform="matrix(1 0 0 -1 -140.3125 -35.6875)" gradientUnits="userSpaceOnUse">
		<stop  offset="0" style="stop-color:#FFFFFF;stop-opacity:0.8"/>
		<stop  offset="1" style="stop-color:#FFFFFF;stop-opacity:0"/>
	</radialGradient>
	<path style="fill:url(#SVGID_00000147219698026873001680000015621819060661498765_);" d="M22.2,23.2c-3.5,0-6.3-2.8-6.3-6.3
		s2.8-6.3,6.3-6.3s6.3,2.8,6.3,6.3S25.7,23.2,22.2,23.2z"/>
	
		<radialGradient id="SVGID_00000038374195188741211320000009699814844472484010_" cx="162.5095" cy="-60.7843" r="6.2859" gradientTransform="matrix(1 0 0 -1 -140.3125 -35.6875)" gradientUnits="userSpaceOnUse">
		<stop  offset="0" style="stop-color:#FFFFFF;stop-opacity:0.8"/>
		<stop  offset="1" style="stop-color:#FFFFFF;stop-opacity:0"/>
	</radialGradient>
	<path style="fill:url(#SVGID_00000038374195188741211320000009699814844472484010_);" d="M22.2,31.4c-3.5,0-6.3-2.8-6.3-6.3
		s2.8-6.3,6.3-6.3s6.3,2.8,6.3,6.3S25.7,31.4,22.2,31.4z"/>
	
		<radialGradient id="SVGID_00000061433948276984879410000014207691519860461197_" cx="167.2867" cy="-56.6875" r="5.5988" gradientTransform="matrix(1 0 0 -1 -140.3125 -35.6875)" gradientUnits="userSpaceOnUse">
		<stop  offset="0" style="stop-color:#FFFFFF;stop-opacity:0.8"/>
		<stop  offset="1" style="stop-color:#FFFFFF;stop-opacity:0"/>
	</radialGradient>
	<path style="fill:url(#SVGID_00000061433948276984879410000014207691519860461197_);" d="M27,26.6c-3.1,0-5.6-2.5-5.6-5.6
		s2.5-5.6,5.6-5.6s5.6,2.5,5.6,5.6S30.1,26.6,27,26.6z"/>
	
		<radialGradient id="SVGID_00000006683349419537218340000003057432697263535289_" cx="159.3797" cy="-56.6875" r="4.9698" gradientTransform="matrix(1 0 0 -1 -140.3125 -35.6875)" gradientUnits="userSpaceOnUse">
		<stop  offset="0" style="stop-color:#FFFFFF"/>
		<stop  offset="1" style="stop-color:#FFFFFF;stop-opacity:0"/>
	</radialGradient>
	<path style="fill:url(#SVGID_00000006683349419537218340000003057432697263535289_);" d="M19.1,26c-2.7,0-5-2.2-5-5s2.2-5,5-5
		s5,2.2,5,5S21.8,26,19.1,26z"/>
</g>
</svg>
