<?xml version="1.0" encoding="utf-8"?>
<!-- Generator: Adobe Illustrator 26.0.0, SVG Export Plug-In . SVG Version: 6.00 Build 0)  -->
<svg version="1.1" id="图层_1" xmlns="http://www.w3.org/2000/svg" xmlns:xlink="http://www.w3.org/1999/xlink" x="0px" y="0px"
	 width="36px" height="12px" viewBox="0 0 36 12" style="enable-background:new 0 0 36 12;" xml:space="preserve">
<style type="text/css">
	.st0{fill:none;stroke:#FF3333;stroke-width:4.5;stroke-miterlimit:10;stroke-opacity:0.102;}
	.st1{fill:none;stroke:#FF3333;stroke-width:3.5;stroke-miterlimit:10;stroke-opacity:0.102;}
	.st2{fill:none;stroke:#FF3333;stroke-width:2.5;stroke-miterlimit:10;stroke-opacity:0.102;}
	.st3{fill:#FFFFFF;}
	.st4{fill:url(#SVGID_1_);}
	.st5{fill:url(#SVGID_00000136374796105473551320000005104667952361055623_);}
	.st6{fill:url(#SVGID_00000170258927399348242900000000221358260273367698_);}
	.st7{fill:none;stroke:#FF3333;stroke-width:1.5;stroke-miterlimit:10;stroke-opacity:0.2941;}
	.st8{fill:none;stroke:#FF3333;stroke-miterlimit:10;stroke-opacity:0.2941;}
	.st9{fill:none;stroke:#FF3333;stroke-width:0.5;stroke-miterlimit:10;stroke-opacity:0.2941;}
	.st10{fill:none;stroke:#660000;stroke-width:1.5;stroke-miterlimit:10;}
	.st11{fill:none;stroke:#4D0000;stroke-miterlimit:10;}
	.st12{fill:none;stroke:#660000;stroke-width:0.5;stroke-miterlimit:10;}
	.st13{fill:url(#SVGID_00000142896905860581762560000001542106575928784514_);}
	.st14{fill:#4D0000;stroke:#660000;stroke-width:0.25;stroke-miterlimit:10;}
</style>
<path class="st0" d="M30.9,5.8c0,0-3,2.1-5.3,2.3c-1.7,0.2-8.3-0.3-11.7-0.5c0,0.2,0,0.3,0,0.5c0,0.5-0.3,0.8-0.8,0.8
	c-0.3,0-0.5,0-1.1,0c-0.7,0-1.2-1-1.5-1.5c0,0-0.1,0-0.1,0c-0.1,0.2-0.3,0.4-0.5,0.4c-0.5,0-2.2,0-3.3,0c-0.5,0-0.9-1-0.9-1.9l0,0
	C5.8,5.1,6.2,4,6.7,4C7.8,4,9.5,4,10,4c0.2,0,0.4,0.2,0.5,0.4c0,0,0.1,0,0.1-0.1c0.3-0.5,0.9-1.4,1.4-1.4c0.6,0,0.8,0,1.2,0
	c0.5,0,0.7,0.4,0.7,0.7c0,0.1,0,0.4,0,0.7c3.4-0.3,9.9-0.7,11.7-0.6C27.6,3.9,30.9,5.8,30.9,5.8L30.9,5.8z"/>
<path class="st1" d="M30.9,5.8c0,0-3,2.1-5.3,2.3c-1.7,0.2-8.3-0.3-11.7-0.5c0,0.2,0,0.3,0,0.5c0,0.5-0.3,0.8-0.8,0.8
	c-0.3,0-0.5,0-1.1,0c-0.7,0-1.2-1-1.5-1.5c0,0-0.1,0-0.1,0c-0.1,0.2-0.3,0.4-0.5,0.4c-0.5,0-2.2,0-3.3,0c-0.5,0-0.9-1-0.9-1.9l0,0
	C5.8,5.1,6.2,4,6.7,4C7.8,4,9.5,4,10,4c0.2,0,0.4,0.2,0.5,0.4c0,0,0.1,0,0.1-0.1c0.3-0.5,0.9-1.4,1.4-1.4c0.6,0,0.8,0,1.2,0
	c0.5,0,0.7,0.4,0.7,0.7c0,0.1,0,0.4,0,0.7c3.4-0.3,9.9-0.7,11.7-0.6C27.6,3.9,30.9,5.8,30.9,5.8L30.9,5.8z"/>
<path class="st2" d="M30.9,5.8c0,0-3,2.1-5.3,2.3c-1.7,0.2-8.3-0.3-11.7-0.5c0,0.2,0,0.3,0,0.5c0,0.5-0.3,0.8-0.8,0.8
	c-0.3,0-0.5,0-1.1,0c-0.7,0-1.2-1-1.5-1.5c0,0-0.1,0-0.1,0c-0.1,0.2-0.3,0.4-0.5,0.4c-0.5,0-2.2,0-3.3,0c-0.5,0-0.9-1-0.9-1.9l0,0
	C5.8,5.1,6.2,4,6.7,4C7.8,4,9.5,4,10,4c0.2,0,0.4,0.2,0.5,0.4c0,0,0.1,0,0.1-0.1c0.3-0.5,0.9-1.4,1.4-1.4c0.6,0,0.8,0,1.2,0
	c0.5,0,0.7,0.4,0.7,0.7c0,0.1,0,0.4,0,0.7c3.4-0.3,9.9-0.7,11.7-0.6C27.6,3.9,30.9,5.8,30.9,5.8L30.9,5.8z"/>
<path class="st2" d="M-222-174"/>
<path class="st2" d="M-222-174"/>
<path class="st2" d="M-222-174"/>
<path class="st2" d="M-222-174"/>
<path class="st2" d="M-222-174"/>
<path class="st3" d="M11.8,7.5v-3c0,0,11.4-1,13.8-0.8c2,0.2,5.3,2.2,5.3,2.2s-3,2.1-5.3,2.3S11.8,7.5,11.8,7.5z"/>
<linearGradient id="SVGID_1_" gradientUnits="userSpaceOnUse" x1="240.45" y1="-150.8" x2="240.45" y2="-153.129" gradientTransform="matrix(1 0 0 -1 -219.1 -144.9485)">
	<stop  offset="0" style="stop-color:#FF9999;stop-opacity:0"/>
	<stop  offset="1" style="stop-color:#FF9999"/>
</linearGradient>
<path class="st4" d="M11.8,7.5V5.9h19.1c0,0-3,2.1-5.3,2.3S11.8,7.5,11.8,7.5z"/>
<linearGradient id="SVGID_00000127017797827815993400000007423287610804828562_" gradientUnits="userSpaceOnUse" x1="240.45" y1="-150.8" x2="240.45" y2="-153.129" gradientTransform="matrix(1 0 0 -1 -219.1 -144.9485)">
	<stop  offset="0" style="stop-color:#FF9999;stop-opacity:0"/>
	<stop  offset="1" style="stop-color:#FF9999"/>
</linearGradient>
<path style="fill:url(#SVGID_00000127017797827815993400000007423287610804828562_);" d="M11.8,7.5V5.9h19.1c0,0-3,2.1-5.3,2.3
	S11.8,7.5,11.8,7.5z"/>
<linearGradient id="SVGID_00000034791816806822050770000001834114379633515691_" gradientUnits="userSpaceOnUse" x1="240.45" y1="-150.8" x2="240.45" y2="-153.129" gradientTransform="matrix(1 0 0 -1 -219.1 -144.9485)">
	<stop  offset="0" style="stop-color:#FF9999;stop-opacity:0"/>
	<stop  offset="1" style="stop-color:#FF9999"/>
</linearGradient>
<path style="fill:url(#SVGID_00000034791816806822050770000001834114379633515691_);" d="M11.8,7.5V5.9h19.1c0,0-3,2.1-5.3,2.3
	S11.8,7.5,11.8,7.5z"/>
<path class="st7" d="M11.8,7.5v-3c0,0,11.4-1,13.8-0.8c2,0.2,5.3,2.2,5.3,2.2s-3,2.1-5.3,2.3S11.8,7.5,11.8,7.5z"/>
<path class="st8" d="M11.8,7.5v-3c0,0,11.4-1,13.8-0.8c2,0.2,5.3,2.2,5.3,2.2s-3,2.1-5.3,2.3S11.8,7.5,11.8,7.5z"/>
<path class="st9" d="M11.8,7.5v-3c0,0,11.4-1,13.8-0.8c2,0.2,5.3,2.2,5.3,2.2s-3,2.1-5.3,2.3S11.8,7.5,11.8,7.5z"/>
<path class="st10" d="M13.9,3.5c0,0.5,0,3.4,0,4.6c0,0.5-0.3,0.8-0.8,0.8c-0.3,0-0.5,0-1.1,0c-0.7,0-1.3-1.1-1.5-1.6
	c0,0.3-0.3,0.5-0.5,0.5c-0.5,0-2.2,0-3.3,0c-0.5,0-0.9-1-0.9-1.9l0,0C5.8,5.1,6.2,4,6.7,4C7.8,4,9.5,4,10,4c0.2,0,0.5,0.3,0.5,0.5
	c0.2-0.4,0.9-1.6,1.5-1.6s0.8,0,1.2,0C13.7,2.9,13.9,3.3,13.9,3.5L13.9,3.5z"/>
<path class="st11" d="M13.9,3.5c0,0.5,0,3.4,0,4.6c0,0.5-0.3,0.8-0.8,0.8c-0.3,0-0.5,0-1.1,0c-0.7,0-1.3-1.1-1.5-1.6
	c0,0.3-0.3,0.5-0.5,0.5c-0.5,0-2.2,0-3.3,0c-0.5,0-0.9-1-0.9-1.9l0,0C5.8,5.1,6.2,4,6.7,4C7.8,4,9.5,4,10,4c0.2,0,0.5,0.3,0.5,0.5
	c0.2-0.4,0.9-1.6,1.5-1.6s0.8,0,1.2,0C13.7,2.9,13.9,3.3,13.9,3.5L13.9,3.5z"/>
<path class="st12" d="M13.9,3.5c0,0.5,0,3.4,0,4.6c0,0.5-0.3,0.8-0.8,0.8c-0.3,0-0.5,0-1.1,0c-0.7,0-1.3-1.1-1.5-1.6
	c0,0.3-0.3,0.5-0.5,0.5c-0.5,0-2.2,0-3.3,0c-0.5,0-0.9-1-0.9-1.9l0,0C5.8,5.1,6.2,4,6.7,4C7.8,4,9.5,4,10,4c0.2,0,0.5,0.3,0.5,0.5
	c0.2-0.4,0.9-1.6,1.5-1.6s0.8,0,1.2,0C13.7,2.9,13.9,3.3,13.9,3.5L13.9,3.5z"/>
<linearGradient id="SVGID_00000180356992931876071620000013507594902879929519_" gradientUnits="userSpaceOnUse" x1="228.95" y1="-147.8" x2="228.95" y2="-153.8" gradientTransform="matrix(1 0 0 -1 -219.1 -144.9485)">
	<stop  offset="0" style="stop-color:#CC2929"/>
	<stop  offset="1" style="stop-color:#801919"/>
</linearGradient>
<path style="fill:url(#SVGID_00000180356992931876071620000013507594902879929519_);" d="M13.9,3.5c0,0.5,0,3.4,0,4.6
	c0,0.5-0.3,0.8-0.8,0.8c-0.3,0-0.5,0-1.1,0c-0.7,0-1.3-1.1-1.5-1.6c0,0.3-0.3,0.5-0.5,0.5c-0.5,0-2.2,0-3.3,0c-0.5,0-0.9-1-0.9-1.9
	l0,0C5.8,5.1,6.2,4,6.7,4C7.8,4,9.5,4,10,4c0.2,0,0.5,0.3,0.5,0.5c0.2-0.4,0.9-1.6,1.5-1.6s0.8,0,1.2,0C13.7,2.9,13.9,3.3,13.9,3.5
	L13.9,3.5z"/>
<path class="st14" d="M7.1,5.8c0-0.3,0.2-0.8,0.4-0.8c0.3,0,1.1,0,1.6,0c0.2,0,0.4,0.4,0.4,0.8S9.3,6.6,9.1,6.6c-0.5,0-1.3,0-1.6,0
	C7.3,6.6,7.1,6.2,7.1,5.8z"/>
</svg>
