<?xml version="1.0" encoding="utf-8"?>
<!-- Generator: Adobe Illustrator 26.0.0, SVG Export Plug-In . SVG Version: 6.00 Build 0)  -->
<svg version="1.1" id="图层_1" xmlns="http://www.w3.org/2000/svg" xmlns:xlink="http://www.w3.org/1999/xlink" x="0px" y="0px"
	 width="60px" height="60px" viewBox="0 0 60 60" style="enable-background:new 0 0 60 60;" xml:space="preserve">
<style type="text/css">
	.st0{fill:url(#SVGID_1_);}
	.st1{fill:url(#SVGID_00000106121980205957895600000007636171664565852803_);}
	.st2{fill:#FF6666;}
	.st3{fill:url(#SVGID_00000026880902063819815290000011068773026548586674_);}
	.st4{fill:url(#SVGID_00000078724562198456977410000017794045613452326334_);}
	.st5{fill:url(#SVGID_00000078004198863558220540000010096175699988667061_);}
</style>
<radialGradient id="SVGID_1_" cx="170.3125" cy="825.6875" r="28" gradientTransform="matrix(1 0 0 1 -140.3125 -795.6875)" gradientUnits="userSpaceOnUse">
	<stop  offset="0" style="stop-color:#FF3333"/>
	<stop  offset="1" style="stop-color:#FF3333;stop-opacity:0"/>
</radialGradient>
<path class="st0" d="M2,30C2,14.5,14.5,2,30,2s28,12.5,28,28S45.5,58,30,58S2,45.5,2,30L2,30z"/>
<radialGradient id="SVGID_00000031207875317096074830000001326494213810261899_" cx="170.3125" cy="825.6875" r="20.8833" gradientTransform="matrix(1 0 0 1 -140.3125 -795.6875)" gradientUnits="userSpaceOnUse">
	<stop  offset="0" style="stop-color:#FF3333"/>
	<stop  offset="1" style="stop-color:#FF3333;stop-opacity:0"/>
</radialGradient>
<path style="fill:url(#SVGID_00000031207875317096074830000001326494213810261899_);" d="M9.1,30C9.1,18.5,18.5,9.1,30,9.1
	S50.9,18.5,50.9,30S41.6,50.9,30,50.9S9.1,41.6,9.1,30z"/>
<path class="st2" d="M16,30c0-7.7,6.3-14,14-14s14,6.3,14,14s-6.3,14-14,14S16,37.7,16,30z"/>
<g>
	
		<radialGradient id="SVGID_00000002365390705020990320000008263907201865726880_" cx="170.3125" cy="825.6875" r="14" gradientTransform="matrix(1 0 0 1 -140.3125 -795.6875)" gradientUnits="userSpaceOnUse">
		<stop  offset="0" style="stop-color:#FFFFFF"/>
		<stop  offset="1" style="stop-color:#FFFFFF;stop-opacity:0"/>
	</radialGradient>
	<path style="fill:url(#SVGID_00000002365390705020990320000008263907201865726880_);" d="M16,30c0-7.7,6.3-14,14-14s14,6.3,14,14
		s-6.3,14-14,14S16,37.7,16,30z"/>
	
		<radialGradient id="SVGID_00000173841374993976530960000002378652706661388718_" cx="170.3125" cy="825.6875" r="14" gradientTransform="matrix(1 0 0 1 -140.3125 -795.6875)" gradientUnits="userSpaceOnUse">
		<stop  offset="0" style="stop-color:#FFFFFF"/>
		<stop  offset="1" style="stop-color:#FFFFFF;stop-opacity:0"/>
	</radialGradient>
	<path style="fill:url(#SVGID_00000173841374993976530960000002378652706661388718_);" d="M16,30c0-7.7,6.3-14,14-14s14,6.3,14,14
		s-6.3,14-14,14S16,37.7,16,30z"/>
	
		<radialGradient id="SVGID_00000165211950162810971510000012537614538313912204_" cx="170.3125" cy="825.6875" r="14" gradientTransform="matrix(1 0 0 1 -140.3125 -795.6875)" gradientUnits="userSpaceOnUse">
		<stop  offset="0" style="stop-color:#FFFFFF"/>
		<stop  offset="1" style="stop-color:#FFFFFF;stop-opacity:0"/>
	</radialGradient>
	<path style="fill:url(#SVGID_00000165211950162810971510000012537614538313912204_);" d="M16,30c0-7.7,6.3-14,14-14s14,6.3,14,14
		s-6.3,14-14,14S16,37.7,16,30z"/>
</g>
</svg>
