<?xml version="1.0" encoding="utf-8"?>
<!-- Generator: Adobe Illustrator 26.0.0, SVG Export Plug-In . SVG Version: 6.00 Build 0)  -->
<svg version="1.1" id="图层_1" xmlns="http://www.w3.org/2000/svg" xmlns:xlink="http://www.w3.org/1999/xlink" x="0px" y="0px"
	 width="40px" height="40px" viewBox="0 0 40 40" style="enable-background:new 0 0 40 40;" xml:space="preserve">
<style type="text/css">
	.st0{fill:url(#SVGID_1_);}
	.st1{fill:url(#SVGID_00000042711929276492270130000000438636263911142318_);}
	.st2{fill:url(#SVGID_00000085964262251027378850000010864566392250392478_);}
	.st3{fill:url(#SVGID_00000051343775103128331810000010026804427145075096_);}
	.st4{fill:url(#SVGID_00000075148147845389472770000015120112263348460711_);}
	.st5{fill:url(#SVGID_00000115482934161057762390000007780541393589372081_);}
	.st6{fill:url(#SVGID_00000105400528236553501900000002885710631504517292_);}
	.st7{fill:url(#SVGID_00000120535024113951977470000013127890804108764828_);}
	.st8{fill:url(#SVGID_00000166675877624236568670000009998129557122468002_);}
	.st9{fill:url(#SVGID_00000140736326881802116240000012867692760960754311_);}
</style>
<radialGradient id="SVGID_1_" cx="160.3125" cy="-57.6875" r="11.575" gradientTransform="matrix(1 0 0 -1 -140.3125 -37.6875)" gradientUnits="userSpaceOnUse">
	<stop  offset="0" style="stop-color:#FF3333;stop-opacity:0.502"/>
	<stop  offset="1" style="stop-color:#FF3333;stop-opacity:0"/>
</radialGradient>
<path class="st0" d="M14.8,31.5c-2-1-1.3-7,1.6-13.3c2.9-6.4,6.9-10.7,8.9-9.7c2,1,1.3,7-1.6,13.3C20.8,28.2,16.8,32.5,14.8,31.5
	L14.8,31.5z"/>
<radialGradient id="SVGID_00000163762015587168525890000006130447906581655454_" cx="160.3125" cy="-57.6875" r="14.7973" gradientTransform="matrix(1 0 0 -1 -140.3125 -37.6875)" gradientUnits="userSpaceOnUse">
	<stop  offset="0" style="stop-color:#FF3333;stop-opacity:0.502"/>
	<stop  offset="1" style="stop-color:#FF3333;stop-opacity:0"/>
</radialGradient>
<path style="fill:url(#SVGID_00000163762015587168525890000006130447906581655454_);" d="M28.8,31.9c-1,0.7-5.7-4.1-10.5-10.6
	c-4.8-6.6-8-12.5-7-13.2c1-0.7,5.7,4.1,10.5,10.6C26.6,25.3,29.7,31.2,28.8,31.9L28.8,31.9z"/>
<radialGradient id="SVGID_00000046332820930510633870000012817969829328233644_" cx="160.3125" cy="-57.6875" r="17.6191" gradientTransform="matrix(1 0 0 -1 -140.3125 -37.6875)" gradientUnits="userSpaceOnUse">
	<stop  offset="0" style="stop-color:#FF3333;stop-opacity:0.502"/>
	<stop  offset="1" style="stop-color:#FF3333;stop-opacity:0"/>
</radialGradient>
<path style="fill:url(#SVGID_00000046332820930510633870000012817969829328233644_);" d="M37.6,20.2c0,1.5-7.9,2.7-17.6,2.5
	c-9.7-0.1-17.6-1.5-17.6-3c0-1.5,7.9-2.7,17.6-2.5C29.7,17.4,37.6,18.7,37.6,20.2z"/>
<radialGradient id="SVGID_00000175309253126878400000000005972432692620457636_" cx="160.3125" cy="-57.6875" r="11.2324" gradientTransform="matrix(1 0 0 -1 -140.3125 -37.6875)" gradientUnits="userSpaceOnUse">
	<stop  offset="0" style="stop-color:#FF3333"/>
	<stop  offset="1" style="stop-color:#FF3333;stop-opacity:0"/>
</radialGradient>
<path style="fill:url(#SVGID_00000175309253126878400000000005972432692620457636_);" d="M31.2,19.8c0.1,6.2-4.8,11.3-11,11.4
	c-6.2,0.1-11.3-4.8-11.4-11C8.7,14,13.6,8.9,19.8,8.8C26,8.7,31.1,13.6,31.2,19.8z"/>
<radialGradient id="SVGID_00000116935405303377498840000010919618936223517119_" cx="160.3125" cy="-57.6875" r="8.3566" gradientTransform="matrix(1 0 0 -1 -140.3125 -37.6875)" gradientUnits="userSpaceOnUse">
	<stop  offset="0" style="stop-color:#FFFFFF"/>
	<stop  offset="1" style="stop-color:#FFFFFF;stop-opacity:0"/>
</radialGradient>
<path style="fill:url(#SVGID_00000116935405303377498840000010919618936223517119_);" d="M28.4,19.9c0.1,4.6-3.6,8.4-8.2,8.5
	c-4.6,0.1-8.4-3.6-8.5-8.2c-0.1-4.6,3.6-8.4,8.2-8.5C24.5,11.6,28.3,15.2,28.4,19.9z"/>
<radialGradient id="SVGID_00000180349715868815290250000010526831052214772667_" cx="160.3125" cy="-57.6875" r="6.1368" gradientTransform="matrix(1 0 0 -1 -140.3125 -37.6875)" gradientUnits="userSpaceOnUse">
	<stop  offset="0" style="stop-color:#FFFFFF"/>
	<stop  offset="1" style="stop-color:#FFFFFF;stop-opacity:0"/>
</radialGradient>
<path style="fill:url(#SVGID_00000180349715868815290250000010526831052214772667_);" d="M26.1,19.9c0.1,3.4-2.6,6.2-6,6.2
	s-6.2-2.6-6.2-6c-0.1-3.4,2.6-6.2,6-6.2C23.3,13.8,26.1,16.5,26.1,19.9z"/>
<radialGradient id="SVGID_00000060714688896423371760000009072512428997941392_" cx="160.3125" cy="-57.6875" r="11.7431" gradientTransform="matrix(1 0 0 -1 -140.3125 -37.6875)" gradientUnits="userSpaceOnUse">
	<stop  offset="0" style="stop-color:#FFFFFF"/>
	<stop  offset="1" style="stop-color:#FFFFFF;stop-opacity:0"/>
</radialGradient>
<path style="fill:url(#SVGID_00000060714688896423371760000009072512428997941392_);" d="M20,21.4C13.5,21.5,8.3,21,8.3,20.2
	c0-0.8,5.2-1.5,11.7-1.6s11.8,0.4,11.8,1.2C31.8,20.6,26.5,21.3,20,21.4z"/>
<radialGradient id="SVGID_00000007421243966278783570000006793706769399202214_" cx="160.3125" cy="-57.6875" r="9.5339" gradientTransform="matrix(1 0 0 -1 -140.3125 -37.6875)" gradientUnits="userSpaceOnUse">
	<stop  offset="0" style="stop-color:#FFFFFF"/>
	<stop  offset="1" style="stop-color:#FFFFFF;stop-opacity:0"/>
</radialGradient>
<path style="fill:url(#SVGID_00000007421243966278783570000006793706769399202214_);" d="M21.7,20.6c-1.8,4.9-4,8.7-4.9,8.3
	c-0.9-0.3-0.2-4.6,1.6-9.6c1.8-4.9,4-8.7,4.9-8.3C24.2,11.4,23.5,15.7,21.7,20.6L21.7,20.6z"/>
<radialGradient id="SVGID_00000121273323910306851750000001326059713074451854_" cx="160.3125" cy="-57.6875" r="13.1606" gradientTransform="matrix(1 0 0 -1 -140.3125 -37.6875)" gradientUnits="userSpaceOnUse">
	<stop  offset="0" style="stop-color:#FFFFFF"/>
	<stop  offset="1" style="stop-color:#FFFFFF;stop-opacity:0"/>
</radialGradient>
<path style="fill:url(#SVGID_00000121273323910306851750000001326059713074451854_);" d="M20,21c-7.3,0.1-13.2-0.2-13.2-0.8
	c0-0.6,5.9-1.1,13.1-1.3c7.3-0.1,13.2,0.2,13.2,0.8C33.2,20.3,27.3,20.9,20,21z"/>
<radialGradient id="SVGID_00000093896500946767970580000006912861487969085320_" cx="160.3125" cy="-57.6875" r="4.5512" gradientTransform="matrix(1 0 0 -1 -140.3125 -37.6875)" gradientUnits="userSpaceOnUse">
	<stop  offset="0" style="stop-color:#FFFFFF"/>
	<stop  offset="1" style="stop-color:#FFFFFF;stop-opacity:0"/>
</radialGradient>
<path style="fill:url(#SVGID_00000093896500946767970580000006912861487969085320_);" d="M24.6,19.9c0,2.5-2,4.6-4.5,4.6
	c-2.5,0-4.6-2-4.6-4.5c0-2.5,2-4.6,4.5-4.6C22.4,15.4,24.5,17.4,24.6,19.9z"/>
</svg>
