<?xml version="1.0" encoding="utf-8"?>
<!-- Generator: Adobe Illustrator 26.0.0, SVG Export Plug-In . SVG Version: 6.00 Build 0)  -->
<svg version="1.1" id="图层_1" xmlns="http://www.w3.org/2000/svg" xmlns:xlink="http://www.w3.org/1999/xlink" x="0px" y="0px"
	 width="25px" height="25px" viewBox="0 0 25 25" style="enable-background:new 0 0 25 25;" xml:space="preserve">
<style type="text/css">
	.st0{fill:url(#SVGID_1_);}
	
		.st1{fill:#FFFFFF;stroke:url(#SVGID_00000121268584924345765500000017382873735102960801_);stroke-width:1.2162;stroke-miterlimit:10;}
	
		.st2{fill:#FFFFFF;stroke:url(#SVGID_00000023256798709052887060000012743655622844650917_);stroke-width:1.2162;stroke-miterlimit:10;}
</style>
<radialGradient id="SVGID_1_" cx="205.6748" cy="891.3252" r="9.0414" gradientTransform="matrix(1 0 0 1 -193.1748 -878.8252)" gradientUnits="userSpaceOnUse">
	<stop  offset="0" style="stop-color:#FF3333;stop-opacity:0.8"/>
	<stop  offset="1" style="stop-color:#FF3333;stop-opacity:0"/>
</radialGradient>
<path class="st0" d="M3.5,12.5c0-5,4-9,9-9s9,4,9,9s-4,9-9,9S3.5,17.5,3.5,12.5z"/>
<linearGradient id="SVGID_00000155127962188871638200000002787110331569788297_" gradientUnits="userSpaceOnUse" x1="199.4298" y1="891.3783" x2="212.5457" y2="891.3783" gradientTransform="matrix(1 0 0 1 -193.1748 -878.8252)">
	<stop  offset="0" style="stop-color:#FF6666;stop-opacity:0.2"/>
	<stop  offset="1" style="stop-color:#FF6666"/>
</linearGradient>
<path style="fill:#FFFFFF;stroke:url(#SVGID_00000155127962188871638200000002787110331569788297_);stroke-width:1.2162;stroke-miterlimit:10;" d="
	M6.5,18.8c0,0,7.7-1.2,10.2-6.2c-2.6-5.1-10-6.3-10-6.3s9.1-1.3,12.6,6.3C16,20,6.5,18.8,6.5,18.8z"/>
<linearGradient id="SVGID_00000045602771645851201240000000762396316043400090_" gradientUnits="userSpaceOnUse" x1="198.7448" y1="891.386" x2="207.8305" y2="891.386" gradientTransform="matrix(1 0 0 1 -193.1748 -878.8252)">
	<stop  offset="0" style="stop-color:#FF6666;stop-opacity:0.2"/>
	<stop  offset="1" style="stop-color:#FF6666"/>
</linearGradient>
<path style="fill:#FFFFFF;stroke:url(#SVGID_00000045602771645851201240000000762396316043400090_);stroke-width:1.2162;stroke-miterlimit:10;" d="
	M10.9,15.5c-0.7,0-5.4-2.3-5.4-3c0-0.6,4.5-2.9,5.4-2.9c0.7,0,4,2.1,4,2.9S11.9,15.5,10.9,15.5z"/>
</svg>
