<?xml version="1.0" encoding="utf-8"?>
<!-- Generator: Adobe Illustrator 26.0.0, SVG Export Plug-In . SVG Version: 6.00 Build 0)  -->
<svg version="1.1" id="图层_1" xmlns="http://www.w3.org/2000/svg" xmlns:xlink="http://www.w3.org/1999/xlink" x="0px" y="0px"
	 width="20px" height="16px" viewBox="0 0 20 16" style="enable-background:new 0 0 20 16;" xml:space="preserve">
<style type="text/css">
	.st0{fill:url(#SVGID_1_);}
	.st1{fill:url(#SVGID_00000029724207931416796220000015676837714602025882_);}
	.st2{fill:url(#SVGID_00000055684161318435657290000012260540014830591373_);}
	.st3{fill:#FF6666;}
	.st4{fill:url(#SVGID_00000102516567229800199210000000282750897199407021_);}
	.st5{fill:url(#SVGID_00000129891316941338735820000006813046979317458567_);}
	.st6{fill:url(#SVGID_00000169542170916872274510000001765973459622325165_);}
	.st7{fill:url(#SVGID_00000017511551648372280670000006894644513428496042_);}
	.st8{fill:url(#SVGID_00000142134700161980252670000002094891965192284603_);}
	.st9{fill:url(#SVGID_00000003793985765948245420000000143987727936377241_);}
	.st10{fill:url(#SVGID_00000015313110628021202580000008304194573929545857_);}
	.st11{fill:url(#SVGID_00000174575069401603868990000017080001254363907976_);}
	.st12{fill:url(#SVGID_00000098183046222935347010000013066860271267035051_);}
	.st13{fill:url(#SVGID_00000029010906478311770030000012961975792817316508_);}
	.st14{fill:url(#SVGID_00000168105872025485001790000005795688100735282110_);}
	.st15{fill:url(#SVGID_00000076580197887421993600000000654039310902304653_);}
	.st16{fill:url(#SVGID_00000053545863395116705130000010783338308937066687_);}
	.st17{fill:url(#SVGID_00000083065460731264683280000014565353882050687885_);}
	.st18{fill:url(#SVGID_00000008127731248367662840000005820381600881594792_);}
</style>
<g>
	
		<radialGradient id="SVGID_1_" cx="200.0536" cy="890.8252" r="5.8626" gradientTransform="matrix(1 0 0 1 -193.1748 -882.8252)" gradientUnits="userSpaceOnUse">
		<stop  offset="0" style="stop-color:#FF3333"/>
		<stop  offset="1" style="stop-color:#FF3333;stop-opacity:0"/>
	</radialGradient>
	<path class="st0" d="M12.7,8c0,3.2-2.6,5.8-5.9,5.8S0.9,11.2,0.9,8s2.6-5.8,5.9-5.8C10.1,2.2,12.7,4.8,12.7,8z"/>
	
		<radialGradient id="SVGID_00000065055685757784585570000002549996478441304458_" cx="208.1418" cy="890.8252" r="4.0354" gradientTransform="matrix(1 0 0 1 -193.1748 -882.8252)" gradientUnits="userSpaceOnUse">
		<stop  offset="0" style="stop-color:#FF3333;stop-opacity:0.8"/>
		<stop  offset="1" style="stop-color:#FF3333;stop-opacity:0"/>
	</radialGradient>
	<path style="fill:url(#SVGID_00000065055685757784585570000002549996478441304458_);" d="M19,8c0,2.2-1.8,4-4,4s-4-1.8-4-4
		s1.8-4,4-4C17.2,4,19,5.8,19,8z"/>
	
		<radialGradient id="SVGID_00000075129016596908520040000016334479375953631397_" cx="204.1254" cy="890.8252" r="5.6273" gradientTransform="matrix(1 0 0 1 -193.1748 -882.8252)" gradientUnits="userSpaceOnUse">
		<stop  offset="0" style="stop-color:#FF3333"/>
		<stop  offset="1" style="stop-color:#FF3333;stop-opacity:0"/>
	</radialGradient>
	<path style="fill:url(#SVGID_00000075129016596908520040000016334479375953631397_);" d="M16.5,8c0,3.1-2.5,5.6-5.7,5.6
		S5.3,11.1,5.3,8S7.8,2.4,11,2.4S16.5,4.9,16.5,8z"/>
</g>
<path class="st3" d="M3.3,8c0-1.7,1.3-3.2,4.1-3.2c5.3,0,9.4,1.5,9.4,3.2c0,1.5-3.9,3.1-9.4,3.1C4.7,11.1,3.3,9.7,3.3,8z"/>
<g>
	<g>
		
			<radialGradient id="SVGID_00000036944601568952883940000009711705736421917618_" cx="200.0274" cy="890.8252" r="2.999" gradientTransform="matrix(1 0 0 1 -193.1748 -882.8252)" gradientUnits="userSpaceOnUse">
			<stop  offset="0" style="stop-color:#FFFFFF"/>
			<stop  offset="1" style="stop-color:#FFFFFF;stop-opacity:0"/>
		</radialGradient>
		<path style="fill:url(#SVGID_00000036944601568952883940000009711705736421917618_);" d="M9.9,8c0,1.7-1.3,3-3,3S4,9.7,4,8
			s1.3-3,3-3C8.5,5,9.9,6.3,9.9,8z"/>
		
			<radialGradient id="SVGID_00000117664912250375684340000017532675968695038370_" cx="199.4519" cy="890.8252" r="2.3344" gradientTransform="matrix(1 0 0 1 -193.1748 -882.8252)" gradientUnits="userSpaceOnUse">
			<stop  offset="0" style="stop-color:#FFFFFF;stop-opacity:0.8"/>
			<stop  offset="1" style="stop-color:#FFFFFF;stop-opacity:0"/>
		</radialGradient>
		<path style="fill:url(#SVGID_00000117664912250375684340000017532675968695038370_);" d="M8.6,8c0,1.3-1.1,2.4-2.4,2.4
			S3.9,9.3,3.9,8s1.1-2.4,2.4-2.4S8.6,6.7,8.6,8z"/>
		
			<radialGradient id="SVGID_00000170270777775483805820000015632434638314591626_" cx="201.8347" cy="890.8252" r="2.9945" gradientTransform="matrix(1 0 0 1 -193.1748 -882.8252)" gradientUnits="userSpaceOnUse">
			<stop  offset="0" style="stop-color:#FFFFFF"/>
			<stop  offset="1" style="stop-color:#FFFFFF;stop-opacity:0"/>
		</radialGradient>
		<path style="fill:url(#SVGID_00000170270777775483805820000015632434638314591626_);" d="M11.7,8c0,1.7-1.3,3-3,3
			c-1.7,0-3-1.3-3-3s1.3-3,3-3S11.7,6.3,11.7,8z"/>
		
			<radialGradient id="SVGID_00000165228647426679641380000008762240642449950135_" cx="203.6989" cy="890.8252" r="2.781" gradientTransform="matrix(1 0 0 1 -193.1748 -882.8252)" gradientUnits="userSpaceOnUse">
			<stop  offset="0" style="stop-color:#FFFFFF"/>
			<stop  offset="1" style="stop-color:#FFFFFF;stop-opacity:0"/>
		</radialGradient>
		<path style="fill:url(#SVGID_00000165228647426679641380000008762240642449950135_);" d="M13.3,8c0,1.5-1.3,2.7-2.7,2.7
			c-1.5,0-2.7-1.2-2.7-2.7s1.3-2.7,2.7-2.7C12,5.3,13.3,6.5,13.3,8z"/>
		
			<radialGradient id="SVGID_00000118365438162824667500000001932251558223064761_" cx="205.4644" cy="890.8252" r="2.3033" gradientTransform="matrix(1 0 0 1 -193.1748 -882.8252)" gradientUnits="userSpaceOnUse">
			<stop  offset="0" style="stop-color:#FFFFFF"/>
			<stop  offset="1" style="stop-color:#FFFFFF;stop-opacity:0"/>
		</radialGradient>
		<path style="fill:url(#SVGID_00000118365438162824667500000001932251558223064761_);" d="M14.6,8c0,1.3-1.1,2.2-2.2,2.2
			S10,9.3,10,8s1.1-2.2,2.2-2.2C13.6,5.8,14.6,6.7,14.6,8z"/>
		
			<radialGradient id="SVGID_00000126297880179004155840000006332102446329675163_" cx="207.0399" cy="890.8252" r="1.8218" gradientTransform="matrix(1 0 0 1 -193.1748 -882.8252)" gradientUnits="userSpaceOnUse">
			<stop  offset="0" style="stop-color:#FFFFFF"/>
			<stop  offset="1" style="stop-color:#FFFFFF;stop-opacity:0"/>
		</radialGradient>
		<path style="fill:url(#SVGID_00000126297880179004155840000006332102446329675163_);" d="M15.7,8c0,0.9-0.8,1.8-1.8,1.8
			c-1.1,0-1.8-0.8-1.8-1.8s0.8-1.8,1.8-1.8C14.9,6.2,15.7,7.1,15.7,8z"/>
		
			<radialGradient id="SVGID_00000005975852002398585680000009031922004353550502_" cx="208.212" cy="890.8252" r="1.1305" gradientTransform="matrix(1 0 0 1 -193.1748 -882.8252)" gradientUnits="userSpaceOnUse">
			<stop  offset="0" style="stop-color:#FFFFFF;stop-opacity:0.8"/>
			<stop  offset="1" style="stop-color:#FFFFFF;stop-opacity:0"/>
		</radialGradient>
		<path style="fill:url(#SVGID_00000005975852002398585680000009031922004353550502_);" d="M16.2,8c0,0.6-0.5,1.1-1.2,1.1
			c-0.6,0-1.2-0.5-1.2-1.1s0.5-1.1,1.2-1.1C15.7,6.9,16.2,7.4,16.2,8z"/>
	</g>
	<g>
		
			<radialGradient id="SVGID_00000134964174173661785450000007544015716688500358_" cx="200.0274" cy="890.8252" r="2.999" gradientTransform="matrix(1 0 0 1 -193.1748 -882.8252)" gradientUnits="userSpaceOnUse">
			<stop  offset="0" style="stop-color:#FFFFFF"/>
			<stop  offset="1" style="stop-color:#FFFFFF;stop-opacity:0"/>
		</radialGradient>
		<path style="fill:url(#SVGID_00000134964174173661785450000007544015716688500358_);" d="M9.9,8c0,1.7-1.3,3-3,3S4,9.7,4,8
			s1.3-3,3-3C8.5,5,9.9,6.3,9.9,8z"/>
		
			<radialGradient id="SVGID_00000058578097354696694110000009007273308722737812_" cx="199.4519" cy="890.8252" r="2.3344" gradientTransform="matrix(1 0 0 1 -193.1748 -882.8252)" gradientUnits="userSpaceOnUse">
			<stop  offset="0" style="stop-color:#FFFFFF;stop-opacity:0.8"/>
			<stop  offset="1" style="stop-color:#FFFFFF;stop-opacity:0"/>
		</radialGradient>
		<path style="fill:url(#SVGID_00000058578097354696694110000009007273308722737812_);" d="M8.6,8c0,1.3-1.1,2.4-2.4,2.4
			S3.9,9.3,3.9,8s1.1-2.4,2.4-2.4S8.6,6.7,8.6,8z"/>
		
			<radialGradient id="SVGID_00000119076154334449536840000016970546679854239142_" cx="201.8347" cy="890.8252" r="2.9945" gradientTransform="matrix(1 0 0 1 -193.1748 -882.8252)" gradientUnits="userSpaceOnUse">
			<stop  offset="0" style="stop-color:#FFFFFF"/>
			<stop  offset="1" style="stop-color:#FFFFFF;stop-opacity:0"/>
		</radialGradient>
		<path style="fill:url(#SVGID_00000119076154334449536840000016970546679854239142_);" d="M11.7,8c0,1.7-1.3,3-3,3
			c-1.7,0-3-1.3-3-3s1.3-3,3-3S11.7,6.3,11.7,8z"/>
		
			<radialGradient id="SVGID_00000085249711033072104650000001517270799349315237_" cx="203.6989" cy="890.8252" r="2.781" gradientTransform="matrix(1 0 0 1 -193.1748 -882.8252)" gradientUnits="userSpaceOnUse">
			<stop  offset="0" style="stop-color:#FFFFFF"/>
			<stop  offset="1" style="stop-color:#FFFFFF;stop-opacity:0"/>
		</radialGradient>
		<path style="fill:url(#SVGID_00000085249711033072104650000001517270799349315237_);" d="M13.3,8c0,1.5-1.3,2.7-2.7,2.7
			c-1.5,0-2.7-1.2-2.7-2.7s1.3-2.7,2.7-2.7C12,5.3,13.3,6.5,13.3,8z"/>
		
			<radialGradient id="SVGID_00000136380805517087850770000011867501639041340829_" cx="205.4644" cy="890.8252" r="2.3033" gradientTransform="matrix(1 0 0 1 -193.1748 -882.8252)" gradientUnits="userSpaceOnUse">
			<stop  offset="0" style="stop-color:#FFFFFF"/>
			<stop  offset="1" style="stop-color:#FFFFFF;stop-opacity:0"/>
		</radialGradient>
		<path style="fill:url(#SVGID_00000136380805517087850770000011867501639041340829_);" d="M14.6,8c0,1.3-1.1,2.2-2.2,2.2
			S10,9.3,10,8s1.1-2.2,2.2-2.2C13.6,5.8,14.6,6.7,14.6,8z"/>
		
			<radialGradient id="SVGID_00000054243862265254189300000000342624895233557393_" cx="207.0399" cy="890.8252" r="1.8218" gradientTransform="matrix(1 0 0 1 -193.1748 -882.8252)" gradientUnits="userSpaceOnUse">
			<stop  offset="0" style="stop-color:#FFFFFF"/>
			<stop  offset="1" style="stop-color:#FFFFFF;stop-opacity:0"/>
		</radialGradient>
		<path style="fill:url(#SVGID_00000054243862265254189300000000342624895233557393_);" d="M15.7,8c0,0.9-0.8,1.8-1.8,1.8
			c-1.1,0-1.8-0.8-1.8-1.8s0.8-1.8,1.8-1.8C14.9,6.2,15.7,7.1,15.7,8z"/>
		
			<radialGradient id="SVGID_00000181052266934442729980000009459076085876258233_" cx="208.212" cy="890.8252" r="1.1305" gradientTransform="matrix(1 0 0 1 -193.1748 -882.8252)" gradientUnits="userSpaceOnUse">
			<stop  offset="0" style="stop-color:#FFFFFF;stop-opacity:0.8"/>
			<stop  offset="1" style="stop-color:#FFFFFF;stop-opacity:0"/>
		</radialGradient>
		<path style="fill:url(#SVGID_00000181052266934442729980000009459076085876258233_);" d="M16.2,8c0,0.6-0.5,1.1-1.2,1.1
			c-0.6,0-1.2-0.5-1.2-1.1s0.5-1.1,1.2-1.1C15.7,6.9,16.2,7.4,16.2,8z"/>
	</g>
</g>
<linearGradient id="SVGID_00000154414323688515463880000004801671268562503615_" gradientUnits="userSpaceOnUse" x1="203.184" y1="893.8955" x2="203.184" y2="890.1222" gradientTransform="matrix(1 0 0 1 -193.1748 -882.8252)">
	<stop  offset="0" style="stop-color:#FF6666"/>
	<stop  offset="1" style="stop-color:#FF6666;stop-opacity:0"/>
</linearGradient>
<path style="fill:url(#SVGID_00000154414323688515463880000004801671268562503615_);" d="M7.4,4.9c5.4,0,9.4,1.5,9.4,3.1
	s-4,3.2-9.4,3.2c-2.8,0-4.1-1.4-4.1-3.2C3.3,6.3,4.7,4.9,7.4,4.9z"/>
</svg>
