<?xml version="1.0" encoding="utf-8"?>
<!-- Generator: Adobe Illustrator 26.0.0, SVG Export Plug-In . SVG Version: 6.00 Build 0)  -->
<svg version="1.1" id="图层_1" xmlns="http://www.w3.org/2000/svg" xmlns:xlink="http://www.w3.org/1999/xlink" x="0px" y="0px"
	 width="75px" height="75px" viewBox="0 0 75 75" style="enable-background:new 0 0 75 75;" xml:space="preserve">
<style type="text/css">
	.st0{fill:none;stroke:#FF3333;stroke-width:6;stroke-miterlimit:10;stroke-opacity:0.102;}
	.st1{fill:none;stroke:#FF3333;stroke-width:5;stroke-miterlimit:10;stroke-opacity:0.102;}
	.st2{fill:none;stroke:#FF3333;stroke-width:4;stroke-miterlimit:10;stroke-opacity:0.102;}
	.st3{fill:none;stroke:#FF3333;stroke-width:3;stroke-miterlimit:10;stroke-opacity:0.102;}
	.st4{fill:none;stroke:#FF3333;stroke-width:2;stroke-miterlimit:10;stroke-opacity:0.102;}
	.st5{fill:none;stroke:#FF3333;stroke-miterlimit:10;stroke-opacity:0.102;}
	.st6{fill:#C2C7CC;stroke:#000000;stroke-width:0.5;stroke-miterlimit:10;}
	.st7{fill:#737980;}
	.st8{fill:#FF4D4D;}
	.st9{fill:none;stroke:#FF3333;stroke-width:2.5;stroke-miterlimit:10;stroke-opacity:0.102;}
	.st10{fill:none;stroke:#FF3333;stroke-width:1.5;stroke-miterlimit:10;stroke-opacity:0.102;}
	.st11{fill:none;stroke:#FF3333;stroke-width:0.5;stroke-miterlimit:10;stroke-opacity:0.102;}
	.st12{fill:url(#SVGID_1_);}
	.st13{fill:url(#SVGID_00000122685324874188939600000018110103627998288063_);}
	.st14{fill:url(#SVGID_00000034770568400839174290000008791109939526107550_);}
	.st15{fill:url(#SVGID_00000049917930594385325370000004740319818812538032_);}
	.st16{fill:url(#SVGID_00000041980953595148315190000014080724864265257385_);}
	.st17{fill:url(#SVGID_00000143593460478197309020000007280973524996577215_);}
	.st18{fill:url(#SVGID_00000022557521063533284750000007705159834322923698_);}
	.st19{fill:url(#SVGID_00000028293733056912415360000003614174813653541024_);}
	.st20{fill:url(#SVGID_00000170257075298005199370000003953372756026433687_);}
	.st21{fill:url(#SVGID_00000035528705740247116050000004387573544500218284_);}
</style>
<g>
	<path class="st0" d="M19.4,42.1l0-9.2c0,0,22.9-1.6,27.8-1.6s9.3,3,12.3,6.2c-3.1,3.2-6.9,6.2-12.3,6.2S19.4,42.1,19.4,42.1
		L19.4,42.1z"/>
	<path class="st1" d="M19.4,42.1l0-9.2c0,0,22.9-1.6,27.8-1.6s9.3,3,12.3,6.2c-3.1,3.2-6.9,6.2-12.3,6.2S19.4,42.1,19.4,42.1
		L19.4,42.1z"/>
	<path class="st2" d="M19.4,42.1l0-9.2c0,0,22.9-1.6,27.8-1.6s9.3,3,12.3,6.2c-3.1,3.2-6.9,6.2-12.3,6.2S19.4,42.1,19.4,42.1
		L19.4,42.1z"/>
	<path class="st3" d="M19.4,42.1l0-9.2c0,0,22.9-1.6,27.8-1.6s9.3,3,12.3,6.2c-3.1,3.2-6.9,6.2-12.3,6.2S19.4,42.1,19.4,42.1
		L19.4,42.1z"/>
	<path class="st4" d="M19.4,42.1l0-9.2c0,0,22.9-1.6,27.8-1.6s9.3,3,12.3,6.2c-3.1,3.2-6.9,6.2-12.3,6.2S19.4,42.1,19.4,42.1
		L19.4,42.1z"/>
	<path class="st5" d="M19.4,42.1l0-9.2c0,0,22.9-1.6,27.8-1.6s9.3,3,12.3,6.2c-3.1,3.2-6.9,6.2-12.3,6.2S19.4,42.1,19.4,42.1
		L19.4,42.1z"/>
</g>
<g>
	<path class="st6" d="M19.4,42.1l0-9.2c0,0,22.9-1.6,27.8-1.6s9.3,3,12.3,6.2c-3.1,3.2-6.9,6.2-12.3,6.2S19.4,42.1,19.4,42.1
		L19.4,42.1z"/>
	<path class="st7" d="M19.5,39.7l0-4.3c0,0,23.9-1.2,27.4-1.2s6.3,1.7,8.5,3.4c-2.2,1.8-4.6,3.4-8.5,3.4
		C43,40.9,19.5,39.7,19.5,39.7L19.5,39.7z"/>
	<path class="st8" d="M48.3,37.5c-1,1.2,0.8,1.5,1.6,0.7c-0.9,2.1-4.2,0.7-3-0.5c0.9-0.9,0.5-1.6-1.4-1.7
		C47.5,35,49.1,36.4,48.3,37.5L48.3,37.5z"/>
	<path class="st8" d="M37.9,37.4c-1.4,2.8-2.2-0.8-4.3,0.2C35.5,34.9,36.4,37.5,37.9,37.4z"/>
	<path class="st8" d="M40.1,38c0.3,0.6,1.2,0,1,0.9C40.7,38.5,40,39,40.1,38z"/>
	<path class="st8" d="M41.6,38.9c1.4-0.7,0.3-3.5-1.3-2.3C42.7,32.8,44.2,40.1,41.6,38.9z"/>
	<path class="st8" d="M29.2,38.8c-1.1,0-1.5-1.4-2.3-1.4c0.8,0,1.2-1.4,2.3-1.4c1.1,0,1.4,1.4,2.3,1.4
		C30.5,37.4,30.2,38.8,29.2,38.8L29.2,38.8z M29.1,36.7c-0.4,0-0.7,0.3-0.7,0.7s0.3,0.7,0.7,0.7s0.7-0.3,0.7-0.7
		S29.5,36.7,29.1,36.7z"/>
</g>
<g>
	<path class="st9" d="M19.4,42.1l0-9.2c0,0,22.9-1.6,27.8-1.6s9.3,3,12.3,6.2c-3.1,3.2-6.9,6.2-12.3,6.2S19.4,42.1,19.4,42.1
		L19.4,42.1z"/>
	<path class="st4" d="M19.4,42.1l0-9.2c0,0,22.9-1.6,27.8-1.6s9.3,3,12.3,6.2c-3.1,3.2-6.9,6.2-12.3,6.2S19.4,42.1,19.4,42.1
		L19.4,42.1z"/>
	<path class="st10" d="M19.4,42.1l0-9.2c0,0,22.9-1.6,27.8-1.6s9.3,3,12.3,6.2c-3.1,3.2-6.9,6.2-12.3,6.2S19.4,42.1,19.4,42.1
		L19.4,42.1z"/>
	<path class="st5" d="M19.4,42.1l0-9.2c0,0,22.9-1.6,27.8-1.6s9.3,3,12.3,6.2c-3.1,3.2-6.9,6.2-12.3,6.2S19.4,42.1,19.4,42.1
		L19.4,42.1z"/>
	<path class="st11" d="M19.4,42.1l0-9.2c0,0,22.9-1.6,27.8-1.6s9.3,3,12.3,6.2c-3.1,3.2-6.9,6.2-12.3,6.2S19.4,42.1,19.4,42.1
		L19.4,42.1z"/>
</g>
<g>
	
		<radialGradient id="SVGID_1_" cx="160.783" cy="-40.1875" r="17.2438" gradientTransform="matrix(1 0 0 -1 -140.3125 -2.6875)" gradientUnits="userSpaceOnUse">
		<stop  offset="0" style="stop-color:#FF6666;stop-opacity:0.4823"/>
		<stop  offset="1" style="stop-color:#FF6666;stop-opacity:0"/>
	</radialGradient>
	<path class="st12" d="M37.6,45.3c-1.5,3-10.4,2-19.8-2.3c-9.5-4.3-16-10.3-14.5-13.3c1.5-3,10.4-2,19.8,2.3
		C32.6,36.3,39.1,42.3,37.6,45.3L37.6,45.3z"/>
	
		<radialGradient id="SVGID_00000176004729026011693920000002338299090831667586_" cx="160.783" cy="-40.1875" r="22.044" gradientTransform="matrix(1 0 0 -1 -140.3125 -2.6875)" gradientUnits="userSpaceOnUse">
		<stop  offset="0" style="stop-color:#FF6666;stop-opacity:0.4823"/>
		<stop  offset="1" style="stop-color:#FF6666;stop-opacity:0"/>
	</radialGradient>
	<path style="fill:url(#SVGID_00000176004729026011693920000002338299090831667586_);" d="M38.2,24.4c1.1,1.4-6,8.4-15.8,15.7
		C12.6,47.3,3.8,52,2.7,50.6c-1.1-1.4,6-8.4,15.8-15.7C28.4,27.7,37.2,23,38.2,24.4L38.2,24.4z"/>
	
		<radialGradient id="SVGID_00000054970940737824225170000016120392952640487594_" cx="160.783" cy="-40.1875" r="26.2478" gradientTransform="matrix(1 0 0 -1 -140.3125 -2.6875)" gradientUnits="userSpaceOnUse">
		<stop  offset="0" style="stop-color:#FF6666;stop-opacity:0.4823"/>
		<stop  offset="1" style="stop-color:#FF6666;stop-opacity:0"/>
	</radialGradient>
	<path style="fill:url(#SVGID_00000054970940737824225170000016120392952640487594_);" d="M20.8,11.2c2.3,0,4,11.8,3.8,26.3
		c-0.2,14.5-2.2,26.3-4.4,26.3c-2.3,0-4-11.8-3.8-26.3C16.5,23,18.5,11.2,20.8,11.2L20.8,11.2z"/>
	
		<radialGradient id="SVGID_00000152958915471252545150000014939377173180940690_" cx="160.783" cy="-40.1875" r="16.7333" gradientTransform="matrix(1 0 0 -1 -140.3125 -2.6875)" gradientUnits="userSpaceOnUse">
		<stop  offset="0" style="stop-color:#FF6666"/>
		<stop  offset="1" style="stop-color:#FF6666;stop-opacity:0"/>
	</radialGradient>
	<path style="fill:url(#SVGID_00000152958915471252545150000014939377173180940690_);" d="M20.2,20.8c9.2-0.2,16.9,7.2,17,16.4
		c0.2,9.2-7.2,16.9-16.4,17c-9.2,0.2-16.9-7.2-17-16.4C3.6,28.6,10.9,20.9,20.2,20.8z"/>
	
		<radialGradient id="SVGID_00000058585587174095826570000014350930219536018614_" cx="160.783" cy="-40.1875" r="12.4491" gradientTransform="matrix(1 0 0 -1 -140.3125 -2.6875)" gradientUnits="userSpaceOnUse">
		<stop  offset="0" style="stop-color:#FFFFFF"/>
		<stop  offset="1" style="stop-color:#FFFFFF;stop-opacity:0"/>
	</radialGradient>
	<path style="fill:url(#SVGID_00000058585587174095826570000014350930219536018614_);" d="M20.3,25.1c6.9-0.1,12.5,5.4,12.7,12.2
		c0.1,6.9-5.4,12.5-12.2,12.7C13.8,50.1,8.1,44.6,8,37.7C7.9,30.8,13.4,25.2,20.3,25.1L20.3,25.1z"/>
	
		<radialGradient id="SVGID_00000183930897341746625980000000495239294279029942_" cx="160.783" cy="-40.1875" r="9.1422" gradientTransform="matrix(1 0 0 -1 -140.3125 -2.6875)" gradientUnits="userSpaceOnUse">
		<stop  offset="0" style="stop-color:#FFFFFF"/>
		<stop  offset="1" style="stop-color:#FFFFFF;stop-opacity:0"/>
	</radialGradient>
	<path style="fill:url(#SVGID_00000183930897341746625980000000495239294279029942_);" d="M20.3,28.4c5-0.1,9.2,3.9,9.3,9
		c0.1,5-3.9,9.2-9,9.3c-5,0.1-9.2-3.9-9.3-9C11.2,32.6,15.3,28.4,20.3,28.4L20.3,28.4z"/>
	
		<radialGradient id="SVGID_00000165195089452759775940000014389065402734568630_" cx="160.783" cy="-40.1875" r="17.4941" gradientTransform="matrix(1 0 0 -1 -140.3125 -2.6875)" gradientUnits="userSpaceOnUse">
		<stop  offset="0" style="stop-color:#FFFFFF"/>
		<stop  offset="1" style="stop-color:#FFFFFF;stop-opacity:0"/>
	</radialGradient>
	<path style="fill:url(#SVGID_00000165195089452759775940000014389065402734568630_);" d="M22.6,37.5C22.8,47.1,22,55,20.8,55
		c-1.2,0-2.3-7.8-2.4-17.5S19,20,20.2,20C21.3,20,22.4,27.8,22.6,37.5z"/>
	
		<radialGradient id="SVGID_00000165954223965510411010000001474596536972405936_" cx="160.783" cy="-40.1875" r="14.2029" gradientTransform="matrix(1 0 0 -1 -140.3125 -2.6875)" gradientUnits="userSpaceOnUse">
		<stop  offset="0" style="stop-color:#FFFFFF"/>
		<stop  offset="1" style="stop-color:#FFFFFF;stop-opacity:0"/>
	</radialGradient>
	<path style="fill:url(#SVGID_00000165954223965510411010000001474596536972405936_);" d="M21.4,35c7.4,2.7,12.9,6,12.4,7.4
		c-0.5,1.4-6.9,0.3-14.2-2.4c-7.4-2.7-12.9-6-12.4-7.4C7.6,31.2,14,32.3,21.4,35L21.4,35z"/>
	
		<radialGradient id="SVGID_00000103258964991879611620000009241752172033048764_" cx="160.783" cy="-40.1875" r="19.6058" gradientTransform="matrix(1 0 0 -1 -140.3125 -2.6875)" gradientUnits="userSpaceOnUse">
		<stop  offset="0" style="stop-color:#FFFFFF"/>
		<stop  offset="1" style="stop-color:#FFFFFF;stop-opacity:0"/>
	</radialGradient>
	<path style="fill:url(#SVGID_00000103258964991879611620000009241752172033048764_);" d="M22,37.5c0.2,10.8-0.3,19.6-1.2,19.6
		s-1.7-8.7-1.9-19.6c-0.2-10.8,0.3-19.6,1.2-19.6C21,17.9,21.8,26.6,22,37.5z"/>
	
		<radialGradient id="SVGID_00000090974440005655697480000007732168696468261521_" cx="160.783" cy="-40.1875" r="6.7801" gradientTransform="matrix(1 0 0 -1 -140.3125 -2.6875)" gradientUnits="userSpaceOnUse">
		<stop  offset="0" style="stop-color:#FFFFFF"/>
		<stop  offset="1" style="stop-color:#FFFFFF;stop-opacity:0"/>
	</radialGradient>
	<path style="fill:url(#SVGID_00000090974440005655697480000007732168696468261521_);" d="M20.4,30.7c3.7-0.1,6.8,2.9,6.9,6.7
		c0.1,3.7-2.9,6.8-6.7,6.9c-3.7,0.1-6.8-2.9-6.9-6.7C13.6,33.9,16.6,30.8,20.4,30.7L20.4,30.7z"/>
</g>
</svg>
