<?xml version="1.0" encoding="utf-8"?>
<!-- Generator: Adobe Illustrator 26.0.0, SVG Export Plug-In . SVG Version: 6.00 Build 0)  -->
<!DOCTYPE svg PUBLIC "-//W3C//DTD SVG 1.0//EN" "http://www.w3.org/TR/2001/REC-SVG-20010904/DTD/svg10.dtd" [
	<!ENTITY st0 "fill:#33CC43;">
]>
<svg version="1.0" xmlns="http://www.w3.org/2000/svg" xmlns:xlink="http://www.w3.org/1999/xlink" x="0px" y="0px"
	 width="128px" height="32px" viewBox="0 0 128 32" style="enable-background:new 0 0 128 32;" xml:space="preserve">
<path style="&st0;" d="M16,0C7.16345,0,0,7.16345,0,16s7.16345,16,16,16s16-7.16345,16-16S24.83655,0,16,0z M25.29999,23.44
	l-3.71997,1.11597v-7.44l0.15686-0.04706c1.77588-0.53278,3.56311,0.797,3.56311,2.65106V23.44z M25.29999,6.70001l-7.44,2.23199
	v16.73993l-7.59686,2.27911c-1.77588,0.53278-3.56311-0.797-3.56311-2.65106l7.44-2.23206V10.04797l-3.87689,1.16309
	C8.48724,11.74377,6.70001,10.414,6.70001,8.56l15.03687-4.51111c1.77588-0.53271,3.56311,0.79706,3.56311,2.65106V6.70001z"/>
<g>
	<path style="&st0;" d="M46.45464,27.5c-1.7196,0-3.18255-0.3408-4.34939-1.0141c-0.52782-0.30548-1.02033-0.6816-1.46711-1.12008
		c-0.44159-0.43224-0.67329-1.03695-0.63381-1.65414c0.03949-0.61718,0.34496-1.18657,0.83746-1.56063l0.23275-0.17664
		c0.38132-0.28885,0.83434-0.43224,1.28632-0.43224c0.51536,0,1.02968,0.18703,1.43386,0.55484
		c0.11429,0.10598,0.23274,0.19742,0.35639,0.28262c0.52575,0.35743,1.04734,0.53198,1.58868,0.53198
		c0.86967,0,1.53673-0.26599,1.98247-0.78966c0.4499-0.52991,0.66914-1.50036,0.66914-2.96332V7.01653
		c0-1.17618,0.95279-2.12794,2.12794-2.12794h1.07644c1.17514,0,2.12793,0.95175,2.12793,2.12794v12.55773
		c0,1.44217-0.25976,2.77837-0.772,3.97533c-0.51744,1.19904-1.31853,2.16742-2.38562,2.87812
		C49.49693,27.1405,48.11398,27.5,46.45464,27.5z"/>
	<path style="&st0;" d="M59.48513,18.91552c-0.55276,0-1.07228-0.21404-1.46399-0.60679s-0.6068-0.91227-0.6068-1.46711
		c0.00104-1.14086,0.93097-2.06975,2.07287-2.06975l4.71305,0.00416c0.55276,0,1.07227,0.21404,1.46399,0.60679
		s0.6068,0.91227,0.6068,1.46711c-0.00104,1.14086-0.93097,2.06975-2.07287,2.06975L59.48513,18.91552z"/>
	<path style="&st0;" d="M75.8291,27.5c-1.44218,0-2.91033-0.27015-4.36289-0.80421
		c-0.66914-0.24521-1.31645-0.55276-1.92948-0.91227c-0.53822-0.31586-0.91123-0.85201-1.01929-1.46711
		c-0.10806-0.61303,0.05923-1.24476,0.45718-1.72479l0.346-0.41769c0.41665-0.50289,1.02345-0.77096,1.63959-0.77096
		c0.37197,0,0.74603,0.09767,1.08475,0.29716c0.36782,0.2182,0.75122,0.41561,1.14813,0.58601
		c0.95695,0.41561,1.8848,0.6255,2.75551,0.6255c1.00163,0,1.71752-0.1704,2.18924-0.52159
		c0.46549-0.34496,0.70135-0.82291,0.70135-1.41516c0-0.44055-0.1278-0.78551-0.38963-1.05773
		c-0.25872-0.27015-0.6151-0.50912-1.08787-0.73148c-0.46237-0.21404-1.01617-0.45302-1.65517-0.71278l-2.82825-1.19281
		c-0.75226-0.30755-1.4962-0.74187-2.18612-1.27801c-0.68472-0.53614-1.2458-1.20736-1.66972-1.9991
		c-0.42496-0.78759-0.64108-1.72895-0.64108-2.79915c0-1.24476,0.34599-2.38769,1.0276-3.39555
		c0.69096-1.02241,1.62193-1.81207,2.84486-2.41471C73.45907,4.80132,74.86176,4.5,76.42447,4.5
		c1.28424,0,2.57784,0.24521,3.84338,0.73148c0.51432,0.19742,0.9985,0.43016,1.45776,0.70238
		c0.53094,0.31171,0.89877,0.84162,1.00994,1.44633c0.11118,0.60679-0.04572,1.23021-0.43016,1.71232l-0.13611,0.1704
		c-0.41457,0.51952-1.0328,0.80005-1.66349,0.80005c-0.33457,0-0.67122-0.07897-0.98396-0.24105
		c-0.2369-0.12468-0.4738-0.23274-0.70966-0.32833c-0.71589-0.28885-1.51595-0.43432-2.38769-0.43432
		c-0.81149,0-1.45673,0.16001-1.92014,0.47588c-0.47172,0.3221-0.70135,0.76057-0.70135,1.34035
		c0,0.41977,0.14131,0.76265,0.43224,1.04319c0.28781,0.27846,0.67537,0.52367,1.18137,0.7481
		c0.48835,0.21404,1.06501,0.45302,1.72272,0.7107l2.7711,1.10345c0.91331,0.3595,1.70713,0.82084,2.35445,1.36944
		c0.65562,0.56108,1.15852,1.22398,1.50036,1.98039c0.34704,0.76057,0.52367,1.67907,0.52367,2.72642
		c0,1.22814-0.33665,2.38146-0.99851,3.4288c-0.67017,1.05981-1.61569,1.89311-2.8885,2.54563
		C79.14257,27.17582,77.6048,27.5,75.8291,27.5z"/>
	<path style="&st0;" d="M93.50718,27.08231c-1.17618,0-2.12794-0.95175-2.12794-2.12794V9.32734h-3.85896
		c-1.17618,0-2.12793-0.95175-2.12793-2.12794S86.3441,4.8886,87.52028,4.8886h13.08141c1.17619,0,2.12794,0.95175,2.12794,2.12794
		s-0.95175,2.31081-2.12794,2.31081h-3.89013v15.62703c0,1.17618-0.95175,2.12794-2.12794,2.12794H93.50718z"/>
	<path style="&st0;" d="M114.9424,27.5c-2.06144,0-3.87766-0.41977-5.55258-1.28009
		c-1.67908-0.86655-2.97371-2.11339-3.96494-3.81532c-0.97877-1.68115-1.47543-3.79662-1.47543-6.28614
		c0-1.83909,0.29093-3.49738,0.86447-4.93124c0.57355-1.43179,1.36945-2.65784,2.369-3.647
		c1.00993-1.00163,2.14664-1.74349,3.47244-2.26509C111.96246,4.76184,113.37554,4.5,114.85304,4.5
		c1.62089,0,3.03397,0.29508,4.20184,0.87902c0.33457,0.16624,0.65459,0.34288,0.95798,0.52575
		c0.52575,0.32002,0.88941,0.85201,0.99332,1.4588s-0.05819,1.22814-0.44678,1.70609l-0.13715,0.16832
		c-0.41769,0.5112-1.02864,0.78343-1.65205,0.78343c-0.36159,0-0.72733-0.09143-1.05981-0.28469l-0.34704-0.19118
		c-0.61303-0.32002-1.40061-0.48627-2.33159-0.48627c-1.08891,0-2.06559,0.27638-2.90305,0.81876
		c-0.84369,0.54653-1.51491,1.33827-1.99702,2.35237c-0.48418,1.01825-0.7294,2.26509-0.7294,3.70934
		c0,1.46503,0.22651,2.73473,0.67122,3.77168c0.45094,1.0515,1.11384,1.83077,2.02403,2.38146
		c0.89772,0.54237,2.04689,0.81876,3.41218,0.81876c0.39275,0,0.78343-0.04987,1.16164-0.14962
		c0.37613-0.09767,0.68369-0.2369,0.92266-0.41561v-3.57635h-1.38607c-1.17619,0-2.12794-0.95175-2.12794-2.12794
		s0.95175-2.22145,2.12794-2.22145h3.99612c1.17619,0,2.12794,0.95175,2.12794,2.12794v7.22958
		c0,0.69823-0.34288,1.35074-0.91643,1.74973c-0.61926,0.42808-1.35697,0.82084-2.19651,1.16787
		C117.9265,27.22985,116.4864,27.5,114.9424,27.5z"/>
</g>
</svg>
