<?xml version="1.0" encoding="utf-8"?>
<!-- Generator: Adobe Illustrator 26.0.0, SVG Export Plug-In . SVG Version: 6.00 Build 0)  -->
<svg version="1.0" id="图层_1" xmlns="http://www.w3.org/2000/svg" xmlns:xlink="http://www.w3.org/1999/xlink" x="0px" y="0px"
	 width="640px" height="480px" viewBox="0 0 640 480" style="enable-background:new 0 0 640 480;" xml:space="preserve">
<style type="text/css">
	.st0{fill:none;stroke:#272727;stroke-width:2;stroke-linecap:round;stroke-miterlimit:10;}
	.st1{fill:none;stroke:#FFFFFF;stroke-width:2;stroke-linecap:round;stroke-miterlimit:10;}
</style>
<g transform="translate(1.1556,1.52383)">
	<g>
		<path d="M-1.15967,479.27365V-1.53405h26.35545v480.80771H-1.15967z"/>
		<path d="M425.27612,479.27365V-1.53405h213.48767v480.80771H425.27612z"/>
		<g>
			<g>
				<path class="st0" d="M24.87119,223.45905v30.81137l-26.65386,15.38406L-1.79182,208.075L24.87119,223.45905z"/>
				<path class="st0" d="M24.87119,408.22354v30.81134l-26.65386,15.38409l-0.00915-61.57947L24.87119,408.22354z"/>
				<path class="st0" d="M24.87119,38.69226v30.81136L-1.78267,84.88766l-0.00915-61.57944L24.87119,38.69226z"/>
				<path class="st0" d="M24.87119,315.84644v30.81137l-26.65386,15.38403l-0.00915-61.57944L24.87119,315.84644z"/>
				<path class="st0" d="M24.87119,131.07968v30.81136L-1.78267,177.2751l-0.00915-61.57947L24.87119,131.07968z"/>
			</g>
			<g>
				<path class="st0" d="M559.30878,223.45905v30.81137l-26.65387,15.38406l-26.66299-15.38406v-30.81137l26.65384-15.38405
					L559.30878,223.45905z"/>
				<path class="st0" d="M612.63074,223.45905v30.81137l-26.65381,15.38406l-26.66302-15.38406v-30.81137l26.65387-15.38405
					L612.63074,223.45905z"/>
				<path class="st0" d="M505.92899,223.45905v30.81137l-26.65387,15.38406l-26.66299-15.38406v-30.81137l26.65384-15.38405
					L505.92899,223.45905z"/>
				<path class="st0" d="M612.62097,223.45905v30.81137l-26.65387,15.38406l-26.66296-15.38406v-30.81137l26.65381-15.38405
					L612.62097,223.45905z"/>
				<path class="st0" d="M639.28912,269.65448l-26.66302-15.38406v-30.81137l26.65387-15.38405L639.28912,269.65448z"/>
				<path class="st0" d="M639.28912,269.65448l-26.66302-15.38406v-30.81137l26.65387-15.38405L639.28912,269.65448z"/>
				<path class="st0" d="M532.65265,177.27151v30.81137l-26.65381,15.38403l-26.66299-15.38403v-30.81137l26.65384-15.38405
					L532.65265,177.27151z"/>
				<path class="st0" d="M585.97467,177.27151v30.81137l-26.65387,15.38403l-26.66302-15.38403v-30.81137l26.65387-15.38405
					L585.97467,177.27151z"/>
				<path class="st0" d="M479.27286,177.27151v30.81137l-26.65384,15.38403l-26.66299-15.38403v-30.81137l26.65384-15.38405
					L479.27286,177.27151z"/>
				<path class="st0" d="M585.9649,177.27151v30.81137l-26.65393,15.38403l-26.66296-15.38403v-30.81137l26.65381-15.38405
					L585.9649,177.27151z"/>
				<path class="st0" d="M639.28687,177.27151v30.81137l-26.65393,15.38403l-26.66296-15.38403v-30.81137l26.65381-15.38405
					L639.28687,177.27151z"/>
				<path class="st0" d="M639.28687,177.27151v30.81137l-26.65393,15.38403l-26.66296-15.38403v-30.81137l26.65381-15.38405
					L639.28687,177.27151z"/>
				<path class="st0" d="M559.30878,408.22354v30.81134l-26.65387,15.38409l-26.66299-15.38403v-30.81137l26.65384-15.38403
					L559.30878,408.22354z"/>
				<path class="st0" d="M612.63074,408.22354v30.81134l-26.65381,15.38409l-26.66302-15.38403v-30.81137l26.65387-15.38403
					L612.63074,408.22354z"/>
				<path class="st0" d="M505.92899,408.22354v30.81134l-26.65387,15.38409l-26.66299-15.38403v-30.81137l26.65384-15.38403
					L505.92899,408.22354z"/>
				<path class="st0" d="M612.62097,408.22354v30.81134l-26.65387,15.38409l-26.66296-15.38403v-30.81137l26.65381-15.38403
					L612.62097,408.22354z"/>
				<path class="st0" d="M639.28912,454.41898l-26.66302-15.38403v-30.81137l26.65387-15.38403L639.28912,454.41898z"/>
				<path class="st0" d="M639.28912,454.41898l-26.66302-15.38403v-30.81137l26.65387-15.38403L639.28912,454.41898z"/>
				<path class="st0" d="M532.65265,362.03601v30.81134l-26.65381,15.38403l-26.66299-15.38403v-30.81134l26.65384-15.38403
					L532.65265,362.03601z"/>
				<path class="st0" d="M585.97467,362.03601v30.81134l-26.65387,15.38403l-26.66302-15.38403v-30.81134l26.65387-15.38403
					L585.97467,362.03601z"/>
				<path class="st0" d="M479.27286,362.03601v30.81134l-26.65384,15.38403l-26.66299-15.38403v-30.81134l26.65384-15.38403
					L479.27286,362.03601z"/>
				<path class="st0" d="M585.9649,362.03601v30.81134l-26.65393,15.38403l-26.66296-15.38403v-30.81134l26.65381-15.38403
					L585.9649,362.03601z"/>
				<path class="st0" d="M639.28687,362.03601v30.81134l-26.65393,15.38403l-26.66296-15.38403v-30.81134l26.65381-15.38403
					L639.28687,362.03601z"/>
				<path class="st0" d="M639.28687,362.03601v30.81134l-26.65393,15.38403l-26.66296-15.38403v-30.81134l26.65381-15.38403
					L639.28687,362.03601z"/>
				<path class="st0" d="M559.30878,38.69226v30.81136l-26.65387,15.38404l-26.66299-15.38403V38.69226l26.65384-15.38404
					L559.30878,38.69226z"/>
				<path class="st0" d="M612.63074,38.69226v30.81136l-26.65381,15.38404L559.3139,69.50363V38.69226l26.65387-15.38404
					L612.63074,38.69226z"/>
				<path class="st0" d="M505.92899,38.69226v30.81136l-26.65387,15.38404l-26.66299-15.38403V38.69226l26.65384-15.38404
					L505.92899,38.69226z"/>
				<path class="st0" d="M612.62097,38.69226v30.81136L585.9671,84.88766l-26.66296-15.38403V38.69226l26.65381-15.38404
					L612.62097,38.69226z"/>
				<path class="st0" d="M639.28912,84.88766L612.6261,69.50363V38.69226l26.65387-15.38404L639.28912,84.88766z"/>
				<path class="st0" d="M639.28912,84.88766L612.6261,69.50363V38.69226l26.65387-15.38404L639.28912,84.88766z"/>
				<path class="st0" d="M532.65265-2.16193V23.3161l-26.65381,15.38404l-26.66299-15.38404V-2.16193L532.65265-2.16193z"/>
				<path class="st0" d="M585.97467-2.16193V23.3161L559.3208,38.70014l-26.66302-15.38404V-2.16193L585.97467-2.16193z"/>
				<path class="st0" d="M479.27286-2.16193V23.3161l-26.65384,15.38404l-26.66299-15.38404V-2.16193L479.27286-2.16193z"/>
				<path class="st0" d="M585.9649-2.16193V23.3161l-26.65393,15.38404l-26.66296-15.38404V-2.16193L585.9649-2.16193z"/>
				<path class="st0" d="M639.28687-2.16193V23.3161l-26.65393,15.38404l-26.66296-15.38404V-2.16193L639.28687-2.16193z"/>
				<path class="st0" d="M639.28687-2.16193V23.3161l-26.65393,15.38404l-26.66296-15.38404V-2.16193L639.28687-2.16193z"/>
				<path class="st0" d="M559.30878,315.84644v30.81137l-26.65387,15.38403l-26.66299-15.38403v-30.81137l26.65384-15.38403
					L559.30878,315.84644z"/>
				<path class="st0" d="M612.63074,315.84644v30.81137l-26.65381,15.38403l-26.66302-15.38403v-30.81137l26.65387-15.38403
					L612.63074,315.84644z"/>
				<path class="st0" d="M505.92899,315.84644v30.81137l-26.65387,15.38403l-26.66299-15.38403v-30.81137l26.65384-15.38403
					L505.92899,315.84644z"/>
				<path class="st0" d="M612.62097,315.84644v30.81137l-26.65387,15.38403l-26.66296-15.38403v-30.81137l26.65381-15.38403
					L612.62097,315.84644z"/>
				<path class="st0" d="M639.28912,362.04187l-26.66302-15.38403v-30.81137l26.65387-15.38403L639.28912,362.04187z"/>
				<path class="st0" d="M639.28912,362.04187l-26.66302-15.38403v-30.81137l26.65387-15.38403L639.28912,362.04187z"/>
				<path class="st0" d="M532.65265,269.65894v30.81137l-26.65381,15.38406l-26.66299-15.38406v-30.81137l26.65384-15.38405
					L532.65265,269.65894z"/>
				<path class="st0" d="M585.97467,269.65894v30.81137l-26.65387,15.38406l-26.66302-15.38406v-30.81137l26.65387-15.38405
					L585.97467,269.65894z"/>
				<path class="st0" d="M479.27286,269.65894v30.81137l-26.65384,15.38406l-26.66299-15.38406v-30.81137l26.65384-15.38405
					L479.27286,269.65894z"/>
				<path class="st0" d="M585.9649,269.65894v30.81137l-26.65393,15.38406l-26.66296-15.38406v-30.81137l26.65381-15.38405
					L585.9649,269.65894z"/>
				<path class="st0" d="M639.28687,269.65894v30.81137l-26.65393,15.38406l-26.66296-15.38406v-30.81137l26.65381-15.38405
					L639.28687,269.65894z"/>
				<path class="st0" d="M639.28687,269.65894v30.81137l-26.65393,15.38406l-26.66296-15.38406v-30.81137l26.65381-15.38405
					L639.28687,269.65894z"/>
				<path class="st0" d="M532.65265,454.42349v25.478h-53.31686v-25.478l26.65387-15.38403L532.65265,454.42349z"/>
				<path class="st0" d="M585.97467,454.42349v25.478h-53.31689v-25.478l26.65381-15.38403L585.97467,454.42349z"/>
				<path class="st0" d="M479.27286,454.42349v25.478h-53.31689v-25.478l26.65384-15.38403L479.27286,454.42349z"/>
				<path class="st0" d="M585.9649,454.42349v25.478h-53.31689v-25.478l26.65381-15.38403L585.9649,454.42349z"/>
				<path class="st0" d="M639.28687,454.42349v25.478h-53.31689v-25.478l26.65381-15.38403L639.28687,454.42349z"/>
				<path class="st0" d="M639.28687,454.42349v25.478h-53.31689v-25.478l26.65381-15.38403L639.28687,454.42349z"/>
				<path class="st0" d="M559.30878,131.07968v30.81136l-26.65387,15.38406l-26.66299-15.38406v-30.81136l26.65384-15.38405
					L559.30878,131.07968z"/>
				<path class="st0" d="M612.63074,131.07968v30.81136l-26.65381,15.38406l-26.66302-15.38406v-30.81136l26.65387-15.38405
					L612.63074,131.07968z"/>
				<path class="st0" d="M505.92899,131.07968v30.81136l-26.65387,15.38406l-26.66299-15.38406v-30.81136l26.65384-15.38405
					L505.92899,131.07968z"/>
				<path class="st0" d="M612.62097,131.07968v30.81136L585.9671,177.2751l-26.66296-15.38406v-30.81136l26.65381-15.38405
					L612.62097,131.07968z"/>
				<path class="st0" d="M639.28912,177.2751l-26.66302-15.38406v-30.81136l26.65387-15.38405L639.28912,177.2751z"/>
				<path class="st0" d="M639.28912,177.2751l-26.66302-15.38406v-30.81136l26.65387-15.38405L639.28912,177.2751z"/>
				<path class="st0" d="M532.65265,84.89215v30.81136l-26.65381,15.38404l-26.66299-15.38404V84.89215l26.65384-15.38403
					L532.65265,84.89215z"/>
				<path class="st0" d="M585.97467,84.89215v30.81136l-26.65387,15.38404l-26.66302-15.38404V84.89215l26.65387-15.38403
					L585.97467,84.89215z"/>
				<path class="st0" d="M479.27286,84.89215v30.81136l-26.65384,15.38404l-26.66299-15.38404V84.89215l26.65384-15.38403
					L479.27286,84.89215z"/>
				<path class="st0" d="M585.9649,84.89215v30.81136l-26.65393,15.38404l-26.66296-15.38404V84.89215l26.65381-15.38403
					L585.9649,84.89215z"/>
				<path class="st0" d="M639.28687,84.89215v30.81136l-26.65393,15.38404l-26.66296-15.38404V84.89215l26.65381-15.38403
					L639.28687,84.89215z"/>
				<path class="st0" d="M639.28687,84.89215v30.81136l-26.65393,15.38404l-26.66296-15.38404V84.89215l26.65381-15.38403
					L639.28687,84.89215z"/>
			</g>
		</g>
		<path class="st1" d="M25.23305-0.78826v479.3161"/>
		<path class="st1" d="M425.66895,478.52783V-2.12161"/>
	</g>
</g>
</svg>
