<?xml version="1.0" encoding="utf-8"?>
<!-- Generator: Adobe Illustrator 26.0.0, SVG Export Plug-In . SVG Version: 6.00 Build 0)  -->
<svg version="1.1" id="图层_1" xmlns="http://www.w3.org/2000/svg" xmlns:xlink="http://www.w3.org/1999/xlink" x="0px" y="0px"
	 width="20px" height="20px" viewBox="0 0 20 20" style="enable-background:new 0 0 20 20;" xml:space="preserve">
<style type="text/css">
	.st0{fill:#F3F3F3;stroke:#9A9A9A;stroke-width:1.5;stroke-miterlimit:10;}
	.st1{fill:none;stroke:#9A9A9A;stroke-width:1.25;stroke-linecap:round;stroke-miterlimit:10;}
	.st2{fill:none;stroke:#D9D9D9;stroke-width:0.75;stroke-miterlimit:10;}
	.st3{fill:none;stroke:#CCCCCC;stroke-width:0.5;stroke-linecap:round;stroke-miterlimit:10;}
	.st4{fill:none;stroke:url(#SVGID_1_);stroke-linecap:round;stroke-miterlimit:10;}
	
		.st5{fill:none;stroke:url(#SVGID_00000049208802335962105520000013036346532283143596_);stroke-width:0.6;stroke-linecap:round;stroke-miterlimit:10;}
	
		.st6{fill:none;stroke:url(#SVGID_00000176730532391202107030000006576309205753372339_);stroke-width:0.8;stroke-linecap:round;stroke-miterlimit:10;}
	
		.st7{fill:none;stroke:url(#SVGID_00000138564137878579893340000006270596873147642029_);stroke-width:0.5;stroke-linecap:round;stroke-miterlimit:10;}
	
		.st8{fill:none;stroke:url(#SVGID_00000049222595670556021950000018071615073014533802_);stroke-width:0.4;stroke-linecap:round;stroke-miterlimit:10;}
	
		.st9{fill:none;stroke:url(#SVGID_00000051345993998623730890000006505323803669307545_);stroke-width:0.3;stroke-linecap:round;stroke-miterlimit:10;}
</style>
<g>
	<path class="st0" d="M4.1,9.9c0-3.2,2.6-5.8,5.8-5.8c3.2,0,5.8,2.6,5.8,5.8s-2.6,5.8-5.8,5.8C6.7,15.7,4.1,13.1,4.1,9.9z"/>
	<g>
		<path class="st1" d="M12,6.9H7.9"/>
		<path class="st1" d="M7.1,11.4c0-1.5,1.3-2.8,2.8-2.8s2.8,1.3,2.8,2.8"/>
		<path class="st1" d="M9.9,7v6.2"/>
	</g>
	<path class="st2" d="M4.1,9.9c0-3.2,2.6-5.8,5.8-5.8c3.2,0,5.8,2.6,5.8,5.8s-2.6,5.8-5.8,5.8C6.7,15.7,4.1,13.1,4.1,9.9z"/>
	<g>
		<path class="st3" d="M12,6.9H7.9"/>
		<path class="st3" d="M7.1,11.4c0-1.5,1.3-2.8,2.8-2.8c1.5,0,2.8,1.3,2.8,2.8"/>
		<path class="st3" d="M9.9,13.2V7"/>
	</g>
</g>
<g>
	
		<radialGradient id="SVGID_1_" cx="148.6453" cy="-72.9913" r="4.6403" gradientTransform="matrix(1 0 0 -1 -140.3125 -57.6875)" gradientUnits="userSpaceOnUse">
		<stop  offset="0" style="stop-color:#008CFF;stop-opacity:0.502"/>
		<stop  offset="1" style="stop-color:#008CFF;stop-opacity:0.2039"/>
	</radialGradient>
	<path class="st4" d="M3.7,16.1L6,16.5l1.1-2.1L9,13.7l1.5,1.6l1-0.7l1.6,0.2"/>
	
		<radialGradient id="SVGID_00000094579489966192975530000012939962350687753865_" cx="144.3356" cy="-63.5645" r="4.1877" gradientTransform="matrix(1 0 0 -1 -140.3125 -57.6875)" gradientUnits="userSpaceOnUse">
		<stop  offset="0" style="stop-color:#008CFF;stop-opacity:0.502"/>
		<stop  offset="1" style="stop-color:#008CFF;stop-opacity:0"/>
	</radialGradient>
	
		<path style="fill:none;stroke:url(#SVGID_00000094579489966192975530000012939962350687753865_);stroke-width:0.6;stroke-linecap:round;stroke-miterlimit:10;" d="
		M1.5,8.4l1.3-0.8L2.1,5.7l1.4-0.3l0.9-1.5L5.2,4l1.3-0.7"/>
	
		<radialGradient id="SVGID_00000124860047444490916370000002743540689857013430_" cx="156.8968" cy="-64.4232" r="4.1877" gradientTransform="matrix(1 0 0 -1 -140.3125 -57.6875)" gradientUnits="userSpaceOnUse">
		<stop  offset="0" style="stop-color:#008CFF;stop-opacity:0.502"/>
		<stop  offset="1" style="stop-color:#008CFF;stop-opacity:0.2039"/>
	</radialGradient>
	
		<path style="fill:none;stroke:url(#SVGID_00000124860047444490916370000002743540689857013430_);stroke-width:0.8;stroke-linecap:round;stroke-miterlimit:10;" d="
		M13,7.3l1.4-0.4l0.7-1.5l1.3,0.6l1.2-0.6l0.7,0.6l-0.8,1.7"/>
	
		<radialGradient id="SVGID_00000044879581538568298710000016363312739039991454_" cx="148.6453" cy="-72.9913" r="4.6403" gradientTransform="matrix(1 0 0 -1 -140.3125 -57.6875)" gradientUnits="userSpaceOnUse">
		<stop  offset="0" style="stop-color:#FFFFFF;stop-opacity:0.8"/>
		<stop  offset="1" style="stop-color:#FFFFFF;stop-opacity:0.2039"/>
	</radialGradient>
	
		<path style="fill:none;stroke:url(#SVGID_00000044879581538568298710000016363312739039991454_);stroke-width:0.5;stroke-linecap:round;stroke-miterlimit:10;" d="
		M3.7,16.1L6,16.5l1.1-2.1L9,13.7l1.5,1.6l1-0.7l1.6,0.2"/>
	
		<radialGradient id="SVGID_00000121983755040751449540000005680858756919173009_" cx="156.8968" cy="-64.4232" r="4.1877" gradientTransform="matrix(1 0 0 -1 -140.3125 -57.6875)" gradientUnits="userSpaceOnUse">
		<stop  offset="0" style="stop-color:#FFFFFF;stop-opacity:0.8"/>
		<stop  offset="1" style="stop-color:#FFFFFF;stop-opacity:0.2039"/>
	</radialGradient>
	
		<path style="fill:none;stroke:url(#SVGID_00000121983755040751449540000005680858756919173009_);stroke-width:0.4;stroke-linecap:round;stroke-miterlimit:10;" d="
		M13,7.3l1.4-0.4l0.7-1.5l1.3,0.6l1.2-0.6l0.7,0.6l-0.8,1.7"/>
	
		<radialGradient id="SVGID_00000022547500731788273330000006760221098166529437_" cx="144.3356" cy="-63.5645" r="4.1877" gradientTransform="matrix(1 0 0 -1 -140.3125 -57.6875)" gradientUnits="userSpaceOnUse">
		<stop  offset="0" style="stop-color:#FFFFFF;stop-opacity:0.8"/>
		<stop  offset="1" style="stop-color:#FFFFFF;stop-opacity:0.2"/>
	</radialGradient>
	
		<path style="fill:none;stroke:url(#SVGID_00000022547500731788273330000006760221098166529437_);stroke-width:0.3;stroke-linecap:round;stroke-miterlimit:10;" d="
		M1.5,8.4l1.3-0.8L2.1,5.7l1.4-0.3l0.9-1.5L5.2,4l1.3-0.7"/>
</g>
</svg>
