<?xml version="1.0" encoding="utf-8"?>
<!-- Generator: Adobe Illustrator 26.0.0, SVG Export Plug-In . SVG Version: 6.00 Build 0)  -->
<svg version="1.1" id="图层_1" xmlns="http://www.w3.org/2000/svg" xmlns:xlink="http://www.w3.org/1999/xlink" x="0px" y="0px"
	 width="19px" height="19px" viewBox="0 0 19 19" style="enable-background:new 0 0 19 19;" xml:space="preserve">
<style type="text/css">
	.st0{fill:url(#SVGID_1_);}
	.st1{fill:url(#SVGID_00000072267356275810786110000005068186678356686482_);}
	.st2{fill:#FF6666;}
	.st3{fill:url(#SVGID_00000019667039935264063860000005762640727143597204_);}
	.st4{fill:url(#SVGID_00000000196064293982683930000013249721851984669058_);}
	.st5{fill:url(#SVGID_00000015331237838785274960000012654604936295956369_);}
	.st6{fill:url(#SVGID_00000040544426714804174180000006459895021003361928_);}
	.st7{fill:url(#SVGID_00000163032024568010513790000010387282961158262914_);}
	.st8{fill:url(#SVGID_00000145756718397522180680000003851311016083529878_);}
	.st9{fill:url(#SVGID_00000026863917463186116840000010197297590488531851_);}
	.st10{fill:url(#SVGID_00000019678329392733547410000005360431699666400136_);}
</style>
<radialGradient id="SVGID_1_" cx="203.2937" cy="-121.3252" r="7.3911" gradientTransform="matrix(1 0 0 -1 -193.1748 -111.8252)" gradientUnits="userSpaceOnUse">
	<stop  offset="0" style="stop-color:#FF3333"/>
	<stop  offset="1" style="stop-color:#FF3333;stop-opacity:0"/>
</radialGradient>
<path class="st0" d="M2.7,9.5c0-4.1,3.3-7.4,7.4-7.4c4.1,0,7.4,3.3,7.4,7.4c0,4.1-3.3,7.4-7.4,7.4C6,16.9,2.7,13.6,2.7,9.5z"/>
<radialGradient id="SVGID_00000131325197894912734850000005047385273870144188_" cx="199.0591" cy="-121.3252" r="5.3607" gradientTransform="matrix(1 0 0 -1 -193.1748 -111.8252)" gradientUnits="userSpaceOnUse">
	<stop  offset="0" style="stop-color:#FF3333;stop-opacity:0.8"/>
	<stop  offset="1" style="stop-color:#FF3333;stop-opacity:0"/>
</radialGradient>
<path style="fill:url(#SVGID_00000131325197894912734850000005047385273870144188_);" d="M0.5,9.5c0-3,2.4-5.4,5.4-5.4
	c3,0,5.4,2.4,5.4,5.4c0,3-2.4,5.4-5.4,5.4C2.9,14.9,0.5,12.5,0.5,9.5z"/>
<path class="st2" d="M3,10.6C2.3,9.9,2.3,9.1,3,8.4l5.5-3.2c0.9-0.5,2-0.9,2.9,0l2.9,2.9c0.9,0.9,0.8,2,0,2.8l-2.9,2.9
	c-0.9,0.9-2.1,0.5-2.9,0L3,10.6z"/>
<g>
	
		<radialGradient id="SVGID_00000004539460994515200970000003392914877906027685_" cx="203.2371" cy="-121.3252" r="4.3721" gradientTransform="matrix(1 0 0 -1 -193.1748 -111.8252)" gradientUnits="userSpaceOnUse">
		<stop  offset="0" style="stop-color:#FFFFFF"/>
		<stop  offset="1" style="stop-color:#FFFFFF;stop-opacity:0"/>
	</radialGradient>
	<path style="fill:url(#SVGID_00000004539460994515200970000003392914877906027685_);" d="M5.7,9.5c0-2.4,2-4.4,4.4-4.4
		s4.4,2,4.4,4.4c0,2.4-2,4.4-4.4,4.4S5.7,11.9,5.7,9.5z"/>
	
		<radialGradient id="SVGID_00000129897744807563233700000011312241901992512182_" cx="203.2371" cy="-119.0202" r="2.0318" gradientTransform="matrix(1 0 0 -1 -193.1748 -111.8252)" gradientUnits="userSpaceOnUse">
		<stop  offset="0" style="stop-color:#FFFFFF;stop-opacity:0.6941"/>
		<stop  offset="1" style="stop-color:#FFFFFF;stop-opacity:0"/>
	</radialGradient>
	<path style="fill:url(#SVGID_00000129897744807563233700000011312241901992512182_);" d="M8,7.2c0-1.1,0.9-2,2-2c1.1,0,2,0.9,2,2
		c0,1.1-0.9,2-2,2C8.9,9.2,8,8.3,8,7.2z"/>
	
		<radialGradient id="SVGID_00000112604267679611284960000004351620005999322511_" cx="201.5737" cy="-121.3252" r="3.26" gradientTransform="matrix(1 0 0 -1 -193.1748 -111.8252)" gradientUnits="userSpaceOnUse">
		<stop  offset="0" style="stop-color:#FFFFFF;stop-opacity:0.8"/>
		<stop  offset="1" style="stop-color:#FFFFFF;stop-opacity:0"/>
	</radialGradient>
	<path style="fill:url(#SVGID_00000112604267679611284960000004351620005999322511_);" d="M8.4,12.8c-1.8,0-3.3-1.5-3.3-3.3
		s1.5-3.3,3.3-3.3s3.3,1.5,3.3,3.3S10.2,12.8,8.4,12.8z"/>
	
		<radialGradient id="SVGID_00000178203186372007276680000006382721594383248058_" cx="199.484" cy="-121.3252" r="2.372" gradientTransform="matrix(1 0 0 -1 -193.1748 -111.8252)" gradientUnits="userSpaceOnUse">
		<stop  offset="0" style="stop-color:#FFFFFF;stop-opacity:0.6941"/>
		<stop  offset="1" style="stop-color:#FFFFFF;stop-opacity:0"/>
	</radialGradient>
	<path style="fill:url(#SVGID_00000178203186372007276680000006382721594383248058_);" d="M6.3,11.9c-1.3,0-2.4-1.1-2.4-2.4
		c0-1.3,1.1-2.4,2.4-2.4c1.3,0,2.4,1.1,2.4,2.4C8.7,10.8,7.6,11.9,6.3,11.9z"/>
	
		<radialGradient id="SVGID_00000108997038494385383450000017023539349466929556_" cx="198.3085" cy="-121.3252" r="1.8107" gradientTransform="matrix(1 0 0 -1 -193.1748 -111.8252)" gradientUnits="userSpaceOnUse">
		<stop  offset="0" style="stop-color:#FFFFFF;stop-opacity:0.5961"/>
		<stop  offset="1" style="stop-color:#FFFFFF;stop-opacity:0"/>
	</radialGradient>
	<path style="fill:url(#SVGID_00000108997038494385383450000017023539349466929556_);" d="M5.1,11.3c-1,0-1.8-0.8-1.8-1.8
		s0.8-1.8,1.8-1.8c1,0,1.8,0.8,1.8,1.8S6.1,11.3,5.1,11.3z"/>
	
		<radialGradient id="SVGID_00000157273070026796508550000012389012235500684216_" cx="203.2371" cy="-123.6301" r="2.0318" gradientTransform="matrix(1 0 0 -1 -193.1748 -111.8252)" gradientUnits="userSpaceOnUse">
		<stop  offset="0" style="stop-color:#FFFFFF;stop-opacity:0.6941"/>
		<stop  offset="1" style="stop-color:#FFFFFF;stop-opacity:0"/>
	</radialGradient>
	<path style="fill:url(#SVGID_00000157273070026796508550000012389012235500684216_);" d="M8,11.8c0-1.1,0.9-2,2-2c1.1,0,2,0.9,2,2
		c0,1.1-0.9,2-2,2C8.9,13.8,8,12.9,8,11.8z"/>
	
		<radialGradient id="SVGID_00000169542613411587816570000002040089346014066099_" cx="205.5421" cy="-121.3252" r="2.0318" gradientTransform="matrix(1 0 0 -1 -193.1748 -111.8252)" gradientUnits="userSpaceOnUse">
		<stop  offset="0" style="stop-color:#FFFFFF;stop-opacity:0.6941"/>
		<stop  offset="1" style="stop-color:#FFFFFF;stop-opacity:0"/>
	</radialGradient>
	<path style="fill:url(#SVGID_00000169542613411587816570000002040089346014066099_);" d="M12.4,11.5c-1.1,0-2-0.9-2-2
		c0-1.1,0.9-2,2-2c1.1,0,2,0.9,2,2C14.4,10.6,13.5,11.5,12.4,11.5z"/>
	
		<radialGradient id="SVGID_00000007411019157704612490000005343544421128208001_" cx="203.6372" cy="-121.3252" r="3.5695" gradientTransform="matrix(1 0 0 -1 -193.1748 -111.8252)" gradientUnits="userSpaceOnUse">
		<stop  offset="0" style="stop-color:#FFFFFF"/>
		<stop  offset="1" style="stop-color:#FFFFFF;stop-opacity:0"/>
	</radialGradient>
	<path style="fill:url(#SVGID_00000007411019157704612490000005343544421128208001_);" d="M6.9,9.5c0-2,1.6-3.6,3.6-3.6
		S14,7.5,14,9.5s-1.6,3.6-3.6,3.6S6.9,11.5,6.9,9.5z"/>
</g>
</svg>
