<?xml version="1.0" encoding="utf-8"?>
<!-- Generator: Adobe Illustrator 26.0.0, SVG Export Plug-In . SVG Version: 6.00 Build 0)  -->
<svg version="1.1" id="图层_1" xmlns="http://www.w3.org/2000/svg" xmlns:xlink="http://www.w3.org/1999/xlink" x="0px" y="0px"
	 width="30px" height="30px" viewBox="0 0 30 30" style="enable-background:new 0 0 30 30;" xml:space="preserve">
<style type="text/css">
	.st0{fill:url(#SVGID_1_);}
	.st1{fill:url(#SVGID_00000098933137454548947020000003743294693856857509_);}
	.st2{fill:url(#SVGID_00000067942588771016831240000008477023656196492433_);}
	.st3{fill:#FF6666;}
	.st4{fill:url(#SVGID_00000014604382129503068550000017473268867997700518_);}
	.st5{fill:url(#SVGID_00000111182633084008484720000016398927132924400560_);}
	.st6{fill:url(#SVGID_00000026131214467525955980000003853506679234684800_);}
	.st7{fill:url(#SVGID_00000004521723186136824820000002671461518706239883_);}
	.st8{fill:url(#SVGID_00000098942971253384692360000003924275868809348265_);}
</style>
<g>
	
		<radialGradient id="SVGID_1_" cx="149.2445" cy="-62.6875" r="7.871" gradientTransform="matrix(1 0 0 -1 -140.3125 -47.6875)" gradientUnits="userSpaceOnUse">
		<stop  offset="0" style="stop-color:#FF3333"/>
		<stop  offset="1" style="stop-color:#FF3333;stop-opacity:0"/>
	</radialGradient>
	<path class="st0" d="M16.8,15c0,4.3-3.5,7.8-7.9,7.8c-4.3,0-7.9-3.5-7.9-7.8c0-4.3,3.5-7.8,7.9-7.8S16.8,10.7,16.8,15z"/>
	
		<radialGradient id="SVGID_00000134229189239984181140000005410050158907703701_" cx="161.3805" cy="-62.6875" r="7.871" gradientTransform="matrix(1 0 0 -1 -140.3125 -47.6875)" gradientUnits="userSpaceOnUse">
		<stop  offset="0" style="stop-color:#FF3333"/>
		<stop  offset="1" style="stop-color:#FF3333;stop-opacity:0"/>
	</radialGradient>
	<path style="fill:url(#SVGID_00000134229189239984181140000005410050158907703701_);" d="M28.9,15c0,4.3-3.5,7.8-7.9,7.8
		c-4.3,0-7.9-3.5-7.9-7.8c0-4.3,3.5-7.8,7.9-7.8C25.4,7.2,28.9,10.7,28.9,15z"/>
	
		<radialGradient id="SVGID_00000136370461551773873280000000424810311938022531_" cx="155.3125" cy="-62.6876" r="10.3032" gradientTransform="matrix(1 0 0 -1 -140.3125 -47.6875)" gradientUnits="userSpaceOnUse">
		<stop  offset="0" style="stop-color:#FF3333"/>
		<stop  offset="1" style="stop-color:#FF3333;stop-opacity:0"/>
	</radialGradient>
	<path style="fill:url(#SVGID_00000136370461551773873280000000424810311938022531_);" d="M25.3,15c0,5.6-4.6,10.2-10.3,10.2
		C9.3,25.2,4.7,20.6,4.7,15C4.7,9.4,9.3,4.8,15,4.8C20.7,4.8,25.3,9.4,25.3,15L25.3,15z"/>
</g>
<path class="st3" d="M4.7,15c0-3.2,4.6-5.8,10.3-5.8s10.3,2.6,10.3,5.8c0,3.2-4.6,5.8-10.3,5.8C9.3,20.8,4.7,18.2,4.7,15z"/>
<g>
	
		<radialGradient id="SVGID_00000034071080651473235470000013872517636789452990_" cx="155.3125" cy="-62.6875" r="6.957" gradientTransform="matrix(1 0 0 -1 -140.3125 -47.6875)" gradientUnits="userSpaceOnUse">
		<stop  offset="0" style="stop-color:#FFFFFF"/>
		<stop  offset="1" style="stop-color:#FFFFFF;stop-opacity:0"/>
	</radialGradient>
	<path style="fill:url(#SVGID_00000034071080651473235470000013872517636789452990_);" d="M22,15c0,3.8-3.1,6.9-7,6.9S8,18.8,8,15
		c0-3.8,3.1-6.9,7-6.9C18.8,8.1,22,11.2,22,15L22,15z"/>
	
		<radialGradient id="SVGID_00000167381469321984825080000016625110855416949408_" cx="151.6761" cy="-62.6875" r="5.283" gradientTransform="matrix(1 0 0 -1 -140.3125 -47.6875)" gradientUnits="userSpaceOnUse">
		<stop  offset="0" style="stop-color:#FFFFFF"/>
		<stop  offset="1" style="stop-color:#FFFFFF;stop-opacity:0"/>
	</radialGradient>
	<path style="fill:url(#SVGID_00000167381469321984825080000016625110855416949408_);" d="M16.6,15c0,2.9-2.4,5.2-5.3,5.2
		c-2.9,0-5.3-2.3-5.3-5.2s2.4-5.2,5.3-5.2C14.3,9.8,16.6,12.1,16.6,15L16.6,15z"/>
	
		<radialGradient id="SVGID_00000008831211428565187540000017491656149699667610_" cx="158.9489" cy="-62.6875" r="5.283" gradientTransform="matrix(1 0 0 -1 -140.3125 -47.6875)" gradientUnits="userSpaceOnUse">
		<stop  offset="0" style="stop-color:#FFFFFF"/>
		<stop  offset="1" style="stop-color:#FFFFFF;stop-opacity:0"/>
	</radialGradient>
	<path style="fill:url(#SVGID_00000008831211428565187540000017491656149699667610_);" d="M23.9,15c0,2.9-2.4,5.2-5.3,5.2
		s-5.3-2.3-5.3-5.2s2.4-5.2,5.3-5.2C21.6,9.8,23.9,12.1,23.9,15L23.9,15z"/>
	
		<radialGradient id="SVGID_00000069392345702043498240000007825053858410893445_" cx="148.8021" cy="-62.6875" r="3.6598" gradientTransform="matrix(1 0 0 -1 -140.3125 -47.6875)" gradientUnits="userSpaceOnUse">
		<stop  offset="0" style="stop-color:#FFFFFF"/>
		<stop  offset="1" style="stop-color:#FFFFFF;stop-opacity:0"/>
	</radialGradient>
	<path style="fill:url(#SVGID_00000069392345702043498240000007825053858410893445_);" d="M12.1,15c0,2-1.6,3.6-3.7,3.6
		S4.8,17,4.8,15s1.6-3.6,3.7-3.6C10.5,11.4,12.1,13,12.1,15z"/>
	
		<radialGradient id="SVGID_00000047031402191156230790000001648318959919259784_" cx="161.823" cy="-62.6875" r="3.6598" gradientTransform="matrix(1 0 0 -1 -140.3125 -47.6875)" gradientUnits="userSpaceOnUse">
		<stop  offset="0" style="stop-color:#FFFFFF"/>
		<stop  offset="1" style="stop-color:#FFFFFF;stop-opacity:0"/>
	</radialGradient>
	<path style="fill:url(#SVGID_00000047031402191156230790000001648318959919259784_);" d="M25.2,15c0,2-1.6,3.6-3.7,3.6
		c-2,0-3.7-1.6-3.7-3.6s1.6-3.6,3.7-3.6S25.2,13,25.2,15z"/>
</g>
</svg>
