<?xml version="1.0" encoding="utf-8"?>
<!-- Generator: Adobe Illustrator 26.0.0, SVG Export Plug-In . SVG Version: 6.00 Build 0)  -->
<svg version="1.1" id="图层_1" xmlns="http://www.w3.org/2000/svg" xmlns:xlink="http://www.w3.org/1999/xlink" x="0px" y="0px"
	 width="22px" height="22px" viewBox="0 0 22 22" style="enable-background:new 0 0 22 22;" xml:space="preserve">
<style type="text/css">
	.st0{fill:url(#SVGID_1_);}
	.st1{fill:url(#SVGID_00000114765067048438384930000007624263997803343520_);}
	.st2{fill:url(#SVGID_00000162328931744402512360000014721352383962001322_);}
	.st3{fill:url(#SVGID_00000009578143451757980620000007901386235243920800_);}
	.st4{fill:url(#SVGID_00000170266408639968499550000002706842996797520306_);}
	.st5{fill:url(#SVGID_00000040571224451086436110000018049472099262021020_);}
	.st6{fill:url(#SVGID_00000007418489189197799870000011083366724003540152_);}
	.st7{fill:url(#SVGID_00000158008683124608102930000012470314584726919051_);}
	.st8{fill:url(#SVGID_00000030459512302111604940000003782945309441549962_);}
</style>
<radialGradient id="SVGID_1_" cx="46.3125" cy="38.3125" r="10" gradientTransform="matrix(1 0 0 -1 -35.3125 49.3125)" gradientUnits="userSpaceOnUse">
	<stop  offset="0" style="stop-color:#FF3333"/>
	<stop  offset="1" style="stop-color:#FF3333;stop-opacity:0"/>
</radialGradient>
<path class="st0" d="M1,11C1,5.5,5.5,1,11,1c5.5,0,10,4.5,10,10c0,5.5-4.5,10-10,10C5.5,21,1,16.5,1,11z"/>
<radialGradient id="SVGID_00000080923746419117179690000017822799875202136728_" cx="49.0347" cy="41.9792" r="6.7222" gradientTransform="matrix(1 0 0 -1 -35.3125 49.3125)" gradientUnits="userSpaceOnUse">
	<stop  offset="0" style="stop-color:#FF3333;stop-opacity:0.8"/>
	<stop  offset="1" style="stop-color:#FF3333;stop-opacity:0"/>
</radialGradient>
<path style="fill:url(#SVGID_00000080923746419117179690000017822799875202136728_);" d="M7,7.3c0-3.7,3-6.7,6.7-6.7
	c3.7,0,6.7,3,6.7,6.7c0,3.7-3,6.7-6.7,6.7C10,14.1,7,11,7,7.3z"/>
<radialGradient id="SVGID_00000091727845939099709230000004321129302826755503_" cx="47.8125" cy="34.0347" r="5.6667" gradientTransform="matrix(1 0 0 -1 -35.3125 49.3125)" gradientUnits="userSpaceOnUse">
	<stop  offset="0" style="stop-color:#FF3333;stop-opacity:0.8"/>
	<stop  offset="1" style="stop-color:#FF3333;stop-opacity:0"/>
</radialGradient>
<path style="fill:url(#SVGID_00000091727845939099709230000004321129302826755503_);" d="M6.8,15.3c0-3.1,2.5-5.7,5.7-5.7
	c3.1,0,5.7,2.5,5.7,5.7s-2.5,5.7-5.7,5.7C9.4,20.9,6.8,18.4,6.8,15.3z"/>
<radialGradient id="SVGID_00000146480290841078169010000014384179890590579881_" cx="41.0069" cy="38.7847" r="5.25" gradientTransform="matrix(1 0 0 -1 -35.3125 49.3125)" gradientUnits="userSpaceOnUse">
	<stop  offset="0" style="stop-color:#FF3333;stop-opacity:0.8"/>
	<stop  offset="1" style="stop-color:#FF3333;stop-opacity:0"/>
</radialGradient>
<path style="fill:url(#SVGID_00000146480290841078169010000014384179890590579881_);" d="M0.4,10.5c0-2.9,2.4-5.2,5.2-5.2
	c2.9,0,5.2,2.4,5.2,5.2c0,2.9-2.4,5.2-5.2,5.2C2.8,15.8,0.4,13.4,0.4,10.5z"/>
<g>
	
		<radialGradient id="SVGID_00000042000644371881838410000014410913638626138545_" cx="46.3125" cy="38.3125" r="6.1865" gradientTransform="matrix(1 0 0 -1 -35.3125 49.3125)" gradientUnits="userSpaceOnUse">
		<stop  offset="0" style="stop-color:#FFFFFF"/>
		<stop  offset="1" style="stop-color:#FFFFFF;stop-opacity:0"/>
	</radialGradient>
	<path style="fill:url(#SVGID_00000042000644371881838410000014410913638626138545_);" d="M4.8,11c0-3.4,2.8-6.2,6.2-6.2
		c3.4,0,6.2,2.8,6.2,6.2c0,3.4-2.8,6.2-6.2,6.2C7.6,17.2,4.8,14.4,4.8,11z"/>
	
		<radialGradient id="SVGID_00000127027513092714806080000006707432264438489521_" cx="46.3125" cy="38.3125" r="6.1865" gradientTransform="matrix(1 0 0 -1 -35.3125 49.3125)" gradientUnits="userSpaceOnUse">
		<stop  offset="0" style="stop-color:#FFFFFF"/>
		<stop  offset="1" style="stop-color:#FFFFFF;stop-opacity:0"/>
	</radialGradient>
	<path style="fill:url(#SVGID_00000127027513092714806080000006707432264438489521_);" d="M4.8,11c0-3.4,2.8-6.2,6.2-6.2
		c3.4,0,6.2,2.8,6.2,6.2c0,3.4-2.8,6.2-6.2,6.2C7.6,17.2,4.8,14.4,4.8,11z"/>
	
		<radialGradient id="SVGID_00000152974385327627471580000010269274920053067710_" cx="46.3125" cy="38.3125" r="6.1865" gradientTransform="matrix(1 0 0 -1 -35.3125 49.3125)" gradientUnits="userSpaceOnUse">
		<stop  offset="0" style="stop-color:#FFFFFF"/>
		<stop  offset="1" style="stop-color:#FFFFFF;stop-opacity:0"/>
	</radialGradient>
	<path style="fill:url(#SVGID_00000152974385327627471580000010269274920053067710_);" d="M4.8,11c0-3.4,2.8-6.2,6.2-6.2
		c3.4,0,6.2,2.8,6.2,6.2c0,3.4-2.8,6.2-6.2,6.2C7.6,17.2,4.8,14.4,4.8,11z"/>
	
		<radialGradient id="SVGID_00000037684541780678713590000009382684646836194743_" cx="46.3125" cy="38.3125" r="6.1865" gradientTransform="matrix(1 0 0 -1 -35.3125 49.3125)" gradientUnits="userSpaceOnUse">
		<stop  offset="0" style="stop-color:#FFFFFF"/>
		<stop  offset="1" style="stop-color:#FFFFFF;stop-opacity:0"/>
	</radialGradient>
	<path style="fill:url(#SVGID_00000037684541780678713590000009382684646836194743_);" d="M4.8,11c0-3.4,2.8-6.2,6.2-6.2
		c3.4,0,6.2,2.8,6.2,6.2c0,3.4-2.8,6.2-6.2,6.2C7.6,17.2,4.8,14.4,4.8,11z"/>
	
		<radialGradient id="SVGID_00000158747898034355237690000002982370624098036362_" cx="46.3125" cy="38.3125" r="6.1865" gradientTransform="matrix(1 0 0 -1 -35.3125 49.3125)" gradientUnits="userSpaceOnUse">
		<stop  offset="0" style="stop-color:#FFFFFF"/>
		<stop  offset="1" style="stop-color:#FFFFFF;stop-opacity:0"/>
	</radialGradient>
	<path style="fill:url(#SVGID_00000158747898034355237690000002982370624098036362_);" d="M4.8,11c0-3.4,2.8-6.2,6.2-6.2
		c3.4,0,6.2,2.8,6.2,6.2c0,3.4-2.8,6.2-6.2,6.2C7.6,17.2,4.8,14.4,4.8,11z"/>
</g>
</svg>
