<?xml version="1.0" encoding="utf-8"?>
<!-- Generator: Adobe Illustrator 26.0.0, SVG Export Plug-In . SVG Version: 6.00 Build 0)  -->
<svg version="1.1" id="图层_1" xmlns="http://www.w3.org/2000/svg" xmlns:xlink="http://www.w3.org/1999/xlink" x="0px" y="0px"
	 width="16px" height="16px" viewBox="0 0 16 16" style="enable-background:new 0 0 16 16;" xml:space="preserve">
<style type="text/css">
	.st0{fill:url(#SVGID_1_);}
	.st1{fill:url(#SVGID_00000119827143331605002850000013454018950947465874_);}
	.st2{fill:url(#SVGID_00000059288939417010367040000016771871614006858661_);}
	.st3{fill:#FF6666;}
	.st4{fill:url(#SVGID_00000178908505382093873960000004258575106290797240_);}
	.st5{fill:url(#SVGID_00000016755818633320212830000010297078300241155474_);}
	.st6{fill:url(#SVGID_00000178194263821868804120000016691028369612123305_);}
	.st7{fill:url(#SVGID_00000092430950928681132730000003180209998661333172_);}
	.st8{fill:url(#SVGID_00000101803990790176269740000001685378241892157111_);}
	.st9{fill:url(#SVGID_00000078746760331370558170000004349155465188841361_);}
</style>
<g>
	
		<radialGradient id="SVGID_1_" cx="198.0999" cy="-122.8252" r="3.9885" gradientTransform="matrix(1 0 0 -1 -193.1748 -114.8252)" gradientUnits="userSpaceOnUse">
		<stop  offset="0" style="stop-color:#FF3333"/>
		<stop  offset="1" style="stop-color:#FF3333;stop-opacity:0"/>
	</radialGradient>
	<path class="st0" d="M8.9,8c0,2.2-1.8,3.9-4,3.9c-2.2,0-4-1.8-4-3.9s1.8-3.9,4-3.9C7.1,4.1,8.9,5.8,8.9,8z"/>
	
		<radialGradient id="SVGID_00000028294380900421617260000007253016096609301891_" cx="204.2497" cy="-122.8252" r="3.9885" gradientTransform="matrix(1 0 0 -1 -193.1748 -114.8252)" gradientUnits="userSpaceOnUse">
		<stop  offset="0" style="stop-color:#FF3333"/>
		<stop  offset="1" style="stop-color:#FF3333;stop-opacity:0"/>
	</radialGradient>
	<path style="fill:url(#SVGID_00000028294380900421617260000007253016096609301891_);" d="M15.1,8c0,2.2-1.8,3.9-4,3.9
		c-2.2,0-4-1.8-4-3.9s1.8-3.9,4-3.9C13.3,4.1,15.1,5.8,15.1,8z"/>
	
		<radialGradient id="SVGID_00000026853737791635169160000015133738702126843293_" cx="201.1748" cy="-122.8252" r="5.5709" gradientTransform="matrix(1 0 0 -1 -193.1748 -114.8252)" gradientUnits="userSpaceOnUse">
		<stop  offset="0" style="stop-color:#FF3333"/>
		<stop  offset="1" style="stop-color:#FF3333;stop-opacity:0"/>
	</radialGradient>
	<path style="fill:url(#SVGID_00000026853737791635169160000015133738702126843293_);" d="M13.6,8c0,3-2.5,5.5-5.6,5.5
		C4.9,13.5,2.4,11,2.4,8c0-3,2.5-5.5,5.6-5.5S13.6,5,13.6,8L13.6,8z"/>
</g>
<path class="st3" d="M2.3,8c0-1.4,3.5-3.1,5.7-3.1c2.3,0,5.7,1.8,5.7,3.1c0,1.3-3.5,3.1-5.7,3.1C5.7,11.1,2.3,9.4,2.3,8z"/>
<g>
	
		<radialGradient id="SVGID_00000164475531399359591920000011939007041564288640_" cx="201.1748" cy="-122.8252" r="3.254" gradientTransform="matrix(1 0 0 -1 -193.1748 -114.8252)" gradientUnits="userSpaceOnUse">
		<stop  offset="0" style="stop-color:#FFFFFF"/>
		<stop  offset="1" style="stop-color:#FFFFFF;stop-opacity:0"/>
	</radialGradient>
	<path style="fill:url(#SVGID_00000164475531399359591920000011939007041564288640_);" d="M11.3,8c0,1.8-1.5,3.2-3.3,3.2
		c-1.8,0-3.3-1.4-3.3-3.2c0-1.8,1.5-3.2,3.3-3.2C9.8,4.8,11.3,6.2,11.3,8z"/>
	
		<radialGradient id="SVGID_00000142884190723905932730000012910159597476168119_" cx="201.1748" cy="-122.8252" r="2.9219" gradientTransform="matrix(1 0 0 -1 -193.1748 -114.8252)" gradientUnits="userSpaceOnUse">
		<stop  offset="0" style="stop-color:#FFFFFF"/>
		<stop  offset="1" style="stop-color:#FFFFFF;stop-opacity:0"/>
	</radialGradient>
	<path style="fill:url(#SVGID_00000142884190723905932730000012910159597476168119_);" d="M10.9,8c0,1.6-1.3,2.9-2.9,2.9
		c-1.6,0-2.9-1.3-2.9-2.9c0-1.6,1.3-2.9,2.9-2.9C9.6,5.1,10.9,6.4,10.9,8z"/>
	
		<radialGradient id="SVGID_00000067227583899653114850000003936434838058466193_" cx="198.8597" cy="-122.8252" r="2.6528" gradientTransform="matrix(1 0 0 -1 -193.1748 -114.8252)" gradientUnits="userSpaceOnUse">
		<stop  offset="0" style="stop-color:#FFFFFF"/>
		<stop  offset="1" style="stop-color:#FFFFFF;stop-opacity:0"/>
	</radialGradient>
	<path style="fill:url(#SVGID_00000067227583899653114850000003936434838058466193_);" d="M8.3,8c0,1.4-1.2,2.6-2.7,2.6
		C4.2,10.6,3,9.4,3,8c0-1.4,1.2-2.6,2.7-2.6S8.3,6.6,8.3,8z"/>
	
		<radialGradient id="SVGID_00000103250491857386965770000012110064187868802185_" cx="203.4899" cy="-122.8252" r="2.6528" gradientTransform="matrix(1 0 0 -1 -193.1748 -114.8252)" gradientUnits="userSpaceOnUse">
		<stop  offset="0" style="stop-color:#FFFFFF"/>
		<stop  offset="1" style="stop-color:#FFFFFF;stop-opacity:0"/>
	</radialGradient>
	<path style="fill:url(#SVGID_00000103250491857386965770000012110064187868802185_);" d="M13,8c0,1.4-1.2,2.6-2.7,2.6
		S7.7,9.4,7.7,8c0-1.4,1.2-2.6,2.7-2.6C11.8,5.4,13,6.6,13,8z"/>
	
		<radialGradient id="SVGID_00000181785275596166232540000014325434092220920501_" cx="197.7398" cy="-122.8252" r="1.7788" gradientTransform="matrix(1 0 0 -1 -193.1748 -114.8252)" gradientUnits="userSpaceOnUse">
		<stop  offset="0" style="stop-color:#FFFFFF;stop-opacity:0.8"/>
		<stop  offset="1" style="stop-color:#FFFFFF;stop-opacity:0"/>
	</radialGradient>
	<path style="fill:url(#SVGID_00000181785275596166232540000014325434092220920501_);" d="M6.3,8c0,1-0.8,1.8-1.8,1.8
		C3.6,9.8,2.8,9,2.8,8c0-1,0.8-1.8,1.8-1.8C5.5,6.2,6.3,7,6.3,8z"/>
	
		<radialGradient id="SVGID_00000090979009819933170020000014396214376446983868_" cx="204.5039" cy="-122.8252" r="1.8848" gradientTransform="matrix(1 0 0 -1 -193.1748 -114.8252)" gradientUnits="userSpaceOnUse">
		<stop  offset="0" style="stop-color:#FFFFFF;stop-opacity:0.8"/>
		<stop  offset="1" style="stop-color:#FFFFFF;stop-opacity:0"/>
	</radialGradient>
	<path style="fill:url(#SVGID_00000090979009819933170020000014396214376446983868_);" d="M13.2,8c0,1-0.8,1.9-1.9,1.9
		c-1,0-1.9-0.8-1.9-1.9c0-1,0.8-1.9,1.9-1.9C12.4,6.1,13.2,7,13.2,8z"/>
</g>
</svg>
