<?xml version="1.0" encoding="utf-8"?>
<!-- Generator: Adobe Illustrator 26.0.0, SVG Export Plug-In . SVG Version: 6.00 Build 0)  -->
<svg version="1.1" id="图层_1" xmlns="http://www.w3.org/2000/svg" xmlns:xlink="http://www.w3.org/1999/xlink" x="0px" y="0px"
	 width="36px" height="36px" viewBox="0 0 36 36" style="enable-background:new 0 0 36 36;" xml:space="preserve">
<style type="text/css">
	.st0{fill:none;stroke:#FF0000;stroke-width:5;stroke-miterlimit:10;stroke-opacity:0.102;}
	.st1{fill:none;stroke:#FF0000;stroke-width:4;stroke-miterlimit:10;stroke-opacity:0.102;}
	.st2{fill:none;stroke:#FF0000;stroke-width:3;stroke-miterlimit:10;stroke-opacity:0.102;}
	.st3{fill:none;stroke:#FF0000;stroke-width:2;stroke-miterlimit:10;stroke-opacity:0.102;}
	.st4{fill:none;stroke:#FF0000;stroke-miterlimit:10;stroke-opacity:0.102;}
	.st5{fill:url(#SVGID_1_);stroke:#2C2C2C;stroke-width:0.1;stroke-miterlimit:10;}
	.st6{fill:url(#SVGID_00000140717400657704274280000010103659390375450263_);}
	
		.st7{fill:url(#SVGID_00000104704390116211111970000013389445116222960263_);stroke:#2C2C2C;stroke-width:0.2;stroke-miterlimit:10;}
	.st8{fill:#E3E2F3;stroke:#B4B3C0;stroke-width:0.2;stroke-miterlimit:10;}
	
		.st9{fill:url(#SVGID_00000038396452221077220720000002232979835469885592_);stroke:#2C2C2C;stroke-width:0.2;stroke-miterlimit:10;}
</style>
<g>
	<path class="st0" d="M4,19.4c-0.5,0-0.9-1.4-0.9-1.4s0.4-1.4,0.9-1.4c0.3,0,0.2,0.2,0.4,0.2c0.8,0,6,0,6,0s0.9-1.8,1.6-1.8
		c0.6,0,0.8,0,1.2,0c0.5,0,0.7,0.4,0.7,0.7c0,0.1,0,0.5,0,0.7c0,0,10-0.7,11.7-0.6c2,0.2,5.3,2.2,5.3,2.2s-3,2.1-5.3,2.3
		c-1.7,0.1-11.7-0.6-11.7-0.6c0,0.1,0,0.4,0,0.5c0,0.5-0.3,0.8-0.8,0.8c-0.3,0-0.5,0-1.1,0c-0.9,0-1.6-1.8-1.6-1.8s-5.1,0-6,0
		C4.2,19.3,4.2,19.4,4,19.4L4,19.4z"/>
	<path class="st1" d="M4,19.4c-0.5,0-0.9-1.4-0.9-1.4s0.4-1.4,0.9-1.4c0.3,0,0.2,0.2,0.4,0.2c0.8,0,6,0,6,0s0.9-1.8,1.6-1.8
		c0.6,0,0.8,0,1.2,0c0.5,0,0.7,0.4,0.7,0.7c0,0.1,0,0.5,0,0.7c0,0,10-0.7,11.7-0.6c2,0.2,5.3,2.2,5.3,2.2s-3,2.1-5.3,2.3
		c-1.7,0.1-11.7-0.6-11.7-0.6c0,0.1,0,0.4,0,0.5c0,0.5-0.3,0.8-0.8,0.8c-0.3,0-0.5,0-1.1,0c-0.9,0-1.6-1.8-1.6-1.8s-5.1,0-6,0
		C4.2,19.3,4.2,19.4,4,19.4L4,19.4z"/>
	<path class="st2" d="M4,19.4c-0.5,0-0.9-1.4-0.9-1.4s0.4-1.4,0.9-1.4c0.3,0,0.2,0.2,0.4,0.2c0.8,0,6,0,6,0s0.9-1.8,1.6-1.8
		c0.6,0,0.8,0,1.2,0c0.5,0,0.7,0.4,0.7,0.7c0,0.1,0,0.5,0,0.7c0,0,10-0.7,11.7-0.6c2,0.2,5.3,2.2,5.3,2.2s-3,2.1-5.3,2.3
		c-1.7,0.1-11.7-0.6-11.7-0.6c0,0.1,0,0.4,0,0.5c0,0.5-0.3,0.8-0.8,0.8c-0.3,0-0.5,0-1.1,0c-0.9,0-1.6-1.8-1.6-1.8s-5.1,0-6,0
		C4.2,19.3,4.2,19.4,4,19.4L4,19.4z"/>
	<path class="st3" d="M4,19.4c-0.5,0-0.9-1.4-0.9-1.4s0.4-1.4,0.9-1.4c0.3,0,0.2,0.2,0.4,0.2c0.8,0,6,0,6,0s0.9-1.8,1.6-1.8
		c0.6,0,0.8,0,1.2,0c0.5,0,0.7,0.4,0.7,0.7c0,0.1,0,0.5,0,0.7c0,0,10-0.7,11.7-0.6c2,0.2,5.3,2.2,5.3,2.2s-3,2.1-5.3,2.3
		c-1.7,0.1-11.7-0.6-11.7-0.6c0,0.1,0,0.4,0,0.5c0,0.5-0.3,0.8-0.8,0.8c-0.3,0-0.5,0-1.1,0c-0.9,0-1.6-1.8-1.6-1.8s-5.1,0-6,0
		C4.2,19.3,4.2,19.4,4,19.4L4,19.4z"/>
	<path class="st4" d="M4,19.4c-0.5,0-0.9-1.4-0.9-1.4s0.4-1.4,0.9-1.4c0.3,0,0.2,0.2,0.4,0.2c0.8,0,6,0,6,0s0.9-1.8,1.6-1.8
		c0.6,0,0.8,0,1.2,0c0.5,0,0.7,0.4,0.7,0.7c0,0.1,0,0.5,0,0.7c0,0,10-0.7,11.7-0.6c2,0.2,5.3,2.2,5.3,2.2s-3,2.1-5.3,2.3
		c-1.7,0.1-11.7-0.6-11.7-0.6c0,0.1,0,0.4,0,0.5c0,0.5-0.3,0.8-0.8,0.8c-0.3,0-0.5,0-1.1,0c-0.9,0-1.6-1.8-1.6-1.8s-5.1,0-6,0
		C4.2,19.3,4.2,19.4,4,19.4L4,19.4z"/>
</g>
<linearGradient id="SVGID_1_" gradientUnits="userSpaceOnUse" x1="151.9476" y1="-59.757" x2="170.3681" y2="-59.757" gradientTransform="matrix(1 0 0 -1 -140.3125 -41.6875)">
	<stop  offset="0" style="stop-color:#CBBEEB"/>
	<stop  offset="1" style="stop-color:#F8F8FB"/>
</linearGradient>
<path class="st5" d="M11.8,19.5v-3c0,0,11.4-1,13.8-0.8c2,0.2,5.3,2.2,5.3,2.2s-3,2.1-5.3,2.3S11.8,19.5,11.8,19.5z"/>
<linearGradient id="SVGID_00000090287472293478529610000004605301527088422320_" gradientUnits="userSpaceOnUse" x1="151.9476" y1="-58.6376" x2="170.3681" y2="-58.6376" gradientTransform="matrix(1 0 0 -1 -140.3125 -41.6875)">
	<stop  offset="0" style="stop-color:#E4DAFB"/>
	<stop  offset="1" style="stop-color:#FBFBFE"/>
</linearGradient>
<path style="fill:url(#SVGID_00000090287472293478529610000004605301527088422320_);" d="M11.9,18.1v-1.5c0,0,11.4-1,13.7-0.8
	c2,0.2,5.3,2.2,5.3,2.2L11.9,18.1z"/>
<linearGradient id="SVGID_00000163773532203520584040000016433941576797102740_" gradientUnits="userSpaceOnUse" x1="147.0442" y1="-59.6923" x2="154.6217" y2="-59.6923" gradientTransform="matrix(1 0 0 -1 -140.3125 -41.6875)">
	<stop  offset="0" style="stop-color:#585858"/>
	<stop  offset="1" style="stop-color:#585858"/>
</linearGradient>
<path style="fill:url(#SVGID_00000163773532203520584040000016433941576797102740_);stroke:#2C2C2C;stroke-width:0.2;stroke-miterlimit:10;" d="
	M4.1,19c0-0.5,0-1.6,0-1.9c0-0.2,0.2-0.3,0.3-0.3c0.8,0,7.6,0,7.6,0v2.5c0,0-6.8,0-7.6,0C4.2,19.3,4.1,19.2,4.1,19L4.1,19z"/>
<path class="st8" d="M4.4,17c0,0.6,0,1.8,0,2.1c0,0.2-0.2,0.3-0.4,0.3c-0.5,0-0.9-1.4-0.9-1.4s0.4-1.4,0.9-1.4
	C4.3,16.6,4.4,16.7,4.4,17L4.4,17z"/>
<linearGradient id="SVGID_00000137835894910767672550000001025912597731851405_" gradientUnits="userSpaceOnUse" x1="152.4712" y1="-57.0571" x2="152.4712" y2="-62.2435" gradientTransform="matrix(1 0 0 -1 -140.3125 -41.6875)">
	<stop  offset="0" style="stop-color:#585858"/>
	<stop  offset="1" style="stop-color:#757575"/>
</linearGradient>
<path style="fill:url(#SVGID_00000137835894910767672550000001025912597731851405_);stroke:#2C2C2C;stroke-width:0.2;stroke-miterlimit:10;" d="
	M10.4,16.7c0,0,0.9-1.8,1.6-1.8c0.6,0,0.8,0,1.2,0c0.5,0,0.7,0.4,0.7,0.7c0,0.5,0,3.4,0,4.6c0,0.5-0.3,0.8-0.8,0.8
	c-0.3,0-0.5,0-1.1,0c-0.9,0-1.6-1.8-1.6-1.8L10.4,16.7z"/>
</svg>
