<?xml version="1.0" encoding="utf-8"?>
<!-- Generator: Adobe Illustrator 26.0.0, SVG Export Plug-In . SVG Version: 6.00 Build 0)  -->
<svg version="1.1" id="图层_1" xmlns="http://www.w3.org/2000/svg" xmlns:xlink="http://www.w3.org/1999/xlink" x="0px" y="0px"
	 width="130px" height="130px" viewBox="0 0 130 130" style="enable-background:new 0 0 130 130;" xml:space="preserve">
<style type="text/css">
	.st0{fill:url(#SVGID_1_);}
	.st1{fill:url(#SVGID_00000090992448144957422520000017812728293876716164_);}
	.st2{fill:url(#SVGID_00000047742081495028664360000008000604465020636577_);}
	.st3{fill:url(#SVGID_00000096040416972995591980000004117259997396136579_);}
</style>
<radialGradient id="SVGID_1_" cx="205.3125" cy="-12.6875" r="59.9669" gradientTransform="matrix(1 0 0 -1 -140.3125 52.3125)" gradientUnits="userSpaceOnUse">
	<stop  offset="0" style="stop-color:#FF3333"/>
	<stop  offset="1" style="stop-color:#FF3333;stop-opacity:0"/>
</radialGradient>
<path class="st0" d="M5,65c0-1.3,26.8-2.4,60-2.4s60,1.1,60,2.4s-26.8,2.4-60,2.4C31.9,67.4,5,66.3,5,65L5,65z"/>
<radialGradient id="SVGID_00000155853700399005535020000011015176652558191254_" cx="205.3125" cy="-12.6875" r="59.4036" gradientTransform="matrix(1 0 0 -1 -140.3125 52.3125)" gradientUnits="userSpaceOnUse">
	<stop  offset="0" style="stop-color:#FFFFFF"/>
	<stop  offset="1" style="stop-color:#FFFFFF;stop-opacity:0"/>
</radialGradient>
<path style="fill:url(#SVGID_00000155853700399005535020000011015176652558191254_);" d="M5.6,65c0-0.8,26.6-1.5,59.4-1.5
	c32.8,0,59.4,0.7,59.4,1.5c0,0.8-26.6,1.5-59.4,1.5C32.2,66.5,5.6,65.8,5.6,65L5.6,65z"/>
<radialGradient id="SVGID_00000015333489907556130650000004858404119464140973_" cx="205.3125" cy="-12.6875" r="52.8322" gradientTransform="matrix(1 0 0 -1 -140.3125 52.3125)" gradientUnits="userSpaceOnUse">
	<stop  offset="0" style="stop-color:#FFFFFF"/>
	<stop  offset="1" style="stop-color:#FFFFFF;stop-opacity:0"/>
</radialGradient>
<path style="fill:url(#SVGID_00000015333489907556130650000004858404119464140973_);" d="M12.2,65c0-0.9,23.7-1.6,52.8-1.6
	c29.2,0,52.8,0.7,52.8,1.6S94.2,66.6,65,66.6C35.8,66.6,12.2,65.9,12.2,65L12.2,65z"/>
<radialGradient id="SVGID_00000052066347368625961500000015392013138681392514_" cx="205.3125" cy="-12.6875" r="38.6043" gradientTransform="matrix(1 0 0 -1 -140.3125 52.3125)" gradientUnits="userSpaceOnUse">
	<stop  offset="0" style="stop-color:#FFFFFF"/>
	<stop  offset="1" style="stop-color:#FFFFFF;stop-opacity:0"/>
</radialGradient>
<path style="fill:url(#SVGID_00000052066347368625961500000015392013138681392514_);" d="M26.4,65c0-1,17.3-1.8,38.6-1.8
	c21.3,0,38.6,0.8,38.6,1.8c0,1-17.3,1.8-38.6,1.8C43.7,66.8,26.4,66,26.4,65L26.4,65z"/>
</svg>
