<?xml version="1.0" encoding="utf-8"?>
<!-- Generator: Adobe Illustrator 26.0.0, SVG Export Plug-In . SVG Version: 6.00 Build 0)  -->
<svg version="1.1" id="图层_1" xmlns="http://www.w3.org/2000/svg" xmlns:xlink="http://www.w3.org/1999/xlink" x="0px" y="0px"
	 width="160px" height="160px" viewBox="0 0 160 160" style="enable-background:new 0 0 160 160;" xml:space="preserve">
<style type="text/css">
	.st0{fill:url(#SVGID_1_);}
	.st1{fill:url(#SVGID_00000010298628136332779090000016629894334612013965_);}
	.st2{fill:none;stroke:url(#SVGID_00000070798302897811135650000014012312628674637701_);stroke-width:36;stroke-miterlimit:10;}
	.st3{fill:url(#SVGID_00000047757937733455592560000013487201984389520050_);}
</style>
<radialGradient id="SVGID_1_" cx="220.3125" cy="2.3125" r="76.1193" gradientTransform="matrix(1 0 0 -1 -140.3125 82.3125)" gradientUnits="userSpaceOnUse">
	<stop  offset="0" style="stop-color:#FF0000"/>
	<stop  offset="1" style="stop-color:#FF0000;stop-opacity:0"/>
</radialGradient>
<path class="st0" d="M3.9,80C3.9,38,38,3.9,80,3.9S156.1,38,156.1,80S122,156.1,80,156.1S3.9,122,3.9,80z"/>
<radialGradient id="SVGID_00000145037744784616999560000017027715507495623837_" cx="220.3125" cy="2.3125" r="50.0279" gradientTransform="matrix(1 0 0 -1 -140.3125 82.3125)" gradientUnits="userSpaceOnUse">
	<stop  offset="0" style="stop-color:#FFFFFF;stop-opacity:0.902"/>
	<stop  offset="1" style="stop-color:#FFFFFF;stop-opacity:0.302"/>
</radialGradient>
<path style="fill:url(#SVGID_00000145037744784616999560000017027715507495623837_);" d="M30,80c0-27.6,22.4-50,50-50s50,22.4,50,50
	s-22.4,50-50,50S30,107.6,30,80L30,80z"/>
<radialGradient id="SVGID_00000050651879239996492770000014026354430873082021_" cx="220.3125" cy="2.3125" r="67.9793" gradientTransform="matrix(1 0 0 -1 -140.3125 82.3125)" gradientUnits="userSpaceOnUse">
	<stop  offset="0" style="stop-color:#FF0000"/>
	<stop  offset="1" style="stop-color:#FF0000;stop-opacity:0"/>
</radialGradient>
<path style="fill:none;stroke:url(#SVGID_00000050651879239996492770000014026354430873082021_);stroke-width:36;stroke-miterlimit:10;" d="
	M12,80c0-37.5,30.4-68,68-68s68,30.4,68,68s-30.4,68-68,68S12,117.5,12,80L12,80z"/>
<radialGradient id="SVGID_00000144308439685269929350000007287865646118419862_" cx="220.3125" cy="2.3125" r="50.0279" gradientTransform="matrix(1 0 0 -1 -140.3125 82.3125)" gradientUnits="userSpaceOnUse">
	<stop  offset="0" style="stop-color:#FFFFFF;stop-opacity:0.902"/>
	<stop  offset="1" style="stop-color:#FFFFFF;stop-opacity:0.302"/>
</radialGradient>
<path style="fill:url(#SVGID_00000144308439685269929350000007287865646118419862_);" d="M30,80c0-27.6,22.4-50,50-50s50,22.4,50,50
	s-22.4,50-50,50S30,107.6,30,80L30,80z"/>
</svg>
