<?xml version="1.0" encoding="utf-8"?>
<!-- Generator: Adobe Illustrator 26.0.0, SVG Export Plug-In . SVG Version: 6.00 Build 0)  -->
<svg version="1.1" id="图层_1" xmlns="http://www.w3.org/2000/svg" xmlns:xlink="http://www.w3.org/1999/xlink" x="0px" y="0px"
	 width="80px" height="80px" viewBox="0 0 80 80" style="enable-background:new 0 0 80 80;" xml:space="preserve">
<style type="text/css">
	.st0{fill:none;stroke:#FF8080;stroke-width:4;stroke-miterlimit:10;stroke-opacity:0.2039;}
	.st1{fill:none;stroke:#FF8080;stroke-width:2;stroke-miterlimit:10;stroke-opacity:0.2039;}
	.st2{fill:url(#SVGID_1_);}
	.st3{fill:url(#SVGID_00000021830260869617887950000002474460434596586922_);}
	.st4{fill:url(#SVGID_00000030481639891768494860000015997026842398732213_);}
	.st5{fill:url(#SVGID_00000024709976332430523460000000213246847781843353_);}
	.st6{fill:url(#SVGID_00000067956391034867109930000007128621256664422804_);}
	.st7{fill:url(#SVGID_00000018211170395232267410000013934908991216930231_);}
	.st8{fill:url(#SVGID_00000046316023284064513260000008051547890658640782_);}
	.st9{fill:url(#SVGID_00000021086929435443575250000005221095085772072089_);}
	.st10{fill:url(#SVGID_00000088852748221753029410000002153568983870204313_);}
	.st11{fill:url(#SVGID_00000056419572496992129510000015790918112936759463_);}
</style>
<g>
	<path class="st0" d="M40.1,41.6C39.2,41.6,23,40,23,40s16.1-1.6,17.1-1.6c0.9,0,1.6,0.7,1.6,1.6S41,41.6,40.1,41.6L40.1,41.6z"/>
	<path class="st1" d="M40.1,41.6C39.2,41.6,23,40,23,40s16.1-1.6,17.1-1.6c0.9,0,1.6,0.7,1.6,1.6S41,41.6,40.1,41.6L40.1,41.6z"/>
</g>
<radialGradient id="SVGID_1_" cx="179.682" cy="-37.6875" r="8.1936" gradientTransform="matrix(1 0 0 -1 -140.3125 2.3125)" gradientUnits="userSpaceOnUse">
	<stop  offset="0" style="stop-color:#FF3333;stop-opacity:0.6"/>
	<stop  offset="1" style="stop-color:#FF3333;stop-opacity:0"/>
</radialGradient>
<path class="st2" d="M43.2,31.9c1.4,0.7,0.8,4.9-1.3,9.4s-5,7.5-6.4,6.8s-0.8-4.9,1.3-9.4S41.8,31.2,43.2,31.9z"/>
<radialGradient id="SVGID_00000093170750383084038110000006705860780801063099_" cx="179.682" cy="-37.6875" r="10.4745" gradientTransform="matrix(1 0 0 -1 -140.3125 2.3125)" gradientUnits="userSpaceOnUse">
	<stop  offset="0" style="stop-color:#FF3333;stop-opacity:0.6"/>
	<stop  offset="1" style="stop-color:#FF3333;stop-opacity:0"/>
</radialGradient>
<path style="fill:url(#SVGID_00000093170750383084038110000006705860780801063099_);" d="M33.3,31.5c0.7-0.5,4,2.9,7.3,7.7
	c3.3,4.7,5.5,8.9,4.8,9.4c-0.7,0.5-4-2.9-7.3-7.7C34.8,36.2,32.6,31.9,33.3,31.5z"/>
<radialGradient id="SVGID_00000125578701517491000990000005141096858625829557_" cx="179.682" cy="-37.6875" r="12.472" gradientTransform="matrix(1 0 0 -1 -140.3125 2.3125)" gradientUnits="userSpaceOnUse">
	<stop  offset="0" style="stop-color:#FF3333;stop-opacity:0.6"/>
	<stop  offset="1" style="stop-color:#FF3333;stop-opacity:0"/>
</radialGradient>
<path style="fill:url(#SVGID_00000125578701517491000990000005141096858625829557_);" d="M26.9,39.6c0-1.1,5.6-1.8,12.5-1.6
	c6.9,0.2,12.5,1.3,12.4,2.3c0,1.1-5.6,1.8-12.5,1.6C32.4,41.7,26.9,40.7,26.9,39.6L26.9,39.6z"/>
<radialGradient id="SVGID_00000043430241902121184950000011661324739509035670_" cx="180.3125" cy="-37.6875" r="6.8052" gradientTransform="matrix(1 0 0 -1 -140.3125 2.3125)" gradientUnits="userSpaceOnUse">
	<stop  offset="0" style="stop-color:#FF4D4D;stop-opacity:0.502"/>
	<stop  offset="1" style="stop-color:#FF4D4D;stop-opacity:0"/>
</radialGradient>
<path style="fill:url(#SVGID_00000043430241902121184950000011661324739509035670_);" d="M33.2,40c0-3.8,3-6.8,6.8-6.8
	s6.8,3,6.8,6.8c0,3.8-3,6.8-6.8,6.8S33.2,43.8,33.2,40z"/>
<radialGradient id="SVGID_00000015335285298533505190000013689948205765505674_" cx="180.3125" cy="-37.6875" r="4.8949" gradientTransform="matrix(1 0 0 -1 -140.3125 2.3125)" gradientUnits="userSpaceOnUse">
	<stop  offset="0" style="stop-color:#FFFFFF"/>
	<stop  offset="1" style="stop-color:#FFFFFF;stop-opacity:0"/>
</radialGradient>
<path style="fill:url(#SVGID_00000015335285298533505190000013689948205765505674_);" d="M35.1,40c0-2.7,2.2-4.9,4.9-4.9
	c2.7,0,4.9,2.2,4.9,4.9c0,2.7-2.2,4.9-4.9,4.9C37.3,44.9,35.1,42.7,35.1,40z"/>
<radialGradient id="SVGID_00000137121360975976617840000012901002516553779632_" cx="179.682" cy="-37.6875" r="8.3126" gradientTransform="matrix(1 0 0 -1 -140.3125 2.3125)" gradientUnits="userSpaceOnUse">
	<stop  offset="0" style="stop-color:#FFFFFF"/>
	<stop  offset="1" style="stop-color:#FFFFFF;stop-opacity:0"/>
</radialGradient>
<path style="fill:url(#SVGID_00000137121360975976617840000012901002516553779632_);" d="M39.4,38.8c4.6,0,8.3,0.5,8.3,1.2
	s-3.7,1.2-8.3,1.2c-4.6,0-8.3-0.5-8.3-1.2C31.1,39.4,34.8,38.8,39.4,38.8z"/>
<radialGradient id="SVGID_00000178163528228117667350000013978023383851916726_" cx="179.682" cy="-37.6875" r="6.7487" gradientTransform="matrix(1 0 0 -1 -140.3125 2.3125)" gradientUnits="userSpaceOnUse">
	<stop  offset="0" style="stop-color:#FFFFFF"/>
	<stop  offset="1" style="stop-color:#FFFFFF;stop-opacity:0"/>
</radialGradient>
<path style="fill:url(#SVGID_00000178163528228117667350000013978023383851916726_);" d="M38.2,39.5c1.3-3.5,3-6.1,3.6-5.8
	s0.1,3.3-1.3,6.7c-1.3,3.5-3,6.1-3.6,5.8C36.3,46,36.9,43,38.2,39.5L38.2,39.5z"/>
<radialGradient id="SVGID_00000052099390632461967410000009683163227255344053_" cx="180.3125" cy="-37.6875" r="9.316" gradientTransform="matrix(1 0 0 -1 -140.3125 2.3125)" gradientUnits="userSpaceOnUse">
	<stop  offset="0" style="stop-color:#FFFFFF"/>
	<stop  offset="1" style="stop-color:#FFFFFF;stop-opacity:0"/>
</radialGradient>
<path style="fill:url(#SVGID_00000052099390632461967410000009683163227255344053_);" d="M40,39.3c5.1,0,9.3,0.3,9.3,0.7
	c0,0.4-4.2,0.7-9.3,0.7c-5.1,0-9.3-0.3-9.3-0.7S34.9,39.3,40,39.3z"/>
<radialGradient id="SVGID_00000002382538827507976620000006689265088327717808_" cx="180.3125" cy="-37.6875" r="3.1793" gradientTransform="matrix(1 0 0 -1 -140.3125 2.3125)" gradientUnits="userSpaceOnUse">
	<stop  offset="0" style="stop-color:#FFFFFF"/>
	<stop  offset="1" style="stop-color:#FFFFFF;stop-opacity:0"/>
</radialGradient>
<path style="fill:url(#SVGID_00000002382538827507976620000006689265088327717808_);" d="M36.8,40c0-1.8,1.4-3.2,3.2-3.2
	c1.8,0,3.2,1.4,3.2,3.2c0,1.8-1.4,3.2-3.2,3.2C38.2,43.2,36.8,41.8,36.8,40z"/>
<linearGradient id="SVGID_00000115502474765194545820000011003126903044601221_" gradientUnits="userSpaceOnUse" x1="163.3363" y1="-37.6875" x2="182.0347" y2="-37.6875" gradientTransform="matrix(1 0 0 -1 -140.3125 2.3125)">
	<stop  offset="0" style="stop-color:#FFFFFF;stop-opacity:0.4"/>
	<stop  offset="1" style="stop-color:#FFFFFF;stop-opacity:0.6"/>
</linearGradient>
<path style="fill:url(#SVGID_00000115502474765194545820000011003126903044601221_);" d="M40.1,41.6C39.2,41.6,23,40,23,40
	s16.1-1.6,17.1-1.6c0.9,0,1.6,0.7,1.6,1.6S41,41.6,40.1,41.6L40.1,41.6z"/>
</svg>
