<?xml version="1.0" encoding="utf-8"?>
<!-- Generator: Adobe Illustrator 26.0.0, SVG Export Plug-In . SVG Version: 6.00 Build 0)  -->
<svg version="1.1" id="图层_1" xmlns="http://www.w3.org/2000/svg" xmlns:xlink="http://www.w3.org/1999/xlink" x="0px" y="0px"
	 width="20px" height="20px" viewBox="0 0 20 20" style="enable-background:new 0 0 20 20;" xml:space="preserve">
<style type="text/css">
	.st0{fill:url(#SVGID_1_);}
	.st1{fill:#FFFFFF;stroke:url(#SVGID_00000080918103869577351510000014029536314547746193_);stroke-miterlimit:10;}
	.st2{fill:#FFFFFF;stroke:url(#SVGID_00000023280833428168714110000002275427276907120291_);stroke-miterlimit:10;}
</style>
<radialGradient id="SVGID_1_" cx="203.1748" cy="-120.8252" r="7.434" gradientTransform="matrix(1 0 0 -1 -193.1748 -110.8252)" gradientUnits="userSpaceOnUse">
	<stop  offset="0" style="stop-color:#FF3333;stop-opacity:0.8"/>
	<stop  offset="1" style="stop-color:#FF3333;stop-opacity:0"/>
</radialGradient>
<path class="st0" d="M2.6,10c0-4.1,3.3-7.4,7.4-7.4c4.1,0,7.4,3.3,7.4,7.4c0,4.1-3.3,7.4-7.4,7.4C5.9,17.4,2.6,14.1,2.6,10z"/>
<linearGradient id="SVGID_00000002356686458752640910000007576587301997511866_" gradientUnits="userSpaceOnUse" x1="198.04" y1="-120.8252" x2="208.8242" y2="-120.8252" gradientTransform="matrix(1 0 0 -1 -193.1748 -110.8252)">
	<stop  offset="0" style="stop-color:#FF6666;stop-opacity:0.2"/>
	<stop  offset="1" style="stop-color:#FF6666"/>
</linearGradient>
<path style="fill:#FFFFFF;stroke:url(#SVGID_00000002356686458752640910000007576587301997511866_);stroke-miterlimit:10;" d="
	M5.1,15.2c0,0,6.3-1,8.4-5.1c-2.1-4.2-8.2-5.2-8.2-5.2s7.5-1.1,10.4,5.2C12.9,16.2,5.1,15.2,5.1,15.2z"/>
<linearGradient id="SVGID_00000027563546295349719580000003929313040111793310_" gradientUnits="userSpaceOnUse" x1="197.4768" y1="-120.8407" x2="204.9473" y2="-120.8407" gradientTransform="matrix(1 0 0 -1 -193.1748 -110.8252)">
	<stop  offset="0" style="stop-color:#FF6666;stop-opacity:0.2"/>
	<stop  offset="1" style="stop-color:#FF6666"/>
</linearGradient>
<path style="fill:#FFFFFF;stroke:url(#SVGID_00000027563546295349719580000003929313040111793310_);stroke-miterlimit:10;" d="
	M8.7,12.5c-0.6,0-4.4-1.9-4.4-2.5c0-0.5,3.7-2.4,4.4-2.4C9.3,7.6,12,9.3,12,10C12,10.7,9.5,12.5,8.7,12.5z"/>
</svg>
