<?xml version="1.0" encoding="utf-8"?>
<!-- Generator: Adobe Illustrator 26.0.0, SVG Export Plug-In . SVG Version: 6.00 Build 0)  -->
<svg version="1.1" id="图层_1" xmlns="http://www.w3.org/2000/svg" xmlns:xlink="http://www.w3.org/1999/xlink" x="0px" y="0px"
	 width="16px" height="16px" viewBox="0 0 16 16" style="enable-background:new 0 0 16 16;" xml:space="preserve">
<style type="text/css">
	.st0{fill:url(#SVGID_1_);}
	.st1{fill:url(#SVGID_00000057111591532680697480000014906846090900387974_);}
	.st2{fill:url(#SVGID_00000057149334728851363500000015006539580468968878_);}
	.st3{fill:#FF6666;}
	.st4{fill:url(#SVGID_00000161604783480500778220000012602180473804925341_);}
	.st5{fill:url(#SVGID_00000003098321212947563110000006955144981929744057_);}
	.st6{fill:url(#SVGID_00000037680780934257291120000002391521833402344894_);}
	.st7{fill:url(#SVGID_00000065760166422054290720000017689281675321536437_);}
	.st8{fill:url(#SVGID_00000013162528059403383100000011737324732426462141_);}
	.st9{fill:url(#SVGID_00000142856537010741395320000013149157906462947514_);}
	.st10{fill:url(#SVGID_00000183209936785615434550000008132340075775187117_);}
	.st11{fill:url(#SVGID_00000080917145922871682630000004045203278621984423_);}
	.st12{fill:url(#SVGID_00000028302580734100525840000006025958677439872163_);}
	.st13{fill:url(#SVGID_00000000926143567407621350000016371622092680325251_);}
	.st14{fill:url(#SVGID_00000082356245277058186610000012508273216161491130_);}
	.st15{fill:url(#SVGID_00000048488733850778860170000014408477611846378175_);}
	.st16{fill:url(#SVGID_00000034795754048505065810000009958875091892444335_);}
	.st17{fill:url(#SVGID_00000096767192148883257360000006018440944240333243_);}
	.st18{fill:url(#SVGID_00000111903083292226799350000007009147771728782758_);}
</style>
<g>
	
		<radialGradient id="SVGID_1_" cx="198.5302" cy="-122.8252" r="4.9529" gradientTransform="matrix(1 0 0 -1 -193.1748 -114.8252)" gradientUnits="userSpaceOnUse">
		<stop  offset="0" style="stop-color:#FF3333"/>
		<stop  offset="1" style="stop-color:#FF3333;stop-opacity:0"/>
	</radialGradient>
	<path class="st0" d="M10.3,8c0,2.7-2.2,4.9-5,4.9s-5-2.2-5-4.9c0-2.7,2.2-4.9,5-4.9C8.1,3.1,10.3,5.3,10.3,8z"/>
	
		<radialGradient id="SVGID_00000054956518231761947250000009841113675008321165_" cx="205.3633" cy="-122.8252" r="3.4092" gradientTransform="matrix(1 0 0 -1 -193.1748 -114.8252)" gradientUnits="userSpaceOnUse">
		<stop  offset="0" style="stop-color:#FF3333;stop-opacity:0.8"/>
		<stop  offset="1" style="stop-color:#FF3333;stop-opacity:0"/>
	</radialGradient>
	<path style="fill:url(#SVGID_00000054956518231761947250000009841113675008321165_);" d="M15.6,8c0,1.9-1.5,3.4-3.4,3.4
		c-1.9,0-3.4-1.5-3.4-3.4s1.5-3.4,3.4-3.4C14.1,4.6,15.6,6.1,15.6,8z"/>
	
		<radialGradient id="SVGID_00000026150543621953986020000001725834879492599211_" cx="201.9701" cy="-122.8252" r="4.7541" gradientTransform="matrix(1 0 0 -1 -193.1748 -114.8252)" gradientUnits="userSpaceOnUse">
		<stop  offset="0" style="stop-color:#FF3333"/>
		<stop  offset="1" style="stop-color:#FF3333;stop-opacity:0"/>
	</radialGradient>
	<path style="fill:url(#SVGID_00000026150543621953986020000001725834879492599211_);" d="M13.5,8c0,2.6-2.1,4.7-4.8,4.7S4,10.6,4,8
		c0-2.6,2.1-4.7,4.8-4.7S13.5,5.4,13.5,8z"/>
</g>
<path class="st3" d="M2.3,8c0-1.4,1.1-2.7,3.5-2.7c4.5,0,7.9,1.3,7.9,2.7c0,1.3-3.3,2.6-7.9,2.6C3.5,10.6,2.3,9.4,2.3,8z"/>
<g>
	<g>
		
			<radialGradient id="SVGID_00000137842556004843780600000000259072177482567060_" cx="198.508" cy="-122.8252" r="2.5361" gradientTransform="matrix(1 0 0 -1 -193.1748 -114.8252)" gradientUnits="userSpaceOnUse">
			<stop  offset="0" style="stop-color:#FFFFFF"/>
			<stop  offset="1" style="stop-color:#FFFFFF;stop-opacity:0"/>
		</radialGradient>
		<path style="fill:url(#SVGID_00000137842556004843780600000000259072177482567060_);" d="M7.9,8c0,1.4-1.1,2.5-2.5,2.5
			c-1.4,0-2.5-1.1-2.5-2.5s1.1-2.5,2.5-2.5C6.7,5.5,7.9,6.6,7.9,8z"/>
		
			<radialGradient id="SVGID_00000084490622442657382360000007789606745328661891_" cx="198.0218" cy="-122.8252" r="1.9722" gradientTransform="matrix(1 0 0 -1 -193.1748 -114.8252)" gradientUnits="userSpaceOnUse">
			<stop  offset="0" style="stop-color:#FFFFFF;stop-opacity:0.8"/>
			<stop  offset="1" style="stop-color:#FFFFFF;stop-opacity:0"/>
		</radialGradient>
		<path style="fill:url(#SVGID_00000084490622442657382360000007789606745328661891_);" d="M6.8,8c0,1.1-0.9,2-2,2s-2-0.9-2-2
			c0-1.1,0.9-2,2-2S6.8,6.9,6.8,8z"/>
		
			<radialGradient id="SVGID_00000098907859851832977320000003427429803688986811_" cx="200.0349" cy="-122.8252" r="2.5298" gradientTransform="matrix(1 0 0 -1 -193.1748 -114.8252)" gradientUnits="userSpaceOnUse">
			<stop  offset="0" style="stop-color:#FFFFFF"/>
			<stop  offset="1" style="stop-color:#FFFFFF;stop-opacity:0"/>
		</radialGradient>
		<path style="fill:url(#SVGID_00000098907859851832977320000003427429803688986811_);" d="M9.4,8c0,1.4-1.1,2.5-2.5,2.5
			c-1.4,0-2.5-1.1-2.5-2.5c0-1.4,1.1-2.5,2.5-2.5C8.3,5.5,9.4,6.6,9.4,8z"/>
		
			<radialGradient id="SVGID_00000119095619202243839700000010103887185907837832_" cx="201.6098" cy="-122.8252" r="2.3495" gradientTransform="matrix(1 0 0 -1 -193.1748 -114.8252)" gradientUnits="userSpaceOnUse">
			<stop  offset="0" style="stop-color:#FFFFFF"/>
			<stop  offset="1" style="stop-color:#FFFFFF;stop-opacity:0"/>
		</radialGradient>
		<path style="fill:url(#SVGID_00000119095619202243839700000010103887185907837832_);" d="M10.8,8c0,1.3-1.1,2.3-2.3,2.3
			c-1.3,0-2.3-1-2.3-2.3s1.1-2.3,2.3-2.3C9.7,5.7,10.8,6.7,10.8,8z"/>
		
			<radialGradient id="SVGID_00000171000254648006964290000007425757143009760701_" cx="203.1014" cy="-122.8252" r="1.9459" gradientTransform="matrix(1 0 0 -1 -193.1748 -114.8252)" gradientUnits="userSpaceOnUse">
			<stop  offset="0" style="stop-color:#FFFFFF"/>
			<stop  offset="1" style="stop-color:#FFFFFF;stop-opacity:0"/>
		</radialGradient>
		<path style="fill:url(#SVGID_00000171000254648006964290000007425757143009760701_);" d="M11.9,8c0,1.1-0.9,1.9-1.9,1.9S8,9.1,8,8
			s0.9-1.9,1.9-1.9C11,6.1,11.9,6.9,11.9,8z"/>
		
			<radialGradient id="SVGID_00000070116582728307875340000003854806557323398311_" cx="204.4324" cy="-122.8252" r="1.5391" gradientTransform="matrix(1 0 0 -1 -193.1748 -114.8252)" gradientUnits="userSpaceOnUse">
			<stop  offset="0" style="stop-color:#FFFFFF"/>
			<stop  offset="1" style="stop-color:#FFFFFF;stop-opacity:0"/>
		</radialGradient>
		<path style="fill:url(#SVGID_00000070116582728307875340000003854806557323398311_);" d="M12.8,8c0,0.8-0.7,1.5-1.5,1.5
			c-0.9,0-1.5-0.7-1.5-1.5s0.7-1.5,1.5-1.5C12.1,6.5,12.8,7.2,12.8,8z"/>
		
			<radialGradient id="SVGID_00000067917704907091626300000013298293985392821643_" cx="205.4226" cy="-122.8252" r="0.9551" gradientTransform="matrix(1 0 0 -1 -193.1748 -114.8252)" gradientUnits="userSpaceOnUse">
			<stop  offset="0" style="stop-color:#FFFFFF;stop-opacity:0.8"/>
			<stop  offset="1" style="stop-color:#FFFFFF;stop-opacity:0"/>
		</radialGradient>
		<path style="fill:url(#SVGID_00000067917704907091626300000013298293985392821643_);" d="M13.2,8c0,0.5-0.4,0.9-1,0.9
			c-0.5,0-1-0.4-1-0.9s0.4-0.9,1-0.9C12.8,7.1,13.2,7.5,13.2,8z"/>
	</g>
	<g>
		
			<radialGradient id="SVGID_00000027569588761697538950000003906973605247391119_" cx="198.508" cy="-122.8252" r="2.5361" gradientTransform="matrix(1 0 0 -1 -193.1748 -114.8252)" gradientUnits="userSpaceOnUse">
			<stop  offset="0" style="stop-color:#FFFFFF"/>
			<stop  offset="1" style="stop-color:#FFFFFF;stop-opacity:0"/>
		</radialGradient>
		<path style="fill:url(#SVGID_00000027569588761697538950000003906973605247391119_);" d="M7.9,8c0,1.4-1.1,2.5-2.5,2.5
			c-1.4,0-2.5-1.1-2.5-2.5s1.1-2.5,2.5-2.5C6.7,5.5,7.9,6.6,7.9,8z"/>
		
			<radialGradient id="SVGID_00000137091587972936885710000000062316632523243199_" cx="198.0218" cy="-122.8252" r="1.9722" gradientTransform="matrix(1 0 0 -1 -193.1748 -114.8252)" gradientUnits="userSpaceOnUse">
			<stop  offset="0" style="stop-color:#FFFFFF;stop-opacity:0.8"/>
			<stop  offset="1" style="stop-color:#FFFFFF;stop-opacity:0"/>
		</radialGradient>
		<path style="fill:url(#SVGID_00000137091587972936885710000000062316632523243199_);" d="M6.8,8c0,1.1-0.9,2-2,2s-2-0.9-2-2
			c0-1.1,0.9-2,2-2S6.8,6.9,6.8,8z"/>
		
			<radialGradient id="SVGID_00000183966723623493128610000006733779402960224698_" cx="200.0349" cy="-122.8252" r="2.5298" gradientTransform="matrix(1 0 0 -1 -193.1748 -114.8252)" gradientUnits="userSpaceOnUse">
			<stop  offset="0" style="stop-color:#FFFFFF"/>
			<stop  offset="1" style="stop-color:#FFFFFF;stop-opacity:0"/>
		</radialGradient>
		<path style="fill:url(#SVGID_00000183966723623493128610000006733779402960224698_);" d="M9.4,8c0,1.4-1.1,2.5-2.5,2.5
			c-1.4,0-2.5-1.1-2.5-2.5c0-1.4,1.1-2.5,2.5-2.5C8.3,5.5,9.4,6.6,9.4,8z"/>
		
			<radialGradient id="SVGID_00000034807944182912233780000006616697393422358190_" cx="201.6098" cy="-122.8252" r="2.3495" gradientTransform="matrix(1 0 0 -1 -193.1748 -114.8252)" gradientUnits="userSpaceOnUse">
			<stop  offset="0" style="stop-color:#FFFFFF"/>
			<stop  offset="1" style="stop-color:#FFFFFF;stop-opacity:0"/>
		</radialGradient>
		<path style="fill:url(#SVGID_00000034807944182912233780000006616697393422358190_);" d="M10.8,8c0,1.3-1.1,2.3-2.3,2.3
			c-1.3,0-2.3-1-2.3-2.3s1.1-2.3,2.3-2.3C9.7,5.7,10.8,6.7,10.8,8z"/>
		
			<radialGradient id="SVGID_00000032610888575629711680000001571667466380489406_" cx="203.1014" cy="-122.8252" r="1.9459" gradientTransform="matrix(1 0 0 -1 -193.1748 -114.8252)" gradientUnits="userSpaceOnUse">
			<stop  offset="0" style="stop-color:#FFFFFF"/>
			<stop  offset="1" style="stop-color:#FFFFFF;stop-opacity:0"/>
		</radialGradient>
		<path style="fill:url(#SVGID_00000032610888575629711680000001571667466380489406_);" d="M11.9,8c0,1.1-0.9,1.9-1.9,1.9S8,9.1,8,8
			s0.9-1.9,1.9-1.9C11,6.1,11.9,6.9,11.9,8z"/>
		
			<radialGradient id="SVGID_00000063592322706176172180000001647025490020834233_" cx="204.4324" cy="-122.8252" r="1.5391" gradientTransform="matrix(1 0 0 -1 -193.1748 -114.8252)" gradientUnits="userSpaceOnUse">
			<stop  offset="0" style="stop-color:#FFFFFF"/>
			<stop  offset="1" style="stop-color:#FFFFFF;stop-opacity:0"/>
		</radialGradient>
		<path style="fill:url(#SVGID_00000063592322706176172180000001647025490020834233_);" d="M12.8,8c0,0.8-0.7,1.5-1.5,1.5
			c-0.9,0-1.5-0.7-1.5-1.5s0.7-1.5,1.5-1.5C12.1,6.5,12.8,7.2,12.8,8z"/>
		
			<radialGradient id="SVGID_00000120535693143888456070000005242769888995696314_" cx="205.4226" cy="-122.8252" r="0.9551" gradientTransform="matrix(1 0 0 -1 -193.1748 -114.8252)" gradientUnits="userSpaceOnUse">
			<stop  offset="0" style="stop-color:#FFFFFF;stop-opacity:0.8"/>
			<stop  offset="1" style="stop-color:#FFFFFF;stop-opacity:0"/>
		</radialGradient>
		<path style="fill:url(#SVGID_00000120535693143888456070000005242769888995696314_);" d="M13.2,8c0,0.5-0.4,0.9-1,0.9
			c-0.5,0-1-0.4-1-0.9s0.4-0.9,1-0.9C12.8,7.1,13.2,7.5,13.2,8z"/>
	</g>
</g>
<linearGradient id="SVGID_00000061459392590806145920000006259097689860350373_" gradientUnits="userSpaceOnUse" x1="201.1875" y1="-125.4191" x2="201.1875" y2="-122.2313" gradientTransform="matrix(1 0 0 -1 -193.1748 -114.8252)">
	<stop  offset="0" style="stop-color:#FF6666"/>
	<stop  offset="1" style="stop-color:#FF6666;stop-opacity:0"/>
</linearGradient>
<path style="fill:url(#SVGID_00000061459392590806145920000006259097689860350373_);" d="M5.8,5.4c4.6,0,7.9,1.3,7.9,2.6
	c0,1.3-3.4,2.7-7.9,2.7c-2.4,0-3.5-1.2-3.5-2.7C2.3,6.6,3.5,5.4,5.8,5.4z"/>
</svg>
