<?xml version="1.0" encoding="utf-8"?>
<!-- Generator: Adobe Illustrator 26.0.0, SVG Export Plug-In . SVG Version: 6.00 Build 0)  -->
<svg version="1.1" id="图层_1" xmlns="http://www.w3.org/2000/svg" xmlns:xlink="http://www.w3.org/1999/xlink" x="0px" y="0px"
	 width="22px" height="22px" viewBox="0 0 22 22" style="enable-background:new 0 0 22 22;" xml:space="preserve">
<style type="text/css">
	.st0{fill:url(#SVGID_1_);}
	.st1{fill:#FFFFFF;}
	.st2{fill:none;stroke:#FF6666;stroke-width:2.5;stroke-miterlimit:10;stroke-opacity:0.2;}
	.st3{fill:none;stroke:#FF6666;stroke-width:2;stroke-miterlimit:10;stroke-opacity:0.2;}
	.st4{fill:none;stroke:#FF6666;stroke-width:1.5;stroke-miterlimit:10;stroke-opacity:0.2;}
	.st5{fill:none;stroke:#FF6666;stroke-miterlimit:10;stroke-opacity:0.2;}
	.st6{fill:none;stroke:#FF6666;stroke-width:0.5;stroke-miterlimit:10;stroke-opacity:0.2;}
</style>
<radialGradient id="SVGID_1_" cx="204.1748" cy="-119.8252" r="10" gradientTransform="matrix(1 0 0 -1 -193.1748 -108.8252)" gradientUnits="userSpaceOnUse">
	<stop  offset="0" style="stop-color:#FF3333"/>
	<stop  offset="1" style="stop-color:#FF3333;stop-opacity:0"/>
</radialGradient>
<path class="st0" d="M1,11C1,5.5,5.5,1,11,1c5.5,0,10,4.5,10,10c0,5.5-4.5,10-10,10C5.5,21,1,16.5,1,11z"/>
<path class="st1" d="M11,4.5l2.4,3.3L17.2,9l-2.4,3.2l0,4L11,15l-3.8,1.2l0.1-4L4.8,9l3.9-1.2L11,4.5z"/>
<path class="st2" d="M11,4.5l2.4,3.3L17.2,9l-2.4,3.2l0,4L11,15l-3.8,1.2l0.1-4L4.8,9l3.9-1.2L11,4.5z"/>
<path class="st3" d="M11,4.5l2.4,3.3L17.2,9l-2.4,3.2l0,4L11,15l-3.8,1.2l0.1-4L4.8,9l3.9-1.2L11,4.5z"/>
<path class="st4" d="M11,4.5l2.4,3.3L17.2,9l-2.4,3.2l0,4L11,15l-3.8,1.2l0.1-4L4.8,9l3.9-1.2L11,4.5z"/>
<path class="st5" d="M11,4.5l2.4,3.3L17.2,9l-2.4,3.2l0,4L11,15l-3.8,1.2l0.1-4L4.8,9l3.9-1.2L11,4.5z"/>
<path class="st6" d="M11,4.5l2.4,3.3L17.2,9l-2.4,3.2l0,4L11,15l-3.8,1.2l0.1-4L4.8,9l3.9-1.2L11,4.5z"/>
</svg>
