<?xml version="1.0" encoding="utf-8"?>
<!-- Generator: Adobe Illustrator 26.0.0, SVG Export Plug-In . SVG Version: 6.00 Build 0)  -->
<svg version="1.1" id="图层_1" xmlns="http://www.w3.org/2000/svg" xmlns:xlink="http://www.w3.org/1999/xlink" x="0px" y="0px"
	 width="64px" height="64px" viewBox="0 0 64 64" style="enable-background:new 0 0 64 64;" xml:space="preserve">
<style type="text/css">
	.st0{fill:url(#SVGID_1_);}
	.st1{fill:#CC3333;}
	.st2{fill:#FFFFFF;}
</style>
<radialGradient id="SVGID_1_" cx="320" cy="-114" r="31.975" gradientTransform="matrix(1 0 0 -1 -288.025 -82.0249)" gradientUnits="userSpaceOnUse">
	<stop  offset="0" style="stop-color:#FF4040"/>
	<stop  offset="1" style="stop-color:#FF4040;stop-opacity:0"/>
</radialGradient>
<path class="st0" d="M0,32C0,14.3,14.3,0,32,0c17.7,0,32,14.3,32,32S49.6,64,32,64C14.3,64,0,49.6,0,32z"/>
<g>
	<path class="st1" d="M32,22l10,10L32,42L22,32L32,22 M32,12c-2.6,0-5.1,1-7.1,2.9l-10,10C11,28.8,11,35.1,14.9,39l10,10
		c2,2,4.5,2.9,7.1,2.9s5.1-1,7.1-2.9l10-10c3.9-3.9,3.9-10.2,0-14.1l-10-10C37.1,13,34.5,12,32,12L32,12z"/>
</g>
<g>
	<path class="st2" d="M32,44c-0.5,0-1-0.2-1.4-0.6l-10-10C20.2,33,20,32.5,20,32s0.2-1,0.6-1.4l10-10c0.4-0.4,0.9-0.6,1.4-0.6l0,0
		c0.5,0,1,0.2,1.4,0.6l10,10c0.8,0.8,0.8,2,0,2.8l-10,10C33,43.8,32.5,44,32,44z"/>
	<path class="st2" d="M32,22l10,10L32,42L22,32L32,22 M32,18c-1,0-2,0.4-2.8,1.2l-10,10c-1.6,1.6-1.6,4.1,0,5.7l10,10
		C29.9,45.6,31,46,32,46c1,0,2-0.4,2.8-1.2l10-10c1.6-1.6,1.6-4.1,0-5.7l-10-10C34,18.4,33,18,32,18L32,18z"/>
</g>
</svg>
