<?xml version="1.0" encoding="UTF-8" standalone="no"?><!DOCTYPE svg PUBLIC "-//W3C//DTD SVG 1.1//EN" "http://www.w3.org/Graphics/SVG/1.1/DTD/svg11.dtd"><svg width="300px" height="60px" version="1.1" xmlns="http://www.w3.org/2000/svg" xmlns:xlink="http://www.w3.org/1999/xlink" xml:space="preserve" xmlns:serif="http://www.serif.com/" style="fill-rule:evenodd;clip-rule:evenodd;stroke-linecap:round;stroke-miterlimit:10;"><g><g><rect x="35" y="0.01263" width="259.94786" height="59.97474" style="fill:url(#_Linear1);"/><path d="M86.80926,29.99999l196.5,0" style="fill:none;fill-rule:nonzero;stroke:url(#_Linear2);stroke-width:2px;"/><g><path d="M39.11201,30.00004c0,-13.17974 10.68429,-23.86404 23.86403,-23.86404c13.17974,0 23.86403,10.68429 23.86403,23.86403c0,13.17974 -10.68429,23.86403 -23.86404,23.86403c-13.17974,0 -23.86403,-10.68429 -23.86403,-23.86404l0.00001,0.00002Z" style="fill:none;fill-rule:nonzero;"/><path d="M78.98064,20.75107l0,18.4979l-16.00191,9.23596l-16.0074,-9.23596l0,-18.4979l16.00191,-9.23596l16.0074,9.23596Z" style="fill:#e6ebf2;fill-rule:nonzero;stroke:#b6babf;stroke-width:2px;stroke-linejoin:round;"/><path d="M47.9975,38.65262l-0.02013,-17.33868l14.97041,-8.61004l-12.47794,10.22607l-2.47234,15.72265Z" style="fill:#fff;fill-opacity:0.5;fill-rule:nonzero;"/><path d="M77.95453,21.3474l0.02013,17.33868l-14.97041,8.61004l12.6208,-10.08321l2.32948,-15.86551Z" style="fill:#b6babf;fill-opacity:0.5;fill-rule:nonzero;"/><path d="M62.97598,21.05332c4.9411,0 8.94666,4.00554 8.94666,8.94666c0,4.9411 -4.00554,8.94666 -8.94665,8.94666c-4.9411,0 -8.94665,-4.00554 -8.94665,-8.94665c0,-4.9411 4.00552,-8.94667 8.94664,-8.94667Z" style="fill:none;fill-rule:nonzero;stroke:#c2c6cc;stroke-width:2px;stroke-linecap:butt;"/><path d="M68.35444,30.28123l-5.65972,0l0,-5.65972" style="fill:none;fill-rule:nonzero;stroke:#c2c6cc;stroke-width:2px;"/></g></g></g><defs><linearGradient id="_Linear1" x1="0" y1="0" x2="1" y2="0" gradientUnits="userSpaceOnUse" gradientTransform="matrix(259.94787,0,0,259.94787,35,30)"><stop offset="0" style="stop-color:#000;stop-opacity:0.6"/><stop offset="1" style="stop-color:#000;stop-opacity:0"/></linearGradient><linearGradient id="_Linear2" x1="0" y1="0" x2="1" y2="0" gradientUnits="userSpaceOnUse" gradientTransform="matrix(196.5,0,0,196.5,86.80926,29.99999)"><stop offset="0" style="stop-color:#fff;stop-opacity:1"/><stop offset="1" style="stop-color:#fff;stop-opacity:0"/></linearGradient></defs></svg>