<?xml version="1.0" encoding="utf-8"?>
<!-- Generator: Adobe Illustrator 26.0.0, SVG Export Plug-In . SVG Version: 6.00 Build 0)  -->
<!DOCTYPE svg PUBLIC "-//W3C//DTD SVG 1.0//EN" "http://www.w3.org/TR/2001/REC-SVG-20010904/DTD/svg10.dtd" [
	<!ENTITY st0 "fill:#33CC43;">
	<!ENTITY st1 "display:none;">
	<!ENTITY st2 "display:inline;fill:#33CC43;">
]>
<svg version="1.0" id="图层_1" xmlns="http://www.w3.org/2000/svg" xmlns:xlink="http://www.w3.org/1999/xlink" x="0px" y="0px"
	 width="48px" height="48px" viewBox="0 0 48 48" style="enable-background:new 0 0 48 48;" xml:space="preserve">
<path style="&st0;" d="M24,0C15.16345,0,8,7.16345,8,16s7.16345,16,16,16s16-7.16345,16-16S32.83655,0,24,0z M33.29999,23.44
	l-3.71997,1.11597v-7.44l0.15686-0.04706c1.77588-0.53278,3.56311,0.797,3.56311,2.65106V23.44z M33.29999,6.70001l-7.44,2.23199
	v16.73993l-7.59686,2.27911c-1.77588,0.53278-3.56311-0.797-3.56311-2.65106l7.44-2.23206V10.04797l-3.87689,1.16309
	C16.48724,11.74377,14.70001,10.414,14.70001,8.56l15.03687-4.51111c1.77588-0.53271,3.56311,0.79706,3.56311,2.65106V6.70001z"/>
<g style="&st1;">
	<path style="&st2;" d="M12.48612,45.53273c-0.676,0.20281-1.24336,0.24115-1.70209,0.11407
		c-0.45873-0.12613-0.84345-0.41109-1.15417-0.85392l1.41082-1.48494c0.15512,0.24947,0.33586,0.41252,0.54222,0.49008
		c0.20588,0.07865,0.41366,0.08652,0.62381,0.02347c0.34156-0.10247,0.60009-0.28345,0.77514-0.54185
		c0.17457-0.25826,0.26233-0.67168,0.26233-1.23904v-5.58444l2.08681-0.62607v5.74763c0,0.56831-0.10104,1.11665-0.30313,1.64787
		s-0.51281,0.9992-0.93264,1.40504C13.6754,45.03646,13.13935,45.33675,12.48612,45.53273z"/>
	<path style="&st2;" d="M19.97142,44.52874c-0.56784,0.17036-1.1371,0.23583-1.70826,0.19751
		c-0.57116-0.03832-1.08254-0.19515-1.53321-0.47266l1.18928-1.79039c0.30313,0.17281,0.64326,0.28519,1.0204,0.33523
		c0.37666,0.05019,0.73624,0.0239,1.07827-0.07872c0.38852-0.11656,0.6741-0.27055,0.85674-0.46102
		c0.18264-0.19141,0.27419-0.40294,0.27419-0.63634c0-0.17078-0.05076-0.29407-0.1518-0.36812
		c-0.10104-0.075-0.24288-0.12732-0.42552-0.15792s-0.39848-0.05976-0.64706-0.08576l-1.10721-0.13462
		c-0.30313-0.03334-0.58918-0.11451-0.85721-0.24377c-0.26803-0.12926-0.48577-0.32485-0.65275-0.585
		c-0.16746-0.26096-0.25047-0.60132-0.25047-1.02163c0-0.48956,0.13378-0.97277,0.4018-1.44882
		c0.2685-0.47714,0.63947-0.90342,1.11338-1.279c0.47438-0.37477,1.0185-0.65471,1.63235-0.83887
		c0.50522-0.15157,1.00664-0.20713,1.5038-0.16558c0.49763,0.0414,0.93691,0.19519,1.31784,0.46136l-1.03795,1.6169
		c-0.28748-0.13102-0.57116-0.21099-0.85104-0.23993c-0.27989-0.02893-0.59061,0.00831-0.93264,0.11092
		c-0.31879,0.09564-0.56926,0.23246-0.7519,0.41154c-0.18264,0.18003-0.27419,0.38207-0.27419,0.60693
		c0,0.16319,0.05645,0.28288,0.16935,0.35716c0.11243,0.07538,0.26613,0.12699,0.46063,0.15403
		c0.19402,0.02718,0.41936,0.05256,0.676,0.07708l1.08444,0.10539c0.35721,0.03325,0.66414,0.11954,0.92078,0.25981
		c0.25664,0.14122,0.45256,0.34051,0.58871,0.59947c0.13615,0.25802,0.20399,0.59345,0.20399,1.00522
		c0,0.48197-0.12998,0.96784-0.39042,1.45774c-0.26044,0.4899-0.63757,0.93606-1.13093,1.33645
		C21.26696,44.01387,20.67066,44.31895,19.97142,44.52874z"/>
	<path style="&st2;" d="M26.25626,43.39354v-6.94876l-2.34298,0.70293v-1.73719l6.7851-2.03563v1.73719l-2.35484,0.70649v6.94877
		L26.25626,43.39354z"/>
	<path style="&st2;" d="M35.47828,41.78999c-0.80076,0.24024-1.52562,0.29072-2.17363,0.15117
		c-0.6499-0.13898-1.16603-0.48224-1.55123-1.02702c-0.38425-0.54506-0.57685-1.30796-0.57685-2.28709
		c0-0.72296,0.1129-1.4001,0.33776-2.03112c0.22581-0.63131,0.53416-1.19915,0.92694-1.70599
		c0.39279-0.50589,0.84535-0.93768,1.35863-1.29376c0.51233-0.3558,1.06072-0.62089,1.64326-0.79566
		c0.63757-0.19128,1.18596-0.241,1.64421-0.14983c0.45826,0.09212,0.83587,0.24069,1.13093,0.44818l-1.09583,1.65704
		c-0.21822-0.12808-0.44876-0.2202-0.69355-0.27485c-0.24478-0.0556-0.55029-0.0275-0.91556,0.08208
		c-0.42789,0.12838-0.80645,0.34821-1.13662,0.66169c-0.33017,0.31253-0.59108,0.69821-0.78084,1.15457
		c-0.1907,0.45759-0.28558,0.96993-0.28558,1.53729c0,0.5759,0.08728,1.04118,0.26186,1.39677
		c0.17457,0.35559,0.43928,0.58738,0.79317,0.69468c0.35294,0.10759,0.79791,0.0813,1.33492-0.07981
		c0.15465-0.04639,0.30645-0.11186,0.45446-0.19517c0.14706-0.08302,0.2685-0.17353,0.36148-0.27164v-1.39848l-1.37571,0.41273
		v-1.70209l3.2296-0.96893v4.05693c-0.30361,0.37856-0.70968,0.74897-1.21822,1.11121
		C36.64241,41.33542,36.08454,41.6081,35.47828,41.78999z"/>
</g>
<g style="&st1;">
	<path style="&st2;" d="M9.26232,46.21973c-0.25293,0-0.49268-0.03027-0.71143-0.0918
		c-0.57031-0.15625-1.05176-0.50879-1.43018-1.04785C6.984,44.88574,7.00353,44.62109,7.1671,44.44824l1.41113-1.48535
		c0.09473-0.09961,0.22607-0.15527,0.3623-0.15527c0.01709,0,0.03369,0.00098,0.05078,0.00293
		c0.1543,0.01562,0.29248,0.10156,0.37402,0.2334c0.09473,0.15234,0.19287,0.24805,0.29248,0.28516
		c0.06152,0.02441,0.11523,0.03418,0.16943,0.03418c0.04395,0,0.08789-0.00684,0.13477-0.02051
		c0.23096-0.06934,0.396-0.18164,0.50586-0.34375c0.06592-0.09766,0.17627-0.35156,0.17627-0.95801v-5.58496
		c0-0.2207,0.14502-0.41504,0.35645-0.47852l2.08691-0.62598c0.04688-0.01465,0.09521-0.02148,0.14355-0.02148
		c0.10645,0,0.21094,0.03418,0.29834,0.09863c0.12695,0.09473,0.20166,0.24316,0.20166,0.40137v5.74805
		c0,0.625-0.11279,1.23926-0.33594,1.8252c-0.22705,0.59766-0.58105,1.13086-1.05225,1.58691
		c-0.47656,0.45996-1.08594,0.80371-1.8125,1.02148C10.06896,46.15039,9.64269,46.21973,9.26232,46.21973z"/>
	<path style="&st2;" d="M17.47765,45.2373c-0.11572,0-0.23145-0.00391-0.34766-0.01172
		c-0.65381-0.04492-1.24609-0.22852-1.76221-0.5459c-0.11523-0.07129-0.19678-0.18555-0.22607-0.31836
		s-0.00342-0.27148,0.07178-0.38379l1.18945-1.79102c0.0957-0.14453,0.25439-0.22363,0.41699-0.22363
		c0.08398,0,0.16943,0.02148,0.24756,0.06543c0.24561,0.14062,0.52783,0.2334,0.83887,0.27539
		c0.09961,0.0127,0.19922,0.01953,0.29736,0.01953c0.1958,0,0.38818-0.02734,0.5708-0.08203
		C19.15099,42.12793,19.3297,42,19.41368,41.91309c0.11621-0.12207,0.13428-0.21582,0.13525-0.28516
		c-0.02393-0.00684-0.07715-0.02441-0.15918-0.03809c-0.17578-0.03027-0.38037-0.05762-0.61621-0.08203l-1.1167-0.13574
		c-0.354-0.03809-0.69727-0.13672-1.01514-0.29004c-0.3501-0.16895-0.63818-0.42676-0.85547-0.76562
		c-0.21875-0.33984-0.32959-0.77441-0.32959-1.29102c0-0.5752,0.15674-1.14453,0.46631-1.69336
		c0.29932-0.5332,0.71631-1.0127,1.23828-1.42578c0.52393-0.41406,1.12939-0.72559,1.7998-0.92676
		c0.44287-0.13184,0.89062-0.19922,1.32959-0.19922c0.11963,0,0.23926,0.00488,0.3584,0.01465
		c0.58643,0.04883,1.1123,0.23438,1.56348,0.55078c0.22021,0.15332,0.2793,0.45312,0.13428,0.67969L21.3087,37.6416
		c-0.09473,0.14648-0.25537,0.22949-0.42139,0.22949c-0.06934,0-0.14014-0.01465-0.20703-0.04492
		c-0.23682-0.1084-0.47021-0.17383-0.69336-0.19727c-0.04688-0.00488-0.09277-0.00684-0.14014-0.00684
		c-0.17822,0-0.37988,0.0332-0.59912,0.09863c-0.23877,0.07227-0.42188,0.16992-0.54443,0.29004
		c-0.09912,0.09766-0.12061,0.17285-0.12451,0.23047c0.00098,0,0.00146,0,0.00244,0c0.02344,0,0.08984,0.02148,0.19678,0.03613
		c0.18799,0.02637,0.40527,0.05078,0.65381,0.07422l1.08545,0.10547c0.42334,0.04004,0.79834,0.14746,1.1123,0.31934
		c0.34277,0.1875,0.60889,0.45801,0.79102,0.80371c0.17383,0.33008,0.26172,0.74707,0.26172,1.23926
		c0,0.5625-0.15137,1.13281-0.44922,1.69238c-0.29102,0.54785-0.71387,1.04883-1.25732,1.48926
		c-0.54395,0.44141-1.20361,0.78027-1.96143,1.00684C18.5089,45.16016,17.99132,45.2373,17.47765,45.2373z"/>
	<path style="&st2;" d="M27.15587,43.89355c-0.10645,0-0.21094-0.03418-0.29883-0.09863
		c-0.12598-0.09473-0.20117-0.24316-0.20117-0.40137v-6.27734l-1.69922,0.50977c-0.04688,0.01465-0.09521,0.02148-0.14355,0.02148
		c-0.10645,0-0.21094-0.03418-0.29834-0.09863c-0.12695-0.09473-0.20166-0.24316-0.20166-0.40137v-1.7373
		c0-0.2207,0.14502-0.41504,0.35645-0.47852l6.78516-2.03516c0.04688-0.01465,0.0957-0.02148,0.14355-0.02148
		c0.10645,0,0.21094,0.03418,0.29883,0.09863c0.12598,0.09473,0.20117,0.24316,0.20117,0.40137v1.7373
		c0,0.2207-0.14453,0.41504-0.35645,0.47852l-1.99805,0.59961v6.57715c0,0.2207-0.14453,0.41504-0.35645,0.47852l-2.08789,0.62598
		C27.25255,43.88672,27.20372,43.89355,27.15587,43.89355z"/>
	<path style="&st2;" d="M36.14977,42.51855c-0.29297,0-0.5791-0.03027-0.85059-0.08789
		c-0.77148-0.16602-1.39551-0.5791-1.85449-1.22754c-0.44336-0.62988-0.66797-1.49609-0.66797-2.57617
		c0-0.77832,0.12305-1.51855,0.36719-2.19922c0.24219-0.67773,0.5791-1.29883,1.00195-1.84473
		c0.42285-0.54395,0.91602-1.01367,1.46875-1.39746s1.15332-0.6748,1.78516-0.86328
		c0.47656-0.14355,0.91895-0.21582,1.31543-0.21582c0.20117,0,0.39062,0.01855,0.56934,0.05371
		c0.52734,0.10645,0.97168,0.28418,1.32129,0.52832c0.22168,0.15625,0.2793,0.45996,0.12988,0.68652l-1.09668,1.65723
		c-0.0957,0.14453-0.25488,0.22363-0.41699,0.22363c-0.08691,0-0.17383-0.02246-0.25293-0.06934
		c-0.17578-0.10254-0.35547-0.17383-0.54883-0.2168c-0.04785-0.01074-0.09961-0.0166-0.1582-0.0166
		c-0.13965,0-0.30957,0.03027-0.50391,0.08887c-0.35742,0.10645-0.66309,0.28516-0.93652,0.54492
		c-0.27832,0.26367-0.50195,0.59473-0.66504,0.98438c-0.16309,0.39355-0.24609,0.84668-0.24609,1.3457
		c0,0.49609,0.07031,0.8916,0.20996,1.17578c0.11426,0.23047,0.26953,0.36914,0.49023,0.43652
		c0.09473,0.0293,0.2041,0.04395,0.32617,0.04395c0.20508,0,0.44727-0.04199,0.71973-0.12305
		c0.11816-0.03613,0.2373-0.08789,0.35254-0.15234c0.03906-0.02246,0.07422-0.04395,0.10742-0.06641v-0.49609l-0.73242,0.21875
		c-0.04688,0.01465-0.0957,0.02148-0.14355,0.02148c-0.10645,0-0.21094-0.03418-0.29883-0.09863
		c-0.12695-0.09473-0.20117-0.24316-0.20117-0.40137v-1.70215c0-0.2207,0.14453-0.41504,0.35645-0.47852l3.22949-0.96875
		c0.04688-0.01465,0.0957-0.02148,0.14355-0.02148c0.10645,0,0.21094,0.03418,0.29883,0.09863
		c0.12598,0.09473,0.20117,0.24316,0.20117,0.40137v4.05664c0,0.11328-0.03906,0.22363-0.10938,0.3125
		c-0.33008,0.41211-0.77344,0.81738-1.31836,1.20605c-0.55469,0.39453-1.16699,0.69336-1.82031,0.88867
		C37.17028,42.43457,36.64196,42.51855,36.14977,42.51855z"/>
</g>
<g style="&st1;">
	<path style="&st2;" d="M11.96387,39.74023c-0.6958,0-1.27979-0.13574-1.75195-0.4082
		c-0.47217-0.27148-0.86816-0.68359-1.18799-1.23535l1.45215-1.09277c0.15967,0.30469,0.3457,0.52832,0.55811,0.67188
		c0.21191,0.14453,0.42578,0.2168,0.64209,0.2168c0.35156,0,0.61768-0.10645,0.79785-0.31836
		c0.17969-0.21191,0.27002-0.61035,0.27002-1.19434v-5.74805h2.14795v5.91602c0,0.58496-0.104,1.11816-0.31201,1.60254
		s-0.52783,0.87012-0.95996,1.1582S12.63623,39.74023,11.96387,39.74023z"/>
	<path style="&st2;" d="M19.66797,41.74023c-0.58447,0-1.17041-0.1084-1.7583-0.32422s-1.11426-0.53516-1.57812-0.95996
		l1.22412-1.47559c0.31201,0.27148,0.66211,0.49219,1.05029,0.66016c0.3877,0.16797,0.75781,0.25195,1.10986,0.25195
		c0.3999,0,0.69385-0.07031,0.88184-0.20996c0.18799-0.14062,0.28223-0.33008,0.28223-0.57031
		c0-0.17578-0.05225-0.31836-0.15625-0.42578c-0.104-0.1084-0.25-0.20605-0.43799-0.29395s-0.41016-0.18457-0.66602-0.28809
		l-1.13965-0.48047c-0.31201-0.12793-0.60645-0.2998-0.88232-0.51562s-0.5-0.48438-0.67188-0.80371
		c-0.17236-0.32031-0.25781-0.69629-0.25781-1.12891c0-0.50391,0.1377-0.95996,0.41357-1.36719
		c0.27637-0.4082,0.6582-0.73242,1.146-0.97266c0.48828-0.23926,1.04834-0.35938,1.68018-0.35938
		c0.52002,0,1.03613,0.09766,1.54785,0.29395c0.51221,0.19629,0.96436,0.49023,1.35645,0.88184l-1.06836,1.34375
		c-0.2959-0.22363-0.58789-0.39355-0.87598-0.50977s-0.60791-0.17383-0.95996-0.17383c-0.32812,0-0.58594,0.06348-0.77393,0.19141
		c-0.18799,0.12891-0.28223,0.30859-0.28223,0.54004c0,0.16797,0.05811,0.30859,0.17432,0.41992
		c0.11572,0.1123,0.27393,0.21289,0.47412,0.30078c0.19971,0.08789,0.43164,0.18359,0.6958,0.28809l1.11621,0.44336
		c0.36768,0.14453,0.68359,0.32812,0.94775,0.55176c0.26416,0.22461,0.46582,0.49023,0.60596,0.79883
		c0.14062,0.30762,0.20996,0.67383,0.20996,1.09766c0,0.49609-0.13379,0.95605-0.40186,1.37988s-0.65625,0.7666-1.16406,1.02637
		C21.00146,41.61035,20.3877,41.74023,19.66797,41.74023z"/>
	<path style="&st2;" d="M25.93164,41.57227v-7.15234h-2.41162v-1.78809h6.98389v1.78809h-2.42383v7.15234H25.93164z"/>
	<path style="&st2;" d="M35.42383,39.74023c-0.82422,0-1.57031-0.17188-2.23828-0.51562s-1.19922-0.85645-1.5957-1.53613
		s-0.59375-1.52441-0.59375-2.53223c0-0.74414,0.11523-1.40625,0.34766-1.98633s0.54883-1.06934,0.95312-1.46973
		c0.4043-0.39941,0.87109-0.7041,1.39844-0.91211s1.0918-0.31152,1.69141-0.31152c0.65625,0,1.2207,0.11816,1.69336,0.35352
		c0.4707,0.23633,0.85938,0.50586,1.16406,0.81055l-1.12891,1.36719c-0.22461-0.19922-0.46094-0.36523-0.71289-0.49707
		c-0.25195-0.13281-0.56641-0.19824-0.94336-0.19824c-0.43945,0-0.83008,0.10938-1.16992,0.33008
		c-0.33984,0.21973-0.60742,0.53613-0.80273,0.94727c-0.19727,0.41211-0.29492,0.91016-0.29492,1.49414
		c0,0.59277,0.08984,1.09863,0.26953,1.51855s0.45312,0.74023,0.81641,0.95996s0.82227,0.33008,1.375,0.33008
		c0.1582,0,0.31445-0.02051,0.4668-0.06055s0.27734-0.0957,0.37305-0.16797v-1.43945h-1.41602v-1.75195h3.32422v4.17578
		c-0.3125,0.2959-0.73047,0.55176-1.25391,0.76758C36.62109,39.63184,36.04688,39.74023,35.42383,39.74023z"/>
</g>
<g>
	<g style="&st1;">
		<path style="&st2;" d="M7.55029,44.60645c-0.81201,0-1.49316-0.15918-2.04395-0.47656s-1.0127-0.79785-1.38574-1.44141
			l1.69385-1.27441c0.18652,0.35449,0.40381,0.61621,0.65088,0.78418c0.24756,0.16797,0.49707,0.25195,0.74902,0.25195
			c0.41064,0,0.72119-0.12402,0.93115-0.37109s0.31494-0.71191,0.31494-1.39258v-6.70605h2.50586v6.90137
			c0,0.68164-0.12109,1.30469-0.36377,1.86914c-0.24268,0.56543-0.61621,1.01562-1.12012,1.35156S8.33447,44.60645,7.55029,44.60645
			z"/>
		<path style="&st2;" d="M12.80078,40.475v-1.75h3.96191v1.75H12.80078z"/>
		<path style="&st2;" d="M21.35449,44.60645c-0.68115,0-1.36475-0.12598-2.05078-0.37793s-1.2998-0.62598-1.84131-1.12012
			l1.42822-1.72266c0.36377,0.31738,0.77197,0.57422,1.2251,0.77051c0.45215,0.19629,0.88379,0.29395,1.29492,0.29395
			c0.46631,0,0.80957-0.08203,1.02881-0.24512s0.32959-0.38477,0.32959-0.66504c0-0.20508-0.06152-0.37109-0.18262-0.49707
			s-0.2915-0.24023-0.51074-0.34277c-0.21973-0.10254-0.47852-0.21484-0.77734-0.33594l-1.33008-0.56055
			c-0.36377-0.14844-0.70654-0.34961-1.02881-0.60156c-0.32178-0.25195-0.5835-0.56445-0.78418-0.93848
			c-0.20068-0.37305-0.30078-0.81152-0.30078-1.31543c0-0.58789,0.16113-1.12012,0.48291-1.5957
			c0.32227-0.47656,0.76758-0.85449,1.33691-1.13477c0.56934-0.2793,1.22266-0.41992,1.95996-0.41992
			c0.60693,0,1.20898,0.11426,1.80664,0.34375c0.59668,0.22852,1.12402,0.57129,1.58154,1.02832l-1.24561,1.56836
			c-0.3457-0.26172-0.68652-0.45996-1.02246-0.59473c-0.33594-0.13574-0.70947-0.20312-1.12012-0.20312
			c-0.38281,0-0.68359,0.07422-0.90283,0.22363s-0.3291,0.35938-0.3291,0.62988c0,0.19629,0.06787,0.35938,0.20312,0.49023
			s0.31982,0.24707,0.55322,0.34961c0.23291,0.10352,0.50391,0.21484,0.81201,0.33594l1.30225,0.51855
			c0.42871,0.16797,0.79785,0.38281,1.10547,0.64355c0.30762,0.26172,0.54395,0.57227,0.70654,0.93164
			c0.16309,0.35938,0.24512,0.78613,0.24512,1.28027c0,0.5791-0.15625,1.11621-0.46826,1.61035
			c-0.31348,0.49512-0.76562,0.89355-1.3584,1.19727C22.91064,44.4541,22.19434,44.60645,21.35449,44.60645z"/>
		<path style="&st2;" d="M28.66211,44.41016v-8.34375h-2.81348v-2.08594h8.14746v2.08594h-2.82812v8.34375H28.66211z"/>
		<path style="&st2;" d="M39.73535,44.60645c-0.96094,0-1.83105-0.20117-2.61035-0.60254s-1.40039-0.99805-1.8623-1.79199
			c-0.46191-0.79297-0.69336-1.77734-0.69336-2.9541c0-0.86719,0.13574-1.63965,0.40625-2.31641s0.6416-1.24805,1.11328-1.71484
			c0.4707-0.4668,1.01465-0.82129,1.63086-1.06445c0.61621-0.24219,1.27441-0.36426,1.97363-0.36426
			c0.76562,0,1.42383,0.1377,1.97461,0.41309s1.00293,0.59082,1.35742,0.94531l-1.31543,1.5957
			c-0.26172-0.2334-0.53906-0.42676-0.83301-0.58105c-0.29395-0.15332-0.66016-0.23047-1.09961-0.23047
			c-0.5127,0-0.96777,0.12793-1.36426,0.38477c-0.39746,0.25684-0.70996,0.625-0.93848,1.10645
			c-0.22852,0.48047-0.34277,1.06152-0.34277,1.74219c0,0.69141,0.10449,1.28125,0.31543,1.77148
			c0.20996,0.49023,0.52637,0.86328,0.95117,1.12012s0.95898,0.38477,1.60352,0.38477c0.18652,0,0.36816-0.02344,0.5459-0.07031
			c0.17676-0.0459,0.32227-0.11133,0.43359-0.19531v-1.68066h-1.65137v-2.04395h3.87793v4.87207
			c-0.36426,0.3457-0.85156,0.64453-1.46289,0.89648S40.46387,44.60645,39.73535,44.60645z"/>
	</g>
	<g>
		<path style="&st0;" d="M7.55029,44.60645c-0.80811,0-1.49561-0.16016-2.04395-0.47656
			c-0.24805-0.14355-0.47949-0.32031-0.68945-0.52637c-0.20752-0.20312-0.31641-0.4873-0.29785-0.77734
			s0.16211-0.55762,0.39355-0.7334l0.10938-0.08301c0.1792-0.13574,0.39209-0.20312,0.60449-0.20312
			c0.24219,0,0.48389,0.08789,0.67383,0.26074c0.05371,0.0498,0.10938,0.09277,0.16748,0.13281
			c0.24707,0.16797,0.49219,0.25,0.74658,0.25c0.40869,0,0.72217-0.125,0.93164-0.37109
			c0.21143-0.24902,0.31445-0.70508,0.31445-1.39258v-5.70605c0-0.55273,0.44775-1,1-1h0.50586c0.55225,0,1,0.44727,1,1v5.90137
			c0,0.67773-0.12207,1.30566-0.36279,1.86816c-0.24316,0.56348-0.61963,1.01855-1.12109,1.35254
			C8.97998,44.4375,8.33008,44.60645,7.55029,44.60645z"/>
		<path style="&st0;" d="M13.67383,40.57227c-0.25977,0-0.50391-0.10059-0.68799-0.28516s-0.28516-0.42871-0.28516-0.68945
			c0.00049-0.53613,0.4375-0.97266,0.97412-0.97266l2.21484,0.00195c0.25977,0,0.50391,0.10059,0.68799,0.28516
			s0.28516,0.42871,0.28516,0.68945c-0.00049,0.53613-0.4375,0.97266-0.97412,0.97266L13.67383,40.57227z"/>
		<path style="&st0;" d="M21.35449,44.60645c-0.67773,0-1.36768-0.12695-2.05029-0.37793
			c-0.31445-0.11523-0.61865-0.25977-0.90674-0.42871c-0.25293-0.14844-0.42822-0.40039-0.479-0.68945
			c-0.05078-0.28809,0.02783-0.58496,0.21484-0.81055l0.1626-0.19629c0.1958-0.23633,0.48096-0.3623,0.77051-0.3623
			c0.1748,0,0.35059,0.0459,0.50977,0.13965c0.17285,0.10254,0.35303,0.19531,0.53955,0.27539
			c0.44971,0.19531,0.88574,0.29395,1.29492,0.29395c0.4707,0,0.80713-0.08008,1.02881-0.24512
			c0.21875-0.16211,0.32959-0.38672,0.32959-0.66504c0-0.20703-0.06006-0.36914-0.18311-0.49707
			c-0.12158-0.12695-0.28906-0.23926-0.51123-0.34375c-0.21729-0.10059-0.47754-0.21289-0.77783-0.33496l-1.3291-0.56055
			c-0.35352-0.14453-0.70312-0.34863-1.02734-0.60059c-0.32178-0.25195-0.58545-0.56738-0.78467-0.93945
			c-0.19971-0.37012-0.30127-0.8125-0.30127-1.31543c0-0.58496,0.1626-1.12207,0.48291-1.5957
			c0.32471-0.48047,0.76221-0.85156,1.33691-1.13477c0.56641-0.27832,1.22559-0.41992,1.95996-0.41992
			c0.60352,0,1.21143,0.11523,1.80615,0.34375c0.2417,0.09277,0.46924,0.20215,0.68506,0.33008
			c0.24951,0.14648,0.42236,0.39551,0.47461,0.67969c0.05225,0.28516-0.02148,0.57812-0.20215,0.80469l-0.06396,0.08008
			c-0.19482,0.24414-0.48535,0.37598-0.78174,0.37598c-0.15723,0-0.31543-0.03711-0.4624-0.11328
			c-0.11133-0.05859-0.22266-0.10938-0.3335-0.1543c-0.33643-0.13574-0.7124-0.2041-1.12207-0.2041
			c-0.38135,0-0.68457,0.0752-0.90234,0.22363c-0.22168,0.15137-0.32959,0.35742-0.32959,0.62988
			c0,0.19727,0.06641,0.3584,0.20312,0.49023c0.13525,0.13086,0.31738,0.24609,0.55518,0.35156
			c0.22949,0.10059,0.50049,0.21289,0.80957,0.33398l1.30225,0.51855c0.4292,0.16895,0.80225,0.38574,1.10645,0.64355
			c0.30811,0.26367,0.54443,0.5752,0.70508,0.93066c0.16309,0.35742,0.24609,0.78906,0.24609,1.28125
			c0,0.57715-0.1582,1.11914-0.46924,1.61133c-0.31494,0.49805-0.75928,0.88965-1.35742,1.19629
			C22.91162,44.4541,22.18896,44.60645,21.35449,44.60645z"/>
		<path style="&st0;" d="M29.66211,44.41016c-0.55273,0-1-0.44727-1-1v-7.34375h-1.81348c-0.55273,0-1-0.44727-1-1
			s0.44727-1.08594,1-1.08594h6.14746c0.55273,0,1,0.44727,1,1s-0.44727,1.08594-1,1.08594h-1.82812v7.34375
			c0,0.55273-0.44727,1-1,1H29.66211z"/>
		<path style="&st0;" d="M39.73535,44.60645c-0.96875,0-1.82227-0.19727-2.60938-0.60156
			c-0.78906-0.40723-1.39746-0.99316-1.86328-1.79297c-0.45996-0.79004-0.69336-1.78418-0.69336-2.9541
			c0-0.86426,0.13672-1.64355,0.40625-2.31738c0.26953-0.67285,0.64355-1.24902,1.11328-1.71387
			c0.47461-0.4707,1.00879-0.81934,1.63184-1.06445c0.61426-0.24121,1.27832-0.36426,1.97266-0.36426
			c0.76172,0,1.42578,0.13867,1.97461,0.41309c0.15723,0.07812,0.30762,0.16113,0.4502,0.24707
			c0.24707,0.15039,0.41797,0.40039,0.4668,0.68555s-0.02734,0.57715-0.20996,0.80176l-0.06445,0.0791
			c-0.19629,0.24023-0.4834,0.36816-0.77637,0.36816c-0.16992,0-0.3418-0.04297-0.49805-0.13379l-0.16309-0.08984
			c-0.28809-0.15039-0.6582-0.22852-1.0957-0.22852c-0.51172,0-0.9707,0.12988-1.36426,0.38477
			c-0.39648,0.25684-0.71191,0.62891-0.93848,1.10547c-0.22754,0.47852-0.34277,1.06445-0.34277,1.74316
			c0,0.68848,0.10645,1.28516,0.31543,1.77246c0.21191,0.49414,0.52344,0.86035,0.95117,1.11914
			c0.42188,0.25488,0.96191,0.38477,1.60352,0.38477c0.18457,0,0.36816-0.02344,0.5459-0.07031
			c0.17676-0.0459,0.32129-0.11133,0.43359-0.19531v-1.68066h-0.65137c-0.55273,0-1-0.44727-1-1s0.44727-1.04395,1-1.04395h1.87793
			c0.55273,0,1,0.44727,1,1v3.39746c0,0.32812-0.16113,0.63477-0.43066,0.82227c-0.29102,0.20117-0.6377,0.38574-1.03223,0.54883
			C41.1377,44.47949,40.46094,44.60645,39.73535,44.60645z"/>
	</g>
</g>
</svg>
